<svg width="156" height="36" viewBox="0 0 156 36" fill="none" xmlns="http://www.w3.org/2000/svg">
<rect x="0.5" width="36" height="36" rx="10" fill="url(#paint0_linear_105_8099)"/>
<rect x="0.5" width="36" height="36" rx="10" fill="url(#paint1_linear_105_8099)"/>
<path d="M8.62887 15.2747C7.12371 16.7798 7.12371 19.2202 8.62887 20.7253L15.7747 27.8711C17.2798 29.3763 19.7202 29.3763 21.2253 27.8711L28.3711 20.7253C29.8024 19.2941 29.8727 17.0173 28.582 15.503C28.5319 15.4442 28.3608 15.2865 28.3127 15.2383L28.0769 15.0317C27.7843 14.7494 27.3136 14.775 27.0534 15.0873L20.6939 21.4949L19.4997 22.5673C18.8474 23.1531 17.8495 23.1214 17.2357 22.4954L13.8796 19.0728C13.2663 18.4473 13.2712 17.4445 13.8906 16.8251C14.5144 16.2013 15.5257 16.2013 16.1495 16.8251L17.5709 18.2465C18.0609 18.7364 18.8555 18.7355 19.3444 18.2444L24.7409 12.823C25.0186 12.4619 24.9933 11.9527 24.6813 11.6209L24.5114 11.4402C24.4682 11.3943 24.4295 11.347 24.3951 11.2987L21.2253 8.12887C19.7202 6.62371 17.2798 6.62371 15.7747 8.12887L8.62887 15.2747Z" fill="white"/>
<path d="M43.5 25.9573V9.52445L46.8484 9V14.5068C47.0731 14.4339 47.3578 14.3684 47.7023 14.3101C48.0619 14.2373 48.4065 14.2008 48.7361 14.2008C49.6949 14.2008 50.4889 14.3319 51.1181 14.5942C51.7623 14.8418 52.2717 15.1988 52.6463 15.6649C53.0358 16.1311 53.3054 16.6847 53.4553 17.3257C53.6201 17.9667 53.7025 18.6805 53.7025 19.4672V25.9573H50.3541V19.8606C50.3541 18.8117 50.2117 18.0687 49.9271 17.6316C49.6574 17.1946 49.1481 16.9761 48.399 16.9761C48.0993 16.9761 47.8147 17.0052 47.545 17.0635C47.2903 17.1072 47.0581 17.1582 46.8484 17.2164V25.9573H43.5Z" fill="#1F1F1F"/>
<path d="M56.1714 20.2976C56.1714 19.2778 56.3287 18.3892 56.6433 17.6316C56.9729 16.8595 57.3999 16.2185 57.9243 15.7086C58.4486 15.1988 59.0479 14.8127 59.7221 14.5505C60.4112 14.2882 61.1153 14.1571 61.8345 14.1571C63.5124 14.1571 64.8383 14.6597 65.8121 15.6649C66.7859 16.6556 67.2728 18.1197 67.2728 20.0572C67.2728 20.2466 67.2653 20.4579 67.2503 20.6909C67.2353 20.9095 67.2203 21.1061 67.2054 21.281H59.6097C59.6846 21.9511 60.0067 22.4828 60.576 22.8762C61.1453 23.2695 61.9094 23.4662 62.8682 23.4662C63.4824 23.4662 64.0817 23.4152 64.666 23.3132C65.2652 23.1967 65.7521 23.0583 66.1267 22.898L66.5761 25.5421C66.3964 25.6296 66.1567 25.717 65.857 25.8044C65.5574 25.8918 65.2203 25.9646 64.8458 26.0229C64.4862 26.0957 64.0967 26.154 63.6772 26.1977C63.2577 26.2414 62.8382 26.2633 62.4187 26.2633C61.3551 26.2633 60.4262 26.1103 59.6322 25.8044C58.8531 25.4984 58.2014 25.0832 57.6771 24.5588C57.1677 24.0198 56.7857 23.3861 56.531 22.6576C56.2913 21.9292 56.1714 21.1426 56.1714 20.2976ZM64.0368 19.052C64.0218 18.7752 63.9693 18.5057 63.8795 18.2435C63.8045 17.9813 63.6772 17.7482 63.4974 17.5442C63.3326 17.3403 63.1154 17.1727 62.8457 17.0416C62.591 16.9105 62.2689 16.845 61.8794 16.845C61.5049 16.845 61.1828 16.9105 60.9131 17.0416C60.6434 17.1582 60.4187 17.3184 60.2389 17.5224C60.0591 17.7263 59.9168 17.9667 59.812 18.2435C59.7221 18.5057 59.6546 18.7752 59.6097 19.052H64.0368Z" fill="#1F1F1F"/>
<path d="M74.5759 26.1759C73.6021 26.1613 72.8081 26.0593 72.1939 25.8699C71.5946 25.6805 71.1152 25.4183 70.7556 25.0832C70.4111 24.7336 70.1714 24.3184 70.0365 23.8377C69.9167 23.3424 69.8567 22.7888 69.8567 22.1769V9.52445L73.2051 9V21.5213C73.2051 21.8127 73.2276 22.0749 73.2725 22.308C73.3175 22.5411 73.3999 22.7378 73.5197 22.898C73.6546 23.0583 73.8418 23.1894 74.0816 23.2914C74.3213 23.3933 74.6434 23.4589 75.0479 23.488L74.5759 26.1759Z" fill="#1F1F1F"/>
<path d="M84.5403 20.2976C84.5403 19.2924 84.3081 18.4912 83.8437 17.8939C83.3793 17.282 82.6901 16.9761 81.7762 16.9761C81.4766 16.9761 81.1994 16.9906 80.9448 17.0198C80.6901 17.0343 80.4803 17.0562 80.3155 17.0853V22.9636C80.5253 23.0947 80.7949 23.204 81.1245 23.2914C81.4691 23.3788 81.8137 23.4225 82.1583 23.4225C83.7463 23.4225 84.5403 22.3809 84.5403 20.2976ZM87.9561 20.2102C87.9561 21.0989 87.8438 21.9074 87.619 22.6358C87.3943 23.3642 87.0647 23.9906 86.6303 24.5151C86.1958 25.0395 85.6565 25.4474 85.0123 25.7388C84.368 26.0302 83.6265 26.1759 82.7875 26.1759C82.3231 26.1759 81.8886 26.1322 81.4841 26.0447C81.0796 25.9573 80.6901 25.8335 80.3155 25.6733V30H76.9671V14.8564C77.2668 14.769 77.6114 14.6889 78.0009 14.616C78.3904 14.5286 78.7949 14.4558 79.2144 14.3975C79.6488 14.3392 80.0833 14.2955 80.5178 14.2664C80.9672 14.2227 81.3942 14.2008 81.7987 14.2008C82.7725 14.2008 83.6414 14.3465 84.4055 14.6379C85.1696 14.9147 85.8138 15.3153 86.3381 15.8397C86.8625 16.3496 87.2595 16.9761 87.5292 17.719C87.8138 18.462 87.9561 19.2924 87.9561 20.2102Z" fill="#1F1F1F"/>
<path d="M89.7817 17.9594H96.2986V20.9095H89.7817V17.9594Z" fill="#1F1F1F"/>
<path d="M101.547 20.1228C101.547 21.128 101.78 21.9365 102.244 22.5484C102.708 23.1602 103.398 23.4662 104.311 23.4662C104.611 23.4662 104.888 23.4589 105.143 23.4443C105.398 23.4152 105.607 23.3861 105.772 23.3569V17.435C105.562 17.3038 105.285 17.1946 104.941 17.1072C104.611 17.0198 104.274 16.9761 103.929 16.9761C102.341 16.9761 101.547 18.025 101.547 20.1228ZM109.121 25.5858C108.821 25.6733 108.476 25.7607 108.087 25.8481C107.697 25.9209 107.285 25.9865 106.851 26.0447C106.431 26.103 105.997 26.1467 105.547 26.1759C105.113 26.2196 104.693 26.2414 104.289 26.2414C103.315 26.2414 102.446 26.103 101.682 25.8262C100.918 25.5494 100.274 25.1561 99.7496 24.6462C99.2252 24.1217 98.8207 23.4953 98.536 22.7669C98.2664 22.0239 98.1315 21.1935 98.1315 20.2758C98.1315 19.3434 98.2514 18.5057 98.4911 17.7627C98.7308 17.0052 99.0754 16.3642 99.5248 15.8397C99.9743 15.3153 100.521 14.9147 101.165 14.6379C101.825 14.3611 102.574 14.2227 103.413 14.2227C103.877 14.2227 104.289 14.2664 104.649 14.3538C105.023 14.4412 105.398 14.565 105.772 14.7253V9.52445L109.121 9V25.5858Z" fill="#1F1F1F"/>
<path d="M111.694 20.2976C111.694 19.2778 111.851 18.3892 112.166 17.6316C112.495 16.8595 112.922 16.2185 113.447 15.7086C113.971 15.1988 114.57 14.8127 115.245 14.5505C115.934 14.2882 116.638 14.1571 117.357 14.1571C119.035 14.1571 120.361 14.6597 121.335 15.6649C122.308 16.6556 122.795 18.1197 122.795 20.0572C122.795 20.2466 122.788 20.4579 122.773 20.6909C122.758 20.9095 122.743 21.1061 122.728 21.281H115.132C115.207 21.9511 115.529 22.4828 116.099 22.8762C116.668 23.2695 117.432 23.4662 118.391 23.4662C119.005 23.4662 119.604 23.4152 120.189 23.3132C120.788 23.1967 121.275 23.0583 121.649 22.898L122.099 25.5421C121.919 25.6296 121.679 25.717 121.38 25.8044C121.08 25.8918 120.743 25.9646 120.368 26.0229C120.009 26.0957 119.619 26.154 119.2 26.1977C118.78 26.2414 118.361 26.2633 117.941 26.2633C116.878 26.2633 115.949 26.1103 115.155 25.8044C114.376 25.4984 113.724 25.0832 113.2 24.5588C112.69 24.0198 112.308 23.3861 112.054 22.6576C111.814 21.9292 111.694 21.1426 111.694 20.2976ZM119.559 19.052C119.544 18.7752 119.492 18.5057 119.402 18.2435C119.327 17.9813 119.2 17.7482 119.02 17.5442C118.855 17.3403 118.638 17.1727 118.368 17.0416C118.114 16.9105 117.791 16.845 117.402 16.845C117.027 16.845 116.705 16.9105 116.436 17.0416C116.166 17.1582 115.941 17.3184 115.761 17.5224C115.582 17.7263 115.439 17.9667 115.334 18.2435C115.245 18.5057 115.177 18.7752 115.132 19.052H119.559Z" fill="#1F1F1F"/>
<path d="M128.773 23.6191C129.387 23.6191 129.821 23.5609 130.076 23.4443C130.331 23.3278 130.458 23.102 130.458 22.7669C130.458 22.5047 130.293 22.2789 129.964 22.0895C129.634 21.8855 129.132 21.6597 128.458 21.4121C127.934 21.2227 127.454 21.026 127.02 20.8221C126.6 20.6181 126.241 20.3777 125.941 20.1009C125.641 19.8096 125.409 19.4672 125.244 19.0739C125.08 18.6805 124.997 18.2071 124.997 17.6535C124.997 16.5754 125.409 15.7232 126.233 15.0968C127.057 14.4703 128.188 14.1571 129.627 14.1571C130.346 14.1571 131.035 14.2227 131.694 14.3538C132.353 14.4703 132.878 14.6015 133.267 14.7471L132.683 17.282C132.293 17.1509 131.866 17.0343 131.402 16.9324C130.952 16.8304 130.443 16.7794 129.874 16.7794C128.825 16.7794 128.301 17.0635 128.301 17.6316C128.301 17.7627 128.323 17.8793 128.368 17.9813C128.413 18.0832 128.503 18.1852 128.638 18.2872C128.773 18.3746 128.952 18.4766 129.177 18.5931C129.417 18.6951 129.716 18.8117 130.076 18.9428C130.81 19.205 131.417 19.4672 131.896 19.7294C132.376 19.9771 132.75 20.2539 133.02 20.5598C133.305 20.8512 133.499 21.179 133.604 21.5432C133.724 21.9074 133.784 22.3299 133.784 22.8106C133.784 23.9469 133.342 24.8065 132.458 25.3892C131.589 25.9719 130.353 26.2633 128.75 26.2633C127.701 26.2633 126.825 26.1759 126.121 26.001C125.432 25.8262 124.952 25.6805 124.683 25.564L125.244 22.9199C125.814 23.1384 126.398 23.3132 126.997 23.4443C127.597 23.5609 128.188 23.6191 128.773 23.6191Z" fill="#1F1F1F"/>
<path d="M139.635 18.615C139.964 18.2653 140.301 17.9011 140.646 17.5224C141.005 17.1436 141.35 16.7721 141.68 16.4079C142.009 16.0291 142.316 15.6722 142.601 15.3371C142.901 15.0021 143.155 14.7107 143.365 14.4631H147.343C146.549 15.3517 145.77 16.204 145.006 17.0198C144.256 17.821 143.432 18.6514 142.534 19.5109C142.983 19.9043 143.447 20.3777 143.927 20.9313C144.406 21.4703 144.871 22.0312 145.32 22.6139C145.77 23.1967 146.182 23.7794 146.556 24.3621C146.931 24.9448 147.245 25.4766 147.5 25.9573H143.657C143.418 25.5786 143.14 25.1634 142.826 24.7118C142.526 24.2456 142.204 23.7867 141.859 23.3351C141.515 22.8689 141.148 22.4246 140.758 22.0021C140.384 21.5796 140.009 21.2227 139.635 20.9313V25.9573H136.286V9.52445L139.635 9V18.615Z" fill="#1F1F1F"/>
<defs>
<linearGradient id="paint0_linear_105_8099" x1="10.2714" y1="33.6857" x2="43.1857" y2="2.05714" gradientUnits="userSpaceOnUse">
<stop stop-color="#3627E7"/>
<stop offset="1" stop-color="#9694FF"/>
</linearGradient>
<linearGradient id="paint1_linear_105_8099" x1="10.2714" y1="33.6857" x2="43.1857" y2="2.05714" gradientUnits="userSpaceOnUse">
<stop stop-color="#3627E7"/>
<stop offset="1" stop-color="#9694FF"/>
</linearGradient>
</defs>
</svg>
