<svg width="487" height="330" viewBox="0 0 487 330" fill="none" xmlns="http://www.w3.org/2000/svg">
<g clip-path="url(#clip0_1007_9520)">
<path fill-rule="evenodd" clip-rule="evenodd" d="M142.286 23.3726H215.63C220.957 23.3726 225.316 27.9219 225.316 33.4826V75.1789V78.2632V104.805C225.316 105.271 225.061 105.669 224.648 105.847C224.235 106.026 223.786 105.932 223.47 105.603L206.964 88.374H142.286C136.958 88.374 132.599 83.8247 132.599 78.2632V33.4826C132.599 27.9219 136.958 23.3726 142.286 23.3726Z" fill="#D3EBFA"/>
<path fill-rule="evenodd" clip-rule="evenodd" d="M74.5533 292.096C74.5533 292.096 38.5451 247.275 80.5545 208.461C80.5545 208.461 42.832 164.584 66.8377 114.801C90.8426 65.0187 137.138 69.2383 174.004 79.3628C210.869 89.488 258.879 84.4258 295.744 44.7682C332.61 5.11069 375.476 13.5483 391.766 32.1111C408.054 50.6747 412.341 88.6445 394.337 126.614C376.333 164.585 386.621 189.054 402.053 207.617C417.485 226.18 419.2 277.852 382.334 292.096H74.5533ZM85.3968 307.974C85.3968 307.974 46.9202 283.808 56.2525 242.076C56.2525 242.076 56.5255 241.008 55.6316 240.836C54.7369 240.662 35.6187 272.764 62.3331 302.149L85.3968 307.974Z" fill="#D3EBFA"/>
<path fill-rule="evenodd" clip-rule="evenodd" d="M289.228 194.726C333.608 190.359 325.336 238.234 296.718 268.415C291.473 273.946 283.109 281.515 272.818 290.468H183.722C218.193 239.965 258.748 197.726 289.228 194.726Z" fill="#99C8EC"/>
<path fill-rule="evenodd" clip-rule="evenodd" d="M217.323 290.468C260.993 245.081 300.584 215.034 300.828 214.848C301.627 214.236 302.749 214.418 303.335 215.251C303.921 216.086 303.747 217.258 302.948 217.869C302.712 218.05 264.795 246.823 222.373 290.467H217.323V290.468Z" fill="#89BBE6"/>
<path fill-rule="evenodd" clip-rule="evenodd" d="M258.586 85.6529C276.8 79.6652 277.452 100.495 268.06 115.819C259.155 130.348 220.059 175.453 211.207 198.65L206.409 195.982C209 161.367 235.268 93.3177 258.586 85.6529Z" fill="#99C8EC"/>
<path fill-rule="evenodd" clip-rule="evenodd" d="M208.173 196.964C219.334 146.338 265.02 93.1764 265.174 92.9955C265.457 92.6642 265.944 92.6346 266.26 92.9294C266.577 93.2243 266.605 93.7319 266.323 94.0632C266.169 94.244 220.429 147.465 209.561 197.736L208.173 196.964Z" fill="#89BBE6"/>
<path fill-rule="evenodd" clip-rule="evenodd" d="M268.709 117.077C286.761 114.681 283.994 134.331 272.7 147.043C263.341 157.576 228.558 185.94 211.89 206.4L204.241 203.388C215.407 170.438 247.398 119.906 268.709 117.077Z" fill="#B6DAF4"/>
<path fill-rule="evenodd" clip-rule="evenodd" d="M207.035 204.488C227.992 162.23 273.532 125.262 273.697 125.127C274.016 124.867 274.475 124.926 274.725 125.258C274.974 125.59 274.919 126.07 274.6 126.331C274.437 126.465 229.19 163.194 208.394 205.023L207.035 204.488Z" fill="#99C8EC"/>
<path fill-rule="evenodd" clip-rule="evenodd" d="M37.096 290.468H446.822C449.508 290.468 451.708 292.763 451.708 295.568V295.569C451.708 298.374 449.509 300.67 446.822 300.67H430.335C428.841 300.67 427.62 301.946 427.62 303.503C427.62 305.063 428.842 306.338 430.335 306.338H436.366C438.232 306.338 439.76 307.932 439.76 309.879C439.76 311.827 438.233 313.422 436.366 313.422H48.091C46.2238 313.422 44.6972 311.828 44.6972 309.879C44.6972 307.931 46.2245 306.338 48.091 306.338H52.8416C54.3346 306.338 55.5561 305.062 55.5561 303.503C55.5561 301.945 54.3346 300.67 52.8416 300.67H37.096C34.4084 300.67 32.2092 298.374 32.2092 295.569V295.568C32.2092 292.763 34.4106 290.468 37.096 290.468ZM39.6409 313.422C41.4324 313.422 42.8985 311.892 42.8985 310.021V309.737C42.8985 307.867 41.4324 306.337 39.6409 306.337C37.8494 306.337 36.3826 307.867 36.3826 309.737V310.021C36.3826 311.892 37.8494 313.422 39.6409 313.422Z" fill="#170839"/>
<path fill-rule="evenodd" clip-rule="evenodd" d="M411.037 159.766C412.431 158.311 414.358 157.41 416.485 157.41C418.611 157.41 420.537 158.311 421.93 159.766C423.325 161.221 424.188 163.232 424.188 165.452C424.188 167.672 423.325 169.682 421.93 171.138C420.537 172.592 418.61 173.493 416.485 173.493C414.357 173.493 412.431 172.592 411.037 171.138C409.644 169.682 408.781 167.672 408.781 165.452C408.782 163.232 409.644 161.222 411.037 159.766ZM412.701 151.796C411.634 152.118 410.622 152.572 409.683 153.138C408.719 153.72 407.83 154.421 407.034 155.223C406.878 155.378 406.647 155.402 406.469 155.294L402.891 153.137L402.871 153.125C402.666 153.008 402.432 152.987 402.219 153.046C401.998 153.108 401.801 153.256 401.679 153.477L401.664 153.502L399.146 158.055C399.025 158.274 399.001 158.528 399.06 158.758C399.119 158.989 399.261 159.194 399.472 159.321L399.496 159.337L403.045 161.476C403.232 161.589 403.317 161.814 403.269 162.021H403.27C403.138 162.573 403.039 163.139 402.971 163.72C402.905 164.286 402.87 164.864 402.87 165.453C402.87 166.041 402.905 166.619 402.971 167.185C403.039 167.765 403.139 168.333 403.271 168.883C403.324 169.112 403.215 169.343 403.02 169.443L399.471 171.582L399.472 171.583C399.261 171.71 399.119 171.916 399.06 172.146C399.001 172.377 399.025 172.63 399.146 172.849L401.679 177.428C401.801 177.647 401.998 177.795 402.219 177.857C402.44 177.918 402.68 177.893 402.89 177.766L402.918 177.752L406.472 175.609C406.658 175.499 406.887 175.533 407.034 175.681C407.83 176.482 408.719 177.184 409.683 177.765C410.629 178.336 411.647 178.792 412.723 179.112C412.931 179.174 413.067 179.373 413.067 179.587V183.898C413.067 184.152 413.167 184.383 413.328 184.551C413.488 184.719 413.708 184.823 413.952 184.823H419.019C419.262 184.823 419.483 184.718 419.644 184.551C419.805 184.383 419.904 184.152 419.904 183.898V179.587C419.904 179.354 420.06 179.159 420.269 179.106C421.336 178.784 422.347 178.331 423.287 177.764C424.25 177.183 425.14 176.481 425.936 175.68C426.099 175.517 426.344 175.5 426.524 175.625L430.079 177.766C430.29 177.893 430.531 177.918 430.753 177.856C430.973 177.795 431.17 177.646 431.291 177.427L431.306 177.402L433.825 172.846C433.947 172.627 433.97 172.375 433.91 172.145C433.851 171.914 433.709 171.708 433.501 171.582L429.924 169.427C429.737 169.315 429.653 169.09 429.7 168.881C429.831 168.33 429.931 167.764 429.999 167.183C430.065 166.618 430.099 166.039 430.099 165.451C430.099 164.863 430.065 164.285 429.999 163.718C429.931 163.137 429.831 162.571 429.7 162.02C429.646 161.79 429.754 161.56 429.95 161.46L433.501 159.32C433.709 159.194 433.851 158.988 433.91 158.757C433.97 158.527 433.946 158.274 433.824 158.055L433.811 158.028L431.292 153.475L431.291 153.476C431.17 153.255 430.972 153.107 430.753 153.046C430.531 152.984 430.29 153.008 430.08 153.135V153.135L426.501 155.293C426.309 155.408 426.074 155.368 425.926 155.211C425.133 154.413 424.246 153.717 423.287 153.137C422.342 152.566 421.323 152.111 420.249 151.789C420.041 151.727 419.904 151.529 419.904 151.314V147.004C419.904 146.75 419.804 146.519 419.644 146.351C419.482 146.183 419.262 146.08 419.019 146.08H413.952C413.708 146.08 413.487 146.183 413.328 146.351C413.167 146.519 413.067 146.75 413.067 147.004V151.314C413.065 151.549 412.911 151.744 412.701 151.796Z" fill="#D3EBFA"/>
<path fill-rule="evenodd" clip-rule="evenodd" d="M432.077 96.0905C433.13 94.9902 434.394 94.1019 435.799 93.494C437.151 92.9097 438.631 92.5868 440.18 92.5868C441.729 92.5868 443.208 92.9097 444.56 93.494C445.966 94.1019 447.229 94.9902 448.282 96.0905C449.337 97.1908 450.189 98.5099 450.77 99.9772C451.331 101.388 451.639 102.932 451.639 104.549C451.639 106.166 451.33 107.711 450.77 109.122C450.188 110.59 449.337 111.908 448.282 113.008C447.23 114.109 445.967 114.997 444.563 115.604C443.212 116.19 441.729 116.512 440.181 116.512C438.631 116.512 437.152 116.19 435.8 115.605C434.394 114.998 433.131 114.109 432.078 113.008C431.023 111.908 430.172 110.59 429.59 109.122C429.029 107.711 428.721 106.166 428.721 104.549C428.721 102.932 429.03 101.388 429.59 99.9772C430.172 98.5092 431.022 97.1908 432.077 96.0905ZM436.201 94.5153C434.932 95.0639 433.788 95.8717 432.827 96.8739C431.866 97.877 431.093 99.073 430.569 100.396C430.061 101.673 429.782 103.075 429.782 104.549C429.782 106.022 430.061 107.425 430.569 108.702C431.093 110.026 431.866 111.221 432.827 112.224C433.787 113.227 434.933 114.034 436.201 114.583C437.424 115.112 438.768 115.403 440.18 115.403C441.59 115.403 442.933 115.112 444.156 114.583C445.426 114.035 446.572 113.227 447.532 112.224C448.494 111.221 449.267 110.026 449.792 108.702C450.299 107.425 450.578 106.022 450.578 104.549C450.578 103.075 450.299 101.673 449.792 100.396C449.267 99.0722 448.494 97.877 447.532 96.8739C446.573 95.8717 445.426 95.0639 444.158 94.5153C442.935 93.9864 441.592 93.6939 440.18 93.6939C438.767 93.6947 437.424 93.9864 436.201 94.5153ZM434.934 85.7122C434.218 85.9288 433.512 86.1925 432.823 86.4987C432.123 86.8095 431.446 87.1628 430.794 87.5564C430.134 87.9554 429.495 88.3976 428.884 88.8786C428.269 89.3619 427.687 89.8809 427.138 90.4333C426.943 90.6286 426.702 90.7426 426.453 90.7745C426.198 90.8071 425.934 90.7524 425.706 90.6141C424.023 89.5997 422.254 88.5959 420.605 87.5397C420.525 87.4964 420.441 87.4698 420.358 87.4599C420.262 87.4493 420.166 87.4569 420.076 87.482C419.982 87.5086 419.894 87.5526 419.819 87.6134C419.745 87.6719 419.681 87.7464 419.632 87.8338C418.406 89.7715 417.174 92.2745 416.038 94.3299C415.99 94.4173 415.96 94.5115 415.948 94.6057C415.935 94.7045 415.945 94.8079 415.97 94.9082C415.994 95.0054 416.036 95.0974 416.095 95.1772C416.15 95.2539 416.223 95.3208 416.307 95.3709C417.821 96.4165 419.772 97.4613 421.376 98.4294C421.611 98.57 421.784 98.7812 421.881 99.0213C421.916 99.1057 421.941 99.1931 421.957 99.2827L422.062 99.3184L421.944 99.8124C421.853 100.201 421.772 100.588 421.704 100.974C421.638 101.351 421.581 101.745 421.533 102.155C421.487 102.555 421.452 102.952 421.43 103.344C421.407 103.727 421.396 104.129 421.396 104.547C421.396 104.965 421.407 105.366 421.43 105.749C421.452 106.142 421.487 106.539 421.533 106.94C421.581 107.35 421.639 107.743 421.704 108.12C421.773 108.507 421.853 108.895 421.944 109.283C422.013 109.571 421.98 109.861 421.869 110.109C421.76 110.358 421.57 110.567 421.326 110.697L416.838 113.403L416.839 113.404L416.307 113.725C416.223 113.775 416.15 113.843 416.095 113.919C416.037 113.998 415.994 114.09 415.97 114.188C415.945 114.288 415.935 114.391 415.948 114.49C415.96 114.583 415.99 114.678 416.038 114.766L419.362 120.777L419.362 120.776L419.632 121.262C419.679 121.35 419.745 121.425 419.818 121.483C419.893 121.543 419.982 121.588 420.075 121.615C420.17 121.641 420.269 121.649 420.364 121.637C420.453 121.624 420.542 121.593 420.626 121.543C422.234 120.488 424.049 119.482 425.708 118.482C425.945 118.341 426.204 118.292 426.449 118.323C426.704 118.355 426.946 118.472 427.136 118.662L427.138 118.664C427.687 119.216 428.27 119.737 428.884 120.219C429.495 120.7 430.133 121.142 430.793 121.541C431.449 121.936 432.131 122.292 432.836 122.605C433.528 122.912 434.245 123.178 434.986 123.399C435.246 123.476 435.463 123.638 435.615 123.849C435.769 124.061 435.857 124.326 435.857 124.605L435.859 130.72C435.859 130.823 435.878 130.921 435.914 131.007C435.949 131.098 436.005 131.182 436.073 131.253C436.14 131.325 436.221 131.382 436.309 131.421C436.394 131.457 436.486 131.477 436.585 131.477H443.774C443.873 131.477 443.965 131.457 444.049 131.421C444.138 131.382 444.219 131.325 444.286 131.255C444.354 131.182 444.409 131.098 444.445 131.007C444.48 130.921 444.499 130.823 444.499 130.72V124.605C444.499 124.314 444.597 124.044 444.759 123.829C444.926 123.61 445.158 123.449 445.424 123.383C446.14 123.168 446.846 122.905 447.535 122.599C448.235 122.287 448.913 121.934 449.564 121.54C450.225 121.141 450.863 120.7 451.475 120.219C452.088 119.736 452.672 119.216 453.22 118.664C453.423 118.46 453.68 118.345 453.942 118.32C454.209 118.295 454.482 118.363 454.713 118.522L459.729 121.544C459.812 121.594 459.904 121.625 459.994 121.637C460.088 121.649 460.187 121.641 460.284 121.615C460.377 121.589 460.465 121.544 460.541 121.484C460.614 121.425 460.678 121.352 460.727 121.263C461.919 119.094 463.128 116.934 464.321 114.766C464.37 114.678 464.399 114.584 464.41 114.489C464.423 114.39 464.415 114.288 464.388 114.188C464.364 114.09 464.321 113.997 464.265 113.919C464.209 113.84 464.139 113.775 464.056 113.726L458.983 110.668C458.747 110.526 458.575 110.316 458.478 110.076C458.451 110.011 458.429 109.944 458.414 109.875L458.281 109.846L458.415 109.285C458.506 108.897 458.587 108.508 458.655 108.122C458.721 107.746 458.778 107.352 458.826 106.942C458.873 106.541 458.908 106.144 458.93 105.751C458.953 105.369 458.964 104.967 458.964 104.549C458.964 104.131 458.953 103.73 458.93 103.347C458.908 102.955 458.873 102.558 458.826 102.157C458.777 101.742 458.72 101.347 458.655 100.973C458.586 100.588 458.506 100.201 458.415 99.8131C458.346 99.5236 458.38 99.2341 458.491 98.9849C458.6 98.7371 458.789 98.5289 459.029 98.3998L464.054 95.3709C464.136 95.3231 464.207 95.2554 464.264 95.1787C464.321 95.1012 464.363 95.0085 464.388 94.9089C464.414 94.8086 464.422 94.706 464.41 94.608C464.398 94.5138 464.369 94.4188 464.321 94.3314C463.093 92.4272 461.864 89.8824 460.726 87.8353C460.677 87.7472 460.613 87.6727 460.54 87.6149C460.465 87.5542 460.376 87.5101 460.283 87.4835C460.186 87.4569 460.087 87.4493 459.993 87.4614C459.904 87.4728 459.814 87.5048 459.728 87.5557L454.651 90.6149C454.413 90.76 454.144 90.8087 453.89 90.773C453.635 90.7365 453.392 90.6149 453.203 90.4196C452.652 89.8649 452.071 89.3474 451.466 88.8718C450.863 88.3976 450.227 87.9576 449.562 87.5564C448.908 87.1613 448.225 86.8057 447.52 86.4926C446.828 86.1864 446.111 85.9197 445.371 85.6986C445.111 85.6203 444.894 85.4584 444.742 85.248C444.587 85.0352 444.499 84.7692 444.499 84.4919L444.497 78.3765C444.497 78.2739 444.478 78.1766 444.443 78.0892C444.408 77.998 444.352 77.9145 444.283 77.8423C444.217 77.7708 444.136 77.7139 444.047 77.6751C443.963 77.6386 443.871 77.6181 443.771 77.6181H436.583C436.484 77.6181 436.391 77.6386 436.307 77.6751C436.219 77.7139 436.137 77.7708 436.07 77.8408C435.939 77.9798 435.857 78.169 435.857 78.3757V84.4911C435.857 84.7837 435.76 85.0534 435.599 85.267C435.432 85.4873 435.2 85.6477 434.934 85.7122ZM432.407 85.4812C431.668 85.8095 430.953 86.1834 430.263 86.5998C429.56 87.0238 428.885 87.4903 428.245 87.9956C427.602 88.5025 426.986 89.0503 426.405 89.637C426.382 89.659 426.354 89.6719 426.324 89.6757C426.293 89.6795 426.262 89.6734 426.236 89.659C424.529 88.6301 422.82 87.6058 421.116 86.5716C420.914 86.4569 420.695 86.3878 420.475 86.3619C420.248 86.3346 420.019 86.3528 419.802 86.4144C419.577 86.4767 419.364 86.5853 419.175 86.7358C418.994 86.8809 418.837 87.064 418.717 87.2814C417.479 89.3725 416.305 91.6377 415.121 93.7767C415.001 93.994 414.928 94.2296 414.899 94.4682C414.868 94.7152 414.885 94.9621 414.944 95.1954C415.004 95.4302 415.109 95.6528 415.253 95.8489C415.391 96.0388 415.568 96.203 415.776 96.3284C417.409 97.3808 419.179 98.38 420.85 99.3868C420.875 99.402 420.895 99.4271 420.907 99.4552C420.919 99.4849 420.922 99.5183 420.914 99.5479L420.799 100.042L420.806 100.044C420.754 100.284 420.707 100.528 420.663 100.776C420.589 101.199 420.528 101.616 420.48 102.025C420.434 102.43 420.397 102.85 420.373 103.28C420.347 103.712 420.334 104.135 420.334 104.548C420.334 104.96 420.347 105.382 420.373 105.815C420.397 106.245 420.434 106.665 420.48 107.071C420.528 107.479 420.589 107.896 420.664 108.32C420.738 108.742 420.823 109.151 420.917 109.549C420.925 109.581 420.921 109.615 420.908 109.644C420.892 109.676 420.871 109.702 420.845 109.715C418.98 110.754 417.088 111.977 415.245 113.089L415.311 113.175L415.255 113.248C415.11 113.445 415.006 113.669 414.946 113.903C414.886 114.135 414.869 114.383 414.9 114.63C414.929 114.868 415.002 115.103 415.123 115.32L418.986 122.303L419.058 122.257C419.097 122.294 419.135 122.329 419.176 122.361C419.365 122.511 419.579 122.62 419.804 122.684C420.026 122.745 420.262 122.763 420.498 122.731C420.721 122.702 420.939 122.628 421.143 122.51C422.833 121.574 424.572 120.444 426.239 119.437C426.264 119.424 426.295 119.418 426.325 119.422C426.356 119.426 426.386 119.44 426.408 119.462C426.99 120.048 427.605 120.596 428.248 121.102C428.888 121.606 429.562 122.073 430.265 122.496C430.959 122.915 431.68 123.291 432.423 123.621C433.162 123.948 433.922 124.23 434.697 124.462C434.727 124.471 434.754 124.49 434.771 124.514C434.79 124.542 434.802 124.573 434.799 124.604V130.718C434.799 130.968 434.849 131.209 434.936 131.43C435.029 131.661 435.162 131.866 435.327 132.037C435.492 132.208 435.689 132.348 435.907 132.442C436.117 132.534 436.348 132.585 436.587 132.585H443.776C444.015 132.585 444.246 132.534 444.458 132.442C444.675 132.347 444.872 132.208 445.039 132.037C445.203 131.866 445.335 131.661 445.427 131.43C445.514 131.209 445.564 130.969 445.564 130.718V124.604C445.564 124.567 445.575 124.535 445.592 124.511C445.609 124.487 445.639 124.469 445.671 124.46L445.695 124.452C446.474 124.217 447.228 123.937 447.953 123.614C448.692 123.286 449.408 122.912 450.097 122.496C450.8 122.072 451.475 121.606 452.114 121.101C452.759 120.595 453.374 120.046 453.956 119.46C453.98 119.435 454.011 119.421 454.039 119.418C454.071 119.416 454.103 119.424 454.131 119.443L459.205 122.5C459.413 122.625 459.637 122.701 459.863 122.731C460.099 122.763 460.336 122.745 460.559 122.683C460.783 122.62 460.998 122.511 461.185 122.361C461.362 122.219 461.517 122.042 461.636 121.83C462.969 119.593 464.228 117.143 465.5 114.846L465.432 114.803C465.444 114.745 465.454 114.685 465.461 114.627C465.491 114.381 465.475 114.134 465.415 113.901C465.355 113.667 465.25 113.444 465.106 113.248C464.968 113.057 464.792 112.893 464.584 112.768L459.51 109.71C459.484 109.694 459.464 109.669 459.452 109.642C459.44 109.612 459.437 109.577 459.444 109.546L459.577 108.985L459.569 108.984C459.615 108.766 459.656 108.545 459.696 108.32C459.77 107.897 459.832 107.479 459.88 107.07C459.927 106.664 459.964 106.245 459.989 105.814C460.013 105.381 460.027 104.959 460.027 104.547C460.027 104.135 460.013 103.713 459.989 103.28C459.965 102.85 459.927 102.429 459.88 102.021C459.833 101.616 459.772 101.199 459.696 100.772C459.622 100.353 459.537 99.9431 459.443 99.5464C459.435 99.5145 459.44 99.4803 459.453 99.4484C459.467 99.4195 459.49 99.3944 459.518 99.3792L464.586 96.3253C464.795 96.1984 464.97 96.035 465.107 95.8458C465.251 95.6475 465.355 95.4249 465.415 95.1931C465.475 94.9613 465.491 94.7136 465.461 94.4674C465.434 94.2364 465.362 94.0062 465.247 93.7927C464.04 91.4576 462.654 89.1028 461.378 86.7935L461.305 86.8376C461.266 86.8011 461.227 86.7669 461.185 86.7335C460.998 86.583 460.782 86.4744 460.559 86.4121C460.336 86.3498 460.099 86.3323 459.863 86.3634C459.635 86.3931 459.411 86.4691 459.205 86.5922L458.83 86.8171L458.831 86.8216L454.124 89.6567C454.097 89.6734 454.064 89.6795 454.034 89.6749C454.004 89.6712 453.976 89.6567 453.955 89.6339L453.942 89.621C453.366 89.042 452.751 88.4956 452.105 87.9873C451.461 87.4812 450.79 87.0177 450.097 86.599C449.403 86.1803 448.681 85.8042 447.939 85.4744C447.199 85.1469 446.441 84.865 445.664 84.6332C445.634 84.6241 445.608 84.6051 445.591 84.5815C445.572 84.5542 445.56 84.5223 445.562 84.4919V78.3765C445.562 78.1265 445.513 77.8856 445.425 77.6652C445.333 77.4357 445.2 77.2298 445.034 77.0589C444.869 76.8871 444.673 76.7488 444.456 76.6538C444.244 76.5619 444.014 76.511 443.774 76.511H436.585C436.346 76.511 436.115 76.5619 435.904 76.6538C435.687 76.7488 435.489 76.8879 435.323 77.0589C435 77.397 434.797 77.8636 434.797 78.3765V84.4919C434.797 84.5268 434.786 84.5595 434.769 84.5854C434.751 84.6097 434.722 84.6279 434.69 84.6355L434.668 84.6446C433.886 84.8794 433.132 85.1598 432.407 85.4812Z" fill="#D3EBFA"/>
<path fill-rule="evenodd" clip-rule="evenodd" d="M147.188 19.473H220.531C225.859 19.473 230.217 24.0224 230.217 29.5838V71.2801V74.3644V100.906C230.217 101.372 229.962 101.771 229.55 101.948C229.137 102.127 228.687 102.033 228.371 101.704L211.866 84.4744H147.188C141.86 84.4744 137.501 79.9251 137.501 74.3636V29.5838C137.502 24.0231 141.86 19.473 147.188 19.473Z" fill="#3388C9"/>
<path fill-rule="evenodd" clip-rule="evenodd" d="M154.913 71.7011H192.96C194.694 71.7011 196.112 70.2209 196.112 68.4116V38.2593C196.112 36.4501 194.694 34.9698 192.96 34.9698H191.414V33.4387C191.414 32.9402 191.024 32.5337 190.547 32.5337H179.052C178.575 32.5337 178.184 32.941 178.184 33.4387V34.9698H154.913C153.18 34.9698 151.762 36.4508 151.762 38.2593V68.4116C151.761 70.2209 153.18 71.7011 154.913 71.7011Z" fill="#F9B532"/>
<path fill-rule="evenodd" clip-rule="evenodd" d="M181.465 71.7011H157.422C156.011 71.7011 154.855 70.4952 154.855 69.021V43.4059C154.855 41.9317 156.011 40.7258 157.422 40.7258H181.465C182.877 40.7258 184.032 41.9317 184.032 43.4059V69.0203C184.032 70.4952 182.877 71.7011 181.465 71.7011Z" fill="white"/>
<path fill-rule="evenodd" clip-rule="evenodd" d="M158.706 71.7011H193.836C195.569 71.7011 197.618 70.2208 198.39 68.4116L209.464 42.4628C210.236 40.6536 209.449 39.1734 207.716 39.1734H205.87L206.565 37.545C206.847 36.8847 206.56 36.3436 205.928 36.3436H193.105C192.473 36.3436 191.724 36.8847 191.443 37.545L190.748 39.1734H172.587C170.853 39.1734 168.804 40.6536 168.032 42.4628L156.958 68.4116C156.187 70.2216 156.973 71.7011 158.706 71.7011Z" fill="#FCC749"/>
<path fill-rule="evenodd" clip-rule="evenodd" d="M176.527 46.8921C178.917 44.3982 182.048 43.1505 185.181 43.1505C188.312 43.1505 191.445 44.3982 193.835 46.8921C196.224 49.3868 197.419 52.6557 197.418 55.9254C197.418 59.1944 196.224 62.4633 193.835 64.9587C191.445 67.4526 188.312 68.6996 185.181 68.6996C182.049 68.6996 178.917 67.4526 176.527 64.9587C174.138 62.4641 172.942 59.1944 172.942 55.9254C172.942 52.6557 174.137 49.3868 176.527 46.8921ZM185.18 44.9803C182.497 44.9803 179.813 46.0487 177.765 48.1854C175.718 50.3229 174.694 53.1245 174.694 55.9254C174.694 58.7263 175.718 61.5272 177.765 63.6647C179.813 65.8014 182.497 66.8706 185.18 66.8706C187.863 66.8706 190.547 65.8014 192.594 63.6647C194.642 61.5272 195.665 58.7263 195.665 55.9254C195.665 53.1245 194.642 50.3229 192.594 48.1854C190.547 46.0479 187.863 44.9803 185.18 44.9803Z" fill="#170839"/>
<path fill-rule="evenodd" clip-rule="evenodd" d="M192.594 64.958C192.252 64.6001 192.252 64.0211 192.594 63.664C192.936 63.3068 193.491 63.3068 193.834 63.664L196.73 66.6875C197.073 67.0439 197.073 67.6236 196.73 67.9815C196.388 68.3387 195.834 68.3387 195.491 67.9815L192.594 64.958Z" fill="#170839"/>
<path fill-rule="evenodd" clip-rule="evenodd" d="M195.609 69.3987C194.925 68.6844 194.925 67.5256 195.609 66.8113C196.294 66.0971 197.403 66.0971 198.088 66.8113L207.423 76.5567C208.108 77.2709 208.108 78.4297 207.423 79.144C206.739 79.859 205.629 79.859 204.945 79.144L195.609 69.3987Z" fill="#170839"/>
<path fill-rule="evenodd" clip-rule="evenodd" d="M191.227 49.6117C191.001 49.3761 191.001 48.9931 191.227 48.7576C191.453 48.5212 191.82 48.5212 192.047 48.7576C192.974 49.7256 193.676 50.8457 194.151 52.0432C194.642 53.2818 194.888 54.6025 194.888 55.9246H194.89C194.89 56.8692 194.764 57.8152 194.512 58.7316C194.424 59.0523 194.104 59.2384 193.797 59.1472C193.489 59.0561 193.312 58.7217 193.398 58.401C193.621 57.5941 193.732 56.7597 193.732 55.9246H193.734C193.734 54.7605 193.517 53.5956 193.083 52.5014C192.668 51.4536 192.05 50.4695 191.227 49.6117ZM192.379 60.7498C192.552 60.4694 192.909 60.3881 193.178 60.5682C193.447 60.7483 193.524 61.1214 193.352 61.4018C193.168 61.7019 192.964 61.996 192.744 62.2809C192.522 62.5682 192.289 62.8394 192.047 63.0925C191.821 63.3288 191.454 63.3288 191.228 63.0925C191.002 62.8569 191.002 62.4739 191.228 62.2391C191.454 62.0028 191.659 61.765 191.844 61.5264C192.036 61.2764 192.215 61.0165 192.379 60.7498ZM179.133 62.2384C179.358 62.4732 179.358 62.8562 179.133 63.0917C178.906 63.328 178.54 63.328 178.314 63.0917C177.386 62.1236 176.685 61.0036 176.209 59.806C175.717 58.5637 175.47 57.2423 175.47 55.9246C175.47 55.3099 175.525 54.6891 175.635 54.0706C175.743 53.4649 175.905 52.8662 176.121 52.2803C176.234 51.9703 176.567 51.8145 176.864 51.9338C177.161 52.0524 177.311 52.4004 177.196 52.7096C177.008 53.221 176.866 53.7491 176.771 54.2871C176.676 54.8221 176.628 55.3699 176.628 55.9246C176.628 57.0926 176.844 58.2574 177.277 59.3478C177.692 60.3957 178.311 61.3805 179.133 62.2384ZM178.235 50.7081C178.049 50.9779 177.689 51.0394 177.43 50.8449C177.172 50.6511 177.113 50.275 177.299 50.0045C177.453 49.7803 177.615 49.5653 177.783 49.3601L177.811 49.329C177.986 49.117 178.154 48.9255 178.314 48.7576C178.54 48.5212 178.906 48.5212 179.133 48.7576C179.358 48.9931 179.358 49.3761 179.133 49.6117C178.962 49.7895 178.813 49.9566 178.686 50.1101L178.66 50.1436C178.507 50.3312 178.365 50.5197 178.235 50.7081Z" fill="white"/>
<path fill-rule="evenodd" clip-rule="evenodd" d="M191.633 27.7518H219.295C219.648 27.7518 219.937 28.0535 219.937 28.4213C219.937 28.7898 219.648 29.0915 219.295 29.0915H191.633C191.281 29.0915 190.991 28.7898 190.991 28.4213C190.991 28.0535 191.281 27.7518 191.633 27.7518Z" fill="#EFEEF8"/>
<path fill-rule="evenodd" clip-rule="evenodd" d="M191.633 31.9547H219.295C219.648 31.9547 219.937 32.2556 219.937 32.6242C219.937 32.9927 219.648 33.2944 219.295 33.2944H191.633C191.281 33.2944 190.991 32.9927 190.991 32.6242C190.991 32.2564 191.281 31.9547 191.633 31.9547Z" fill="#EFEEF8"/>
<path fill-rule="evenodd" clip-rule="evenodd" d="M214.072 36.5837H219.295C219.648 36.5837 219.937 36.8847 219.937 37.2539C219.937 37.6225 219.649 37.9241 219.295 37.9241H214.072C213.719 37.9241 213.43 37.6225 213.43 37.2539C213.43 36.8854 213.719 36.5837 214.072 36.5837Z" fill="#EFEEF8"/>
<path fill-rule="evenodd" clip-rule="evenodd" d="M214.072 41.3352H219.295C219.648 41.3352 219.937 41.6361 219.937 42.0047C219.937 42.3732 219.649 42.6749 219.295 42.6749H214.072C213.719 42.6749 213.43 42.3739 213.43 42.0047C213.43 41.6369 213.719 41.3352 214.072 41.3352Z" fill="#EFEEF8"/>
<path fill-rule="evenodd" clip-rule="evenodd" d="M214.072 46.0867H219.295C219.648 46.0867 219.937 46.3883 219.937 46.7569C219.937 47.1254 219.649 47.4271 219.295 47.4271H214.072C213.719 47.4271 213.43 47.1254 213.43 46.7569C213.43 46.3883 213.719 46.0867 214.072 46.0867Z" fill="#EFEEF8"/>
<path fill-rule="evenodd" clip-rule="evenodd" d="M214.072 50.8381H219.295C219.648 50.8381 219.937 51.1398 219.937 51.5083C219.937 51.8769 219.649 52.1778 219.295 52.1778H214.072C213.719 52.1778 213.43 51.8769 213.43 51.5083C213.43 51.1398 213.719 50.8381 214.072 50.8381Z" fill="#EFEEF8"/>
<path fill-rule="evenodd" clip-rule="evenodd" d="M214.072 55.5896H219.295C219.648 55.5896 219.937 55.8905 219.937 56.259C219.937 56.6276 219.649 56.9285 219.295 56.9285H214.072C213.719 56.9285 213.43 56.6276 213.43 56.259C213.43 55.8905 213.719 55.5896 214.072 55.5896Z" fill="#EFEEF8"/>
<path fill-rule="evenodd" clip-rule="evenodd" d="M214.072 60.3403H219.295C219.648 60.3403 219.937 60.6412 219.937 61.0098C219.937 61.3783 219.649 61.68 219.295 61.68H214.072C213.719 61.68 213.43 61.3783 213.43 61.0098C213.43 60.642 213.719 60.3403 214.072 60.3403Z" fill="#EFEEF8"/>
<path fill-rule="evenodd" clip-rule="evenodd" d="M206.047 65.0918H219.295C219.648 65.0918 219.937 65.3935 219.937 65.762C219.937 66.1298 219.649 66.4322 219.295 66.4322H206.047C205.695 66.4322 205.406 66.1305 205.406 65.7628V65.7612C205.406 65.3927 205.695 65.0918 206.047 65.0918Z" fill="#EFEEF8"/>
<path fill-rule="evenodd" clip-rule="evenodd" d="M207.36 60.3403H211.271C211.624 60.3403 211.913 60.6412 211.913 61.0098C211.913 61.3783 211.624 61.68 211.271 61.68H207.36C207.007 61.68 206.718 61.3783 206.718 61.0098C206.718 60.642 207.007 60.3403 207.36 60.3403Z" fill="#EFEEF8"/>
<path fill-rule="evenodd" clip-rule="evenodd" d="M209.112 55.5896H211.081C211.434 55.5896 211.723 55.8905 211.723 56.259C211.723 56.6276 211.434 56.9285 211.081 56.9285H209.112C208.758 56.9285 208.47 56.6276 208.47 56.259C208.47 55.8905 208.758 55.5896 209.112 55.5896Z" fill="#EFEEF8"/>
<path fill-rule="evenodd" clip-rule="evenodd" d="M210.484 50.8381H211.925C212.278 50.8381 212.568 51.1398 212.568 51.5083C212.568 51.8769 212.278 52.1778 211.925 52.1778H210.484C210.13 52.1778 209.842 51.8769 209.842 51.5083C209.842 51.1398 210.13 50.8381 210.484 50.8381Z" fill="#EFEEF8"/>
<path fill-rule="evenodd" clip-rule="evenodd" d="M156.193 102.245H159.288C159.855 102.245 160.319 102.729 160.319 103.321V106.552C160.319 107.143 159.855 107.628 159.288 107.628H156.193C155.626 107.628 155.162 107.143 155.162 106.552V103.321C155.162 102.729 155.626 102.245 156.193 102.245Z" fill="#80BBE7"/>
<path fill-rule="evenodd" clip-rule="evenodd" d="M166.764 102.245H169.858C170.425 102.245 170.888 102.729 170.888 103.321V106.552C170.888 107.143 170.424 107.628 169.858 107.628H166.764C166.196 107.628 165.734 107.143 165.734 106.552V103.321C165.734 102.729 166.197 102.245 166.764 102.245Z" fill="white"/>
<path fill-rule="evenodd" clip-rule="evenodd" d="M177.334 102.245H180.429C180.996 102.245 181.46 102.729 181.46 103.321V106.552C181.46 107.143 180.996 107.628 180.429 107.628H177.334C176.767 107.628 176.303 107.143 176.303 106.552V103.321C176.303 102.729 176.767 102.245 177.334 102.245Z" fill="#80BBE7"/>
<path fill-rule="evenodd" clip-rule="evenodd" d="M187.904 102.245H191C191.566 102.245 192.03 102.729 192.03 103.321V106.552C192.03 107.143 191.566 107.628 191 107.628H187.904C187.337 107.628 186.874 107.143 186.874 106.552V103.321C186.874 102.729 187.338 102.245 187.904 102.245Z" fill="#80BBE7"/>
<path fill-rule="evenodd" clip-rule="evenodd" d="M74.332 54.7499C73.9418 54.7499 73.6244 54.2772 73.6244 53.6952C73.6244 53.1131 73.9418 52.6412 74.332 52.6412H107.455C107.845 52.6412 108.161 53.1139 108.161 53.6952C108.161 54.2765 107.844 54.7499 107.455 54.7499H74.332ZM69.842 52.6412C70.2329 52.6412 70.5488 53.1139 70.5488 53.6952C70.5488 54.2765 70.2322 54.7499 69.842 54.7499H67.0831C66.6921 54.7499 66.3762 54.2772 66.3762 53.6952C66.3762 53.1131 66.6929 52.6412 67.0831 52.6412H69.842Z" fill="#80BBE7"/>
<path fill-rule="evenodd" clip-rule="evenodd" d="M113.922 94.4264C113.922 94.1802 114.112 93.9811 114.348 93.9811C114.584 93.9811 114.776 94.1809 114.776 94.4264V96.4324C114.776 96.6786 114.584 96.8785 114.348 96.8785C114.112 96.8785 113.922 96.6786 113.922 96.4324V94.4264ZM111.009 96.0555C110.842 95.8815 110.842 95.5988 111.009 95.4248C111.176 95.2501 111.447 95.2501 111.613 95.4248L112.972 96.8435C113.139 97.0175 113.139 97.3002 112.972 97.4742C112.806 97.6482 112.535 97.6482 112.367 97.4742L111.009 96.0555ZM110.053 99.3556C109.817 99.3556 109.627 99.1558 109.627 98.9103C109.627 98.6641 109.817 98.4643 110.053 98.4643H111.975C112.211 98.4643 112.402 98.6641 112.402 98.9103C112.402 99.1565 112.211 99.3556 111.975 99.3556H110.053ZM111.613 102.395C111.447 102.569 111.176 102.569 111.009 102.395C110.842 102.221 110.842 101.938 111.009 101.765L112.367 100.346C112.535 100.173 112.806 100.173 112.972 100.346C113.139 100.521 113.139 100.803 112.972 100.978L111.613 102.395ZM114.776 103.393C114.776 103.639 114.584 103.839 114.348 103.839C114.112 103.839 113.922 103.639 113.922 103.393V101.387C113.922 101.141 114.112 100.941 114.348 100.941C114.584 100.941 114.776 101.141 114.776 101.387V103.393ZM117.687 101.764C117.854 101.938 117.854 102.221 117.687 102.394C117.52 102.568 117.249 102.568 117.082 102.394L115.724 100.976C115.557 100.802 115.557 100.52 115.724 100.345C115.891 100.172 116.161 100.172 116.328 100.345L117.687 101.764ZM118.642 98.4643C118.878 98.4643 119.07 98.6641 119.07 98.9103C119.07 99.1565 118.878 99.3556 118.642 99.3556H116.721C116.485 99.3556 116.294 99.1558 116.294 98.9103C116.294 98.6641 116.485 98.4643 116.721 98.4643H118.642ZM117.082 95.4248C117.249 95.2501 117.52 95.2501 117.687 95.4248C117.854 95.5988 117.854 95.8815 117.687 96.0555L116.328 97.4734C116.161 97.6475 115.891 97.6475 115.724 97.4734C115.557 97.2994 115.557 97.0168 115.724 96.8427L117.082 95.4248Z" fill="#80BBE7"/>
<path fill-rule="evenodd" clip-rule="evenodd" d="M365.473 40.8899C365.473 40.6437 365.665 40.4438 365.901 40.4438C366.137 40.4438 366.328 40.6437 366.328 40.8899V42.8959C366.328 43.1421 366.137 43.3412 365.901 43.3412C365.665 43.3412 365.473 43.1421 365.473 42.8959V40.8899ZM362.562 42.5183C362.394 42.3443 362.394 42.0616 362.562 41.8876C362.728 41.7136 363 41.7136 363.166 41.8876L364.525 43.3063C364.691 43.4803 364.691 43.763 364.525 43.937C364.357 44.1117 364.087 44.1117 363.92 43.937L362.562 42.5183ZM361.606 45.8184C361.37 45.8184 361.179 45.6186 361.179 45.3731C361.179 45.1262 361.37 44.9271 361.606 44.9271H363.528C363.763 44.9271 363.955 45.1262 363.955 45.3731C363.955 45.6193 363.763 45.8184 363.528 45.8184H361.606ZM363.166 48.8571C362.999 49.0311 362.728 49.0311 362.562 48.8571C362.394 48.6831 362.394 48.4004 362.562 48.2272L363.92 46.8085C364.087 46.6345 364.357 46.6345 364.525 46.8085C364.691 46.9825 364.691 47.2652 364.525 47.44L363.166 48.8571ZM366.327 49.8556C366.327 50.1018 366.136 50.3009 365.9 50.3009C365.664 50.3009 365.473 50.101 365.473 49.8556V47.8495C365.473 47.6033 365.664 47.4042 365.9 47.4042C366.136 47.4042 366.327 47.6033 366.327 47.8495V49.8556ZM369.239 48.2272C369.406 48.4004 369.406 48.6839 369.239 48.8571C369.072 49.0311 368.8 49.0311 368.635 48.8571L367.276 47.4392C367.11 47.2652 367.11 46.9825 367.276 46.8077C367.442 46.6337 367.714 46.6337 367.881 46.8077L369.239 48.2272ZM370.195 44.9263C370.431 44.9263 370.622 45.1254 370.622 45.3724C370.622 45.6186 370.431 45.8176 370.195 45.8176H368.273C368.038 45.8176 367.846 45.6178 367.846 45.3724C367.846 45.1254 368.038 44.9263 368.273 44.9263H370.195ZM368.635 41.8868C368.8 41.7128 369.072 41.7128 369.239 41.8868C369.406 42.0608 369.406 42.3435 369.239 42.5175L367.881 43.9354C367.713 44.1102 367.442 44.1102 367.276 43.9354C367.11 43.7614 367.11 43.4795 367.276 43.3048L368.635 41.8868Z" fill="#80BBE7"/>
<path fill-rule="evenodd" clip-rule="evenodd" d="M398.152 244.583C398.152 244.337 398.343 244.137 398.578 244.137C398.814 244.137 399.006 244.337 399.006 244.583V246.589C399.006 246.835 398.814 247.035 398.578 247.035C398.343 247.035 398.152 246.835 398.152 246.589V244.583ZM395.239 246.212C395.073 246.038 395.073 245.755 395.239 245.581C395.407 245.408 395.678 245.408 395.844 245.581L397.203 247C397.37 247.174 397.37 247.456 397.203 247.63C397.037 247.804 396.765 247.804 396.599 247.63L395.239 246.212ZM394.285 249.513C394.05 249.513 393.857 249.312 393.857 249.066C393.857 248.821 394.05 248.62 394.285 248.62H396.206C396.442 248.62 396.633 248.821 396.633 249.066C396.633 249.312 396.442 249.513 396.206 249.513H394.285ZM395.844 252.552C395.678 252.726 395.407 252.726 395.239 252.552C395.073 252.377 395.073 252.095 395.239 251.921L396.599 250.503C396.766 250.329 397.037 250.329 397.203 250.503C397.37 250.677 397.37 250.96 397.203 251.134L395.844 252.552ZM399.006 253.549C399.006 253.796 398.814 253.995 398.578 253.995C398.343 253.995 398.152 253.796 398.152 253.549V251.543C398.152 251.297 398.343 251.097 398.578 251.097C398.814 251.097 399.006 251.297 399.006 251.543V253.549ZM401.918 251.921C402.084 252.095 402.084 252.377 401.918 252.552C401.751 252.726 401.48 252.726 401.313 252.552L399.955 251.134C399.788 250.96 399.788 250.677 399.955 250.503C400.121 250.329 400.393 250.329 400.559 250.503L401.918 251.921ZM402.874 248.62C403.109 248.62 403.301 248.821 403.301 249.066C403.301 249.312 403.109 249.513 402.874 249.513H400.952C400.716 249.513 400.525 249.312 400.525 249.066C400.525 248.821 400.716 248.62 400.952 248.62H402.874ZM401.313 245.581C401.48 245.408 401.751 245.408 401.918 245.581C402.084 245.755 402.084 246.038 401.918 246.212L400.559 247.63C400.393 247.804 400.121 247.804 399.955 247.63C399.788 247.456 399.788 247.173 399.955 247L401.313 245.581Z" fill="#80BBE7"/>
<path fill-rule="evenodd" clip-rule="evenodd" d="M31.2022 173.766C31.2022 173.52 31.3936 173.32 31.6295 173.32C31.8653 173.32 32.0568 173.52 32.0568 173.766V175.772C32.0568 176.017 31.8653 176.218 31.6295 176.218C31.3936 176.218 31.2022 176.017 31.2022 175.772V173.766ZM28.2903 175.395C28.1236 175.22 28.1236 174.937 28.2903 174.763C28.457 174.589 28.7278 174.589 28.8945 174.763L30.2529 176.181C30.4196 176.356 30.4196 176.64 30.2529 176.812C30.0862 176.987 29.8161 176.987 29.6487 176.812L28.2903 175.395ZM27.3345 178.694C27.0987 178.694 26.908 178.494 26.908 178.248C26.908 178.003 27.0994 177.802 27.3345 177.802H29.2563C29.4922 177.802 29.6836 178.003 29.6836 178.248C29.6836 178.494 29.4922 178.694 29.2563 178.694H27.3345ZM28.8945 181.734C28.7278 181.907 28.457 181.907 28.2903 181.734C28.1236 181.56 28.1236 181.277 28.2903 181.102L29.6494 179.685C29.8161 179.511 30.0869 179.511 30.2536 179.685C30.4203 179.858 30.4203 180.142 30.2536 180.315L28.8945 181.734ZM32.0568 182.731C32.0568 182.978 31.8653 183.177 31.6295 183.177C31.3936 183.177 31.2022 182.978 31.2022 182.731V180.725C31.2022 180.48 31.3936 180.279 31.6295 180.279C31.8653 180.279 32.0568 180.48 32.0568 180.725V182.731ZM34.9679 181.102C35.1346 181.277 35.1346 181.56 34.9679 181.734C34.8012 181.907 34.5304 181.907 34.3636 181.734L33.0046 180.315C32.8386 180.141 32.8386 179.858 33.0046 179.685C33.1713 179.511 33.4428 179.511 33.6088 179.685L34.9679 181.102ZM35.9236 177.803C36.1595 177.803 36.351 178.004 36.351 178.249C36.351 178.494 36.1588 178.695 35.9236 178.695H34.0019C33.766 178.695 33.5745 178.494 33.5745 178.249C33.5745 178.004 33.766 177.803 34.0019 177.803H35.9236ZM34.3636 174.763C34.5304 174.589 34.8012 174.589 34.9679 174.763C35.1346 174.937 35.1346 175.22 34.9679 175.395L33.6088 176.812C33.4421 176.987 33.1713 176.987 33.0046 176.812C32.8386 176.64 32.8386 176.356 33.0046 176.181L34.3636 174.763Z" fill="#80BBE7"/>
<path fill-rule="evenodd" clip-rule="evenodd" d="M452.68 215.792C452.68 215.546 452.871 215.346 453.106 215.346C453.342 215.346 453.534 215.546 453.534 215.792V217.798C453.534 218.043 453.342 218.244 453.106 218.244C452.871 218.244 452.68 218.043 452.68 217.798V215.792ZM449.768 217.42C449.601 217.246 449.601 216.962 449.768 216.789C449.934 216.615 450.206 216.615 450.372 216.789L451.731 218.207C451.897 218.381 451.897 218.663 451.731 218.838C451.564 219.012 451.293 219.012 451.126 218.838L449.768 217.42ZM448.812 220.72C448.576 220.72 448.384 220.52 448.384 220.274C448.384 220.028 448.576 219.828 448.812 219.828H450.733C450.969 219.828 451.16 220.028 451.16 220.274C451.16 220.52 450.969 220.72 450.733 220.72H448.812ZM450.372 223.76C450.206 223.933 449.934 223.933 449.768 223.76C449.601 223.586 449.601 223.303 449.768 223.129L451.126 221.711C451.293 221.536 451.564 221.536 451.731 221.711C451.897 221.884 451.897 222.168 451.731 222.341L450.372 223.76ZM453.533 224.757C453.533 225.004 453.342 225.203 453.106 225.203C452.87 225.203 452.679 225.004 452.679 224.757V222.752C452.679 222.506 452.87 222.305 453.106 222.305C453.342 222.305 453.533 222.506 453.533 222.752V224.757ZM456.445 223.129C456.612 223.303 456.612 223.586 456.445 223.76C456.278 223.933 456.007 223.933 455.841 223.76L454.482 222.341C454.315 222.167 454.315 221.884 454.482 221.711C454.649 221.536 454.92 221.536 455.086 221.711L456.445 223.129ZM457.401 219.828C457.636 219.828 457.828 220.028 457.828 220.274C457.828 220.52 457.636 220.72 457.401 220.72H455.48C455.244 220.72 455.052 220.52 455.052 220.274C455.052 220.028 455.244 219.828 455.48 219.828H457.401ZM455.841 216.789C456.007 216.615 456.278 216.615 456.445 216.789C456.612 216.962 456.612 217.245 456.445 217.42L455.086 218.838C454.92 219.012 454.648 219.012 454.482 218.838C454.315 218.663 454.315 218.382 454.482 218.207L455.841 216.789Z" fill="#80BBE7"/>
<path fill-rule="evenodd" clip-rule="evenodd" d="M424.459 41.8199H427.554C428.12 41.8199 428.584 42.3032 428.584 42.8952V46.1261C428.584 46.7173 428.12 47.2013 427.554 47.2013H424.459C423.891 47.2013 423.428 46.7165 423.428 46.1261V42.8952C423.428 42.3025 423.891 41.8199 424.459 41.8199Z" fill="#80BBE7"/>
<path fill-rule="evenodd" clip-rule="evenodd" d="M435.029 41.8199H438.124C438.689 41.8199 439.154 42.3032 439.154 42.8952V46.1261C439.154 46.7173 438.689 47.2013 438.124 47.2013H435.029C434.462 47.2013 433.998 46.7165 433.998 46.1261V42.8952C433.998 42.3025 434.462 41.8199 435.029 41.8199Z" fill="white"/>
<path fill-rule="evenodd" clip-rule="evenodd" d="M445.599 41.8199H448.694C449.261 41.8199 449.725 42.3032 449.725 42.8952V46.1261C449.725 46.7173 449.261 47.2013 448.694 47.2013H445.599C445.032 47.2013 444.569 46.7165 444.569 46.1261V42.8952C444.569 42.3025 445.032 41.8199 445.599 41.8199Z" fill="#80BBE7"/>
<path fill-rule="evenodd" clip-rule="evenodd" d="M456.17 41.8199H459.264C459.831 41.8199 460.295 42.3032 460.295 42.8952V46.1261C460.295 46.7173 459.831 47.2013 459.264 47.2013H456.17C455.603 47.2013 455.139 46.7165 455.139 46.1261V42.8952C455.139 42.3025 455.603 41.8199 456.17 41.8199Z" fill="#80BBE7"/>
<path fill-rule="evenodd" clip-rule="evenodd" d="M33.5112 74.3993C34.9053 72.9441 36.8307 72.0444 38.9578 72.0444C41.0849 72.0444 43.0103 72.9441 44.405 74.3993C45.7991 75.8544 46.661 77.865 46.661 80.0854C46.661 82.305 45.7983 84.3156 44.405 85.7707C43.011 87.2259 41.0849 88.1263 38.9578 88.1263C36.8307 88.1263 34.9045 87.2259 33.5112 85.7707C32.1165 84.3156 31.2546 82.305 31.2546 80.0854C31.2546 77.8643 32.1165 75.8537 33.5112 74.3993ZM35.1746 66.429C34.1074 66.7504 33.0949 67.2041 32.1558 67.7702C31.192 68.3522 30.3024 69.0528 29.5068 69.8545C29.351 70.0103 29.1202 70.0338 28.9426 69.9259L25.3633 67.7687L25.3443 67.7565C25.1383 67.6402 24.9054 67.6182 24.6921 67.6782C24.4715 67.7398 24.2743 67.888 24.1527 68.1083L24.1374 68.1342L21.6194 72.6873C21.4978 72.9069 21.4738 73.1599 21.5335 73.3902C21.5925 73.6204 21.7344 73.8263 21.9448 73.9532L21.9696 73.9692L25.5205 76.1082C25.7069 76.2199 25.7928 76.4448 25.7433 76.653C25.6122 77.2039 25.5132 77.7708 25.4448 78.3521C25.3786 78.9182 25.3451 79.4957 25.3451 80.0846C25.3451 80.672 25.3793 81.251 25.4448 81.8171C25.5125 82.3969 25.613 82.9645 25.744 83.5154C25.7979 83.7449 25.6894 83.9759 25.4943 84.0754L21.9448 86.2152V86.216C21.7344 86.3429 21.5925 86.5488 21.5335 86.7791C21.4738 87.0101 21.4986 87.2631 21.6194 87.4819L24.152 92.0609L24.1527 92.0601C24.2743 92.2797 24.4715 92.4287 24.6914 92.4902C24.9119 92.551 25.1536 92.5267 25.3633 92.3998L25.3902 92.3854L28.9448 90.2425C29.1312 90.1316 29.3597 90.1666 29.5075 90.314C30.3032 91.1149 31.192 91.8162 32.1558 92.3983C33.1014 92.9689 34.1205 93.4241 35.1943 93.7455C35.4032 93.8071 35.5386 94.0054 35.5386 94.2204V98.5312C35.5386 98.7842 35.6383 99.016 35.7992 99.1831C35.9601 99.3518 36.1814 99.4559 36.4245 99.4559H41.4911C41.7349 99.4559 41.9562 99.3518 42.1164 99.1831C42.2772 99.016 42.377 98.785 42.377 98.5312V94.2204C42.377 93.9872 42.532 93.7919 42.7409 93.7394C43.8088 93.418 44.8207 92.9644 45.7605 92.3975C46.725 91.8155 47.6131 91.1141 48.4095 90.3132C48.5718 90.1506 48.8179 90.1323 48.9977 90.257L52.553 92.399C52.7634 92.5259 53.0058 92.551 53.2264 92.4895C53.4462 92.4279 53.6435 92.2797 53.7651 92.0594L53.7803 92.0335L56.2991 87.4789V87.4781C56.4206 87.2585 56.4439 87.0063 56.385 86.776C56.326 86.5458 56.1848 86.3398 55.9751 86.2137L52.3987 84.058C52.2116 83.947 52.1264 83.7213 52.1752 83.5139H52.1745C52.3055 82.9622 52.406 82.3954 52.4737 81.8156C52.5399 81.2495 52.5741 80.6712 52.5741 80.0831C52.5741 79.4942 52.5399 78.9159 52.4737 78.3498C52.4067 77.7693 52.3062 77.2024 52.1745 76.6515C52.1206 76.422 52.2298 76.1918 52.4249 76.0915L55.9751 73.9517C56.184 73.8256 56.3253 73.6197 56.385 73.3887C56.4439 73.1592 56.4199 72.9069 56.2991 72.6881L56.2845 72.6599L53.7665 68.1068H53.7651C53.6435 67.8864 53.4462 67.7383 53.2264 67.6767C53.0058 67.6152 52.7634 67.6402 52.553 67.7664L52.5545 67.7671L48.9744 69.9244C48.7837 70.0399 48.5471 70.0004 48.3993 69.8423C47.6066 69.046 46.7199 68.3477 45.7605 67.7687C44.8156 67.1988 43.7965 66.7428 42.722 66.4214C42.5138 66.3599 42.3784 66.1623 42.3777 65.9465V61.6365C42.3777 61.3827 42.278 61.1517 42.1171 60.9846C41.9569 60.8166 41.7356 60.7125 41.4918 60.7125H36.4252C36.1828 60.7125 35.9608 60.8166 35.7999 60.9846C35.639 61.1517 35.5393 61.3827 35.5393 61.6365V65.9465C35.5386 66.1813 35.3828 66.3773 35.1746 66.429Z" fill="#D3EBFA"/>
<path fill-rule="evenodd" clip-rule="evenodd" d="M273.081 147.32C268.582 151.597 267.88 152.106 267.88 152.106C267.88 152.106 264.909 157.994 266.052 157.989C267.195 157.985 268.106 156.906 268.106 156.906C268.106 156.906 269.22 158.391 270.221 157.771C271.221 157.153 271.749 156.921 271.749 156.921C271.749 156.921 272.897 158.11 273.844 157.336C274.792 156.561 279.314 151.466 279.314 151.466L285.29 147.376L282.908 145.135L273.081 147.32Z" fill="#E98DAF"/>
<path fill-rule="evenodd" clip-rule="evenodd" d="M345.964 273.024C345.873 273.683 345.137 276.996 345.149 277.08C345.279 278.055 345.508 280.011 345.508 280.011C345.508 280.011 343.679 282.207 341.98 282.527C340.283 282.846 332.577 283.205 332.48 282.766C332.382 282.327 334.405 278.853 334.405 278.853C334.405 278.853 336.593 276.937 336.887 272.506C337.181 268.074 345.964 273.024 345.964 273.024Z" fill="#F3C6D4"/>
<path fill-rule="evenodd" clip-rule="evenodd" d="M335.956 279.752L336.901 279.399C336.901 279.399 339.039 280.574 341.73 279.616C344.42 278.656 345.149 277.08 345.149 277.08C345.149 277.08 345.28 276.76 345.57 276.76C345.858 276.76 345.952 276.76 346.204 276.76C346.456 276.76 347.157 276.874 347.447 277.593C347.736 278.313 348.343 282.702 347.516 285.134C346.69 287.565 345.532 287.245 345.532 287.245C345.532 287.245 340.935 285.83 337.834 286.971C334.733 288.114 331.893 289.301 331.893 289.301C331.893 289.301 332.042 282.858 335.956 279.752Z" fill="#0E0226"/>
<path fill-rule="evenodd" clip-rule="evenodd" d="M315.023 288.643L314.681 287.595C314.681 287.595 314.681 286.797 314.681 286.322C314.681 285.846 314.872 284.412 316.198 284.412C317.524 284.412 320.103 284.412 321.28 284.412C322.457 284.412 328.828 281.032 333.724 276.874C333.724 276.874 334.07 276.451 334.583 276.76C335.096 277.068 336.658 278.371 336.816 278.507C336.974 278.645 336.993 279.204 336.9 279.399C336.805 279.593 332.275 288.959 332.275 288.959C332.275 288.959 318.936 290.786 315.023 288.643Z" fill="#1A0F44"/>
<path fill-rule="evenodd" clip-rule="evenodd" d="M314.681 287.595C314.681 287.595 314.381 287.854 314.381 288.143C314.381 288.433 314.381 288.935 314.381 289.164C314.381 289.393 314.971 290.463 316.286 290.463C317.6 290.463 328.549 290.463 330.389 290.463C332.227 290.463 334.168 289.976 335.424 289.318C336.68 288.662 339.056 287.93 339.056 287.93C339.056 287.93 339.392 287.811 339.392 288.415C339.392 289.018 339.392 289.291 339.392 289.584C339.392 289.877 339.221 290.672 340.371 290.672C341.522 290.672 346.709 290.672 347.232 290.672C347.755 290.672 348.353 290.361 348.353 289.246C348.353 288.131 348.353 287.072 348.353 286.377C348.353 285.684 347.949 285.134 347.516 285.134C347.082 285.134 344.453 285.134 342.241 285.134C340.029 285.134 338.265 285.7 335.515 287.053C332.765 288.406 330.254 288.808 327.383 288.808C324.514 288.808 320.882 288.808 319.492 288.808C318.101 288.807 315.62 288.478 314.681 287.595Z" fill="#0E0226"/>
<path fill-rule="evenodd" clip-rule="evenodd" d="M375.877 273.024C375.785 273.683 375.049 276.996 375.061 277.08C375.192 278.055 375.42 280.011 375.42 280.011C375.42 280.011 373.591 282.207 371.893 282.527C370.195 282.846 362.49 283.205 362.391 282.766C362.293 282.327 364.318 278.853 364.318 278.853C364.318 278.853 366.506 276.937 366.799 272.506C367.093 268.074 375.877 273.024 375.877 273.024Z" fill="#F3C6D4"/>
<path fill-rule="evenodd" clip-rule="evenodd" d="M365.869 279.752L366.812 279.399C366.812 279.399 368.951 280.574 371.642 279.616C374.333 278.656 375.061 277.08 375.061 277.08C375.061 277.08 375.192 276.76 375.481 276.76C375.77 276.76 375.864 276.76 376.116 276.76C376.369 276.76 377.069 276.874 377.359 277.593C377.649 278.313 378.255 282.702 377.428 285.134C376.602 287.565 375.444 287.245 375.444 287.245C375.444 287.245 370.848 285.83 367.747 286.971C364.645 288.114 361.805 289.301 361.805 289.301C361.805 289.301 361.955 282.858 365.869 279.752Z" fill="#0E0226"/>
<path fill-rule="evenodd" clip-rule="evenodd" d="M344.934 288.643L344.593 287.595C344.593 287.595 344.593 286.797 344.593 286.322C344.593 285.846 344.784 284.412 346.11 284.412C347.437 284.412 350.015 284.412 351.193 284.412C352.37 284.412 358.741 281.032 363.636 276.874C363.636 276.874 363.982 276.451 364.495 276.76C365.009 277.068 366.57 278.371 366.729 278.507C366.887 278.645 366.905 279.204 366.812 279.399C366.719 279.593 362.188 288.959 362.188 288.959C362.188 288.959 348.848 290.786 344.934 288.643Z" fill="#1A0F44"/>
<path fill-rule="evenodd" clip-rule="evenodd" d="M344.593 287.595C344.593 287.595 344.294 287.854 344.294 288.143C344.294 288.433 344.294 288.935 344.294 289.164C344.294 289.393 344.883 290.463 346.198 290.463C347.513 290.463 358.462 290.463 360.301 290.463C362.139 290.463 364.08 289.976 365.337 289.318C366.593 288.662 368.968 287.93 368.968 287.93C368.968 287.93 369.305 287.811 369.305 288.415C369.305 289.018 369.305 289.291 369.305 289.584C369.305 289.877 369.134 290.672 370.284 290.672C371.435 290.672 376.621 290.672 377.145 290.672C377.667 290.672 378.265 290.361 378.265 289.246C378.265 288.131 378.265 287.072 378.265 286.377C378.265 285.684 377.862 285.134 377.428 285.134C376.995 285.134 374.365 285.134 372.152 285.134C369.941 285.134 368.178 285.7 365.427 287.053C362.677 288.406 360.165 288.808 357.296 288.808C354.427 288.808 350.794 288.808 349.404 288.808C348.014 288.807 345.533 288.478 344.593 287.595Z" fill="#0E0226"/>
<path fill-rule="evenodd" clip-rule="evenodd" d="M292.181 72.9813C292.181 72.9813 289.002 78.5496 290.997 91.2106C292.991 103.871 306.758 153.145 297.408 178.858C297.408 178.858 296.831 180.62 298.438 181.592C300.045 182.563 322.749 186.676 339.349 179.295C355.948 171.912 326.794 76.7358 292.181 72.9813Z" fill="#1B7FC2"/>
<path fill-rule="evenodd" clip-rule="evenodd" d="M336.32 275.324C336.32 275.324 340.038 277.682 346.328 276.257C346.328 276.257 347.93 275.638 348.287 273.904C348.643 272.168 360.396 168.901 361.819 150.568C363.244 132.237 352.512 121.042 336.074 109.274C319.637 97.5069 333.394 107.443 332.119 106.688C328.044 122.439 323.258 132.57 323.258 132.57L323.221 140.334C323.219 140.87 323.474 141.365 323.596 141.872C328.606 162.656 329.197 179.24 329.949 200.147C329.98 200.757 329.655 184.453 330.018 201.973C330.38 219.494 334.183 269.873 334.42 271.856C334.659 273.837 335.488 275.138 336.32 275.324Z" fill="#170839"/>
<path fill-rule="evenodd" clip-rule="evenodd" d="M295.211 92.7181L299.962 100.767C299.962 100.767 320.095 136.867 322.885 142.009C325.675 147.151 337.607 146.42 337.607 146.42L312.12 69.0931C312.12 69.0931 303.218 67.622 299.765 67.6987C296.312 67.7754 294.095 73.2921 294.095 73.2921L295.211 92.7181Z" fill="#170839"/>
<path fill-rule="evenodd" clip-rule="evenodd" d="M292.181 72.9813C292.181 72.9813 289.002 78.5496 290.997 91.2106C292.539 100.995 301.109 132.65 300.607 158.395L300.611 158.397C304.994 111.535 296.916 81.8877 294.096 73.2914C293.46 73.1614 292.822 73.0505 292.181 72.9813Z" fill="#428FCD"/>
<path fill-rule="evenodd" clip-rule="evenodd" d="M365.953 275.394C365.953 275.394 369.407 277.41 375.696 275.986C375.696 275.986 377.298 275.367 377.654 273.633C378.009 271.897 382.714 237.274 384.137 218.942C385.561 200.61 397.497 131.832 365.987 109.273C334.477 86.7151 327.685 125.636 327.685 125.636C327.685 125.636 357.082 138.553 357.792 172.988C358.505 207.422 363.815 269.944 364.053 271.925C364.291 273.907 365.121 275.209 365.953 275.394Z" fill="#221758"/>
<path fill-rule="evenodd" clip-rule="evenodd" d="M368.541 276.24C370.189 276.555 372.599 276.688 375.696 275.987C375.696 275.987 377.298 275.368 377.654 273.634C378.009 271.9 382.714 237.275 384.137 218.943C385.217 205.034 392.343 162.089 381.959 132.32C381.817 132.424 365.596 144.289 356.261 160.934C357.153 164.62 357.703 168.631 357.793 172.988C357.913 178.799 358.166 185.411 358.5 192.395C362.505 187.91 367.827 181.872 370.528 178.488C375.197 172.64 380.449 174.711 382.316 177.513C384.183 180.316 377.063 250.853 376.131 259.867C375.472 266.212 371.084 272.859 368.541 276.24Z" fill="#22134F"/>
<path fill-rule="evenodd" clip-rule="evenodd" d="M287.186 53.3958C287.234 53.3897 287.373 53.9983 287.952 55.0173L285.091 58.1601C285.091 58.1601 285.819 59.1259 286.869 60.2239C285.569 60.6928 284.451 61.5058 283.741 62.5917C283.741 62.5917 280.671 72.4662 281.562 73.4236C281.531 73.4639 281.499 73.5034 281.465 73.5444C275.936 80.3597 272.542 78.1029 271.851 77.4912C271.159 76.8795 267.763 73.6288 267.396 73.5528C267.03 73.4768 265.718 75.0946 264.833 74.3119C263.947 73.5292 259.653 68.0468 254.978 60.3432C250.301 52.6382 252.941 43.7637 252.941 43.7637C264.34 34.1034 273.81 52.2947 274.957 49.2423C276.103 46.1899 279.373 45.9065 281.187 49.2947C281.44 49.7689 287.119 52.8897 287.186 53.3958Z" fill="#F3C6D4"/>
<path fill-rule="evenodd" clip-rule="evenodd" d="M287.186 53.3958C287.234 53.3897 287.373 53.9984 287.952 55.0173L285.091 58.1602C285.091 58.1602 285.82 59.1252 286.869 60.2239C286.549 60.3394 286.237 60.4762 285.943 60.6328C285.892 60.0621 285.801 59.6389 285.654 59.4626C284.878 58.5272 283.329 56.5196 283.329 56.5196C283.329 56.5196 281.161 57.5735 280.753 55.0758C280.345 52.5789 278.506 50.142 276.58 50.5379C274.655 50.9338 275.761 53.55 275.761 53.55L280.316 60.4056L279.557 68.5681C279.557 68.5681 272.438 69.9085 273.899 66.7429C275.36 63.5773 271.621 61.1373 267.303 56.0204C262.984 50.9034 260.591 51.452 259.482 52.2438C258.791 52.7377 255.579 54.9862 253.26 56.6077C252.085 53.0667 252.083 49.6162 252.332 47.1839C254.939 45.0973 258.636 42.8473 262.088 41.1611C269.072 42.7645 274.14 51.4232 274.959 49.2423C276.106 46.1892 279.376 45.9065 281.189 49.2948C281.44 49.7689 287.119 52.8897 287.186 53.3958Z" fill="#E98DAF"/>
<path fill-rule="evenodd" clip-rule="evenodd" d="M288.721 53.3851C288.721 53.3851 290.94 53.5386 292.63 53.6154C294.32 53.6921 295.71 63.9868 295.71 63.9868L292.829 68.5582L292.157 69.6235L289.977 73.0847L289.771 72.0171C289.771 72.0171 287.488 70.1714 286.051 72.2489C284.614 74.3256 281.016 68.7611 281.016 68.7611C281.016 68.7611 280.362 56.5576 288.721 53.3851Z" fill="#F3C6D4"/>
<path fill-rule="evenodd" clip-rule="evenodd" d="M288.72 53.3851C288.72 53.3851 290.94 53.5386 292.63 53.6154C294.32 53.6921 295.709 63.9876 295.709 63.9876L292.829 68.5589L292.157 69.6243L289.977 73.0855L289.771 72.0171C289.771 72.0171 287.488 70.1714 286.051 72.2489C285.694 72.7656 285.202 72.8097 284.666 72.5832L285.654 68.296C285.654 68.296 286.43 60.3987 285.654 59.4633C285.181 58.8934 284.422 57.9269 283.9 57.2582C285.022 55.6115 286.573 54.2005 288.72 53.3851Z" fill="#E98DAF"/>
<path fill-rule="evenodd" clip-rule="evenodd" d="M270.994 53.3592C270.988 53.3615 265.785 56.0127 261.666 47.8555C261.666 47.8555 256.333 53.7559 252.856 55.2323C252.788 55.2612 252.714 55.2855 252.64 55.3083L252.856 55.2323C252.856 55.2323 251.372 55.2878 249.742 54.537C247.67 53.7658 245.035 52.1389 243.393 48.7119C240.359 42.3769 243.977 39.149 247.244 39.5752C247.244 39.5752 252.145 28.428 254.888 25.1385C257.632 21.849 264.05 23.2502 264.05 23.2502C264.05 23.2502 263.116 20.387 264.225 19.7176C265.333 19.0474 271.342 20.2875 273.677 27.5556C273.677 27.5556 278.346 26.7601 280.8 29.2418C283.248 31.7174 288.691 53.2726 288.72 53.3858C288.837 54.7612 288.316 56.1464 286.989 56.1958C284.953 56.2004 282.788 55.5591 281.248 53.3965C281.248 53.3965 279.521 46.9642 276.485 47.9368C276.485 47.9368 273.904 47.9619 275.112 52.4892C275.112 52.4892 276.157 54.4519 277.589 55.7589C279.026 57.0651 282.945 59.787 285.673 66.4373C288.4 73.0885 282.638 77.2928 281.055 79.2419C279.474 81.191 276.817 82.7107 274.909 81.023C272.999 79.3361 268.694 75.5276 268.04 74.9517C267.388 74.3742 267.236 73.7412 267.394 73.5543C267.394 73.5543 270.172 70.4776 272.282 68.3629C274.389 66.2466 276.037 64.8758 276.039 62.4579C276.039 60.0423 275.984 58.1335 273.858 55.6594C272.988 54.6427 271.972 53.8912 270.994 53.3592Z" fill="#170839"/>
<path fill-rule="evenodd" clip-rule="evenodd" d="M261.666 47.8555C261.666 47.8555 256.333 53.7559 252.856 55.2323C252.788 55.2612 252.714 55.2855 252.64 55.3083L252.856 55.2323C252.856 55.2323 251.372 55.2878 249.742 54.537C247.67 53.7658 245.035 52.1389 243.393 48.7119C240.359 42.3769 243.977 39.149 247.244 39.5752C247.244 39.5752 252.145 28.428 254.888 25.1385C257.632 21.849 264.05 23.2502 264.05 23.2502C264.05 23.2502 263.116 20.387 264.225 19.7176C265.333 19.0474 271.342 20.2875 273.677 27.5556C273.678 27.5549 273.696 34.8162 261.666 47.8555Z" fill="#201049"/>
<path fill-rule="evenodd" clip-rule="evenodd" d="M242.749 47.1283C240.987 41.8426 244.261 39.1846 247.244 39.5744C247.244 39.5744 266.152 44.2226 268.721 20.7981C269.01 20.9789 269.3 21.1803 269.591 21.4067C269.841 31.0981 267.072 49.0302 242.749 47.1283Z" fill="#22185A"/>
<path fill-rule="evenodd" clip-rule="evenodd" d="M263.83 64.1547C264.338 63.7064 265.104 63.7733 265.534 64.3029L266.551 65.559C266.979 66.0886 266.917 66.888 266.409 67.3363C265.901 67.7846 265.135 67.717 264.706 67.1881L263.688 65.9313C263.26 65.4024 263.323 64.6031 263.83 64.1547Z" fill="#170839"/>
<path fill-rule="evenodd" clip-rule="evenodd" d="M267.51 67.4228C268.263 66.7572 269.39 66.856 270.028 67.6424C270.665 68.4289 270.57 69.6052 269.817 70.2701C269.063 70.9357 267.937 70.8369 267.3 70.0505C266.663 69.2648 266.757 68.0877 267.51 67.4228Z" fill="#ED7792"/>
<path fill-rule="evenodd" clip-rule="evenodd" d="M264.071 61.6851C264.269 61.6388 264.393 61.4344 264.349 61.2292C264.305 61.0233 264.11 60.8941 263.913 60.9397C263.905 60.9412 261.491 61.4404 260.718 63.6707C260.648 63.869 260.747 64.0886 260.937 64.1608C261.127 64.233 261.338 64.1296 261.407 63.9321C262.039 62.1068 264.065 61.6874 264.071 61.6851Z" fill="#170839"/>
<path fill-rule="evenodd" clip-rule="evenodd" d="M300.17 143.898C300.17 143.898 284.767 149.897 283.155 150.708C281.543 151.52 279.776 144.82 279.626 143.729C279.475 142.639 280.579 141.36 282.668 140.111C284.758 138.862 296.367 131.839 296.367 131.839L300.17 143.898Z" fill="white"/>
<path fill-rule="evenodd" clip-rule="evenodd" d="M302.587 143.409C296.953 145.617 287.187 149.467 285.798 150.167C283.83 151.158 281.672 142.978 281.488 141.645C281.305 140.314 282.653 138.752 285.204 137.227C286.646 136.365 291.805 133.249 296.017 130.702C296.017 130.702 299.778 127.974 300.341 121.958C300.906 115.942 302.889 88.342 302.889 88.342L318.323 95.5068L321.06 99.7195C321.06 99.7195 315.274 125.851 313.004 131.925C310.735 138 307.582 141.445 302.587 143.409Z" fill="#170839"/>
<path fill-rule="evenodd" clip-rule="evenodd" d="M381.319 107.012C381.319 107.012 392.287 126.821 394.359 156.488C394.359 156.488 394.538 157.492 393.439 157.98C392.341 158.468 383.155 158.008 372.36 171.839C361.566 185.672 344.315 198.099 334.423 196.478C334.423 196.478 333.353 196.471 333.221 194.664C333.089 192.856 331.018 111.695 299.242 82.3649C299.242 82.3649 296.158 79.7221 296.271 75.226C296.383 70.7314 346.053 52.3357 381.319 107.012Z" fill="#0065AA"/>
<path fill-rule="evenodd" clip-rule="evenodd" d="M372.369 127.289L370.068 135.331C370.068 135.331 365.167 135.58 352.455 108.959C352.455 108.959 347.397 98.7029 332.795 95.5692L339.298 85.9075C339.298 85.9075 367.056 91.0252 366.912 93.4978C366.767 95.9704 372.369 127.289 372.369 127.289Z" fill="#1B7FC2"/>
<path fill-rule="evenodd" clip-rule="evenodd" d="M307.441 106.113L316.602 99.6914C317.523 99.0455 318.892 99.2279 319.644 100.095L335.656 118.564C336.408 119.431 336.269 120.669 335.349 121.315L326.187 127.737C325.266 128.383 323.896 128.2 323.144 127.333L307.133 108.865C306.381 107.997 306.519 106.759 307.441 106.113Z" fill="#170839"/>
<path fill-rule="evenodd" clip-rule="evenodd" d="M306.111 107.046L315.273 100.624C316.193 99.978 317.563 100.16 318.315 101.028L334.326 119.497C335.078 120.364 334.94 121.602 334.019 122.248L324.857 128.67C323.936 129.316 322.567 129.133 321.814 128.266L305.803 109.797C305.051 108.929 305.189 107.691 306.111 107.046Z" fill="#221758"/>
<path fill-rule="evenodd" clip-rule="evenodd" d="M307.415 109.305L308.89 108.272C309.037 108.168 309.258 108.197 309.38 108.337L313.343 112.908C313.464 113.048 313.443 113.247 313.295 113.351L311.82 114.384C311.671 114.488 311.451 114.46 311.33 114.32L307.365 109.75C307.245 109.609 307.266 109.409 307.415 109.305Z" fill="#674F9B"/>
<path fill-rule="evenodd" clip-rule="evenodd" d="M308.657 109.308C309.045 109.036 309.606 109.118 309.911 109.491C310.216 109.865 310.149 110.388 309.761 110.66C309.374 110.931 308.813 110.849 308.508 110.476C308.202 110.102 308.269 109.579 308.657 109.308Z" fill="#D3EBFA"/>
<path fill-rule="evenodd" clip-rule="evenodd" d="M310.172 111.08C310.56 110.808 311.122 110.89 311.427 111.263C311.731 111.637 311.664 112.16 311.276 112.431C310.89 112.703 310.328 112.621 310.023 112.247C309.718 111.874 309.784 111.352 310.172 111.08Z" fill="#D3EBFA"/>
<path fill-rule="evenodd" clip-rule="evenodd" d="M310.411 111.373C310.632 111.219 310.95 111.265 311.122 111.477C311.295 111.689 311.257 111.985 311.037 112.14C310.818 112.294 310.499 112.247 310.327 112.036C310.154 111.824 310.192 111.526 310.411 111.373Z" fill="white"/>
<path fill-rule="evenodd" clip-rule="evenodd" d="M308.877 109.577C309.11 109.413 309.448 109.463 309.632 109.687C309.815 109.912 309.774 110.227 309.541 110.391C309.308 110.554 308.971 110.504 308.787 110.28C308.604 110.055 308.643 109.74 308.877 109.577Z" fill="white"/>
<path fill-rule="evenodd" clip-rule="evenodd" d="M311.619 112.77C311.852 112.606 312.19 112.656 312.373 112.88C312.557 113.105 312.517 113.419 312.283 113.583C312.05 113.746 311.711 113.696 311.529 113.472C311.345 113.248 311.387 112.933 311.619 112.77Z" fill="#D3EBFA"/>
<path fill-rule="evenodd" clip-rule="evenodd" d="M297.203 46.5538C297.018 46.6663 293.213 47.6959 292.571 47.9961C291.93 48.2962 291.728 49.7103 291.587 52.1214C291.447 54.5324 289.569 72.4068 289.48 73.4251C289.391 74.4433 289.74 75.0557 290.585 75.3566C291.429 75.6591 301.173 79.3194 301.173 79.3194L297.203 46.5538Z" fill="#170839"/>
<path fill-rule="evenodd" clip-rule="evenodd" d="M349.938 96.9104C349.938 96.9104 335.215 107.094 333.521 108.044C331.827 108.993 336.289 114.828 337.102 115.653C337.915 116.479 339.678 116.286 342.037 115.178C344.396 114.072 357.575 107.976 357.575 107.976L349.938 96.9104Z" fill="white"/>
<path fill-rule="evenodd" clip-rule="evenodd" d="M356.51 90.9514C356.51 90.9514 337.257 104.271 335.041 105.513C332.826 106.754 338.661 114.385 339.724 115.465C340.788 116.543 343.092 116.291 346.177 114.843C349.263 113.396 366.5 105.424 366.5 105.424L356.51 90.9514Z" fill="#221758"/>
<path fill-rule="evenodd" clip-rule="evenodd" d="M315.661 92.8071C315.661 92.8071 324.747 95.092 335.526 95.7782C346.304 96.4643 368.682 98.0129 370.068 135.33C370.068 135.33 370.237 135.527 370.813 135.315C371.39 135.104 386.974 120.676 389.163 113.742C391.352 106.808 378.694 81.3072 371.754 78.0109C364.812 74.7154 351.892 72.0315 337.776 57.2338C323.661 42.4362 304.241 44.2089 304.241 44.2089L300.016 60.5393C300.016 60.5393 301.944 88.5845 315.661 92.8071Z" fill="#428FCD"/>
<path fill-rule="evenodd" clip-rule="evenodd" d="M366.14 114.747C368.302 119.983 369.748 126.698 370.068 135.331C370.068 135.331 370.237 135.528 370.813 135.316C371.39 135.104 386.974 120.677 389.163 113.743C390.039 110.967 388.535 105.214 385.971 99.1034C385.961 103.574 385.398 108.526 383.258 110.992C380.255 114.453 371.5 114.852 366.14 114.747ZM372.907 78.7245C372.508 78.4296 372.123 78.1872 371.754 78.0117C364.812 74.7162 351.892 72.0323 337.776 57.2346C337.484 56.9284 337.188 56.6313 336.892 56.3387C336.997 56.5857 346.006 77.8871 323.494 82.6104C323.494 82.6104 322.036 82.9151 322.444 84.1948C322.852 85.4729 363.83 72.6904 372.907 78.7245Z" fill="#3388C9"/>
<path fill-rule="evenodd" clip-rule="evenodd" d="M305.05 44.1648C304.526 44.1838 304.241 44.2096 304.241 44.2096L301.66 54.1837L305.406 81.4523L308.694 82.8649C308.694 82.8649 308.149 79.0458 308.44 78.7715C308.732 78.4972 315.617 74.9645 316.493 74.4767C317.369 73.9896 317.194 73.1067 317.194 73.1067C316.519 71.6454 307.122 49.1313 305.05 44.1648Z" fill="#1B7FC2"/>
<path fill-rule="evenodd" clip-rule="evenodd" d="M297.327 43.3974C297.327 43.3974 296.443 43.7758 296.173 44.8442C295.902 45.9125 296.291 68.2443 296.384 70.7314C296.475 73.2192 306.076 85.9303 308.46 88.874C310.844 91.8177 314.368 92.5381 315.661 92.8071C315.661 92.8071 315.773 92.7987 315.788 92.6832C315.802 92.5677 312.046 90.9484 310.904 89.1384C309.762 87.3292 307.778 79.5702 307.547 78.4387C307.547 78.4387 314.146 75.1204 315.284 74.4471C316.423 73.7754 316.604 73.2283 316.173 72.457C315.743 71.6842 305.016 45.1899 304.241 44.2097C303.466 43.2302 300.657 42.9893 297.327 43.3974Z" fill="#D3EBFA"/>
<path fill-rule="evenodd" clip-rule="evenodd" d="M266.34 23.6074C266.488 23.7168 266.524 23.9326 266.42 24.0876C266.314 24.2434 266.108 24.2807 265.959 24.1712C265.949 24.1636 262.336 21.4524 256.522 22.5831C256.343 22.6181 256.171 22.4934 256.138 22.3065C256.105 22.1196 256.224 21.9403 256.403 21.9061C262.493 20.7222 266.328 23.5998 266.34 23.6074Z" fill="#201049"/>
<path fill-rule="evenodd" clip-rule="evenodd" d="M252.484 53.9208C252.648 53.8372 252.846 53.9063 252.926 54.0773C253.006 54.2475 252.94 54.4542 252.776 54.5385C252.758 54.5477 246.579 57.8508 242.691 50.3061C242.605 50.1381 242.665 49.9299 242.826 49.8388C242.987 49.7491 243.187 49.8122 243.274 49.9801C246.855 56.9314 252.468 53.9291 252.484 53.9208Z" fill="#201049"/>
<path fill-rule="evenodd" clip-rule="evenodd" d="M333.17 108.54C332.197 108.178 330.17 107.026 329.634 106.747C329.029 106.432 323.977 105.251 323.977 105.251L326.692 108.4C326.692 108.4 318.394 112.181 316.584 113.676C314.773 115.172 315.905 115.88 317.489 115.88C319.073 115.88 319.073 115.88 319.073 115.88C319.073 115.88 318.771 118.715 320.809 118.794C322.844 118.873 322.995 118.794 322.995 118.794C322.995 118.794 323.749 121.155 325.409 120.92C327.067 120.684 329.936 119.975 333.253 118.007C335.936 116.415 336.647 115.596 336.821 115.341C335.729 114.053 332.829 110.087 333.17 108.54Z" fill="#F2BBC9"/>
<path fill-rule="evenodd" clip-rule="evenodd" d="M333.17 108.54C332.894 108.438 332.537 108.273 332.152 108.083C331.979 111.203 334.295 113.683 330.608 115.74C326.547 118.006 323.886 117.421 319.264 112.816C319.049 112.663 318.842 112.52 318.636 112.38C317.736 112.882 316.994 113.337 316.585 113.675C314.775 115.171 315.907 115.88 317.491 115.88C319.075 115.88 319.075 115.88 319.075 115.88C319.075 115.88 318.772 118.714 320.81 118.793C322.845 118.872 322.996 118.793 322.996 118.793C322.996 118.793 323.751 121.155 325.411 120.919C327.069 120.683 329.937 119.975 333.254 118.006C335.938 116.415 336.649 115.595 336.822 115.34C335.729 114.053 332.829 110.087 333.17 108.54Z" fill="#E98DAF"/>
<path fill-rule="evenodd" clip-rule="evenodd" d="M212.566 119.526H107.735C102.512 119.526 98.2385 123.257 98.2385 127.814V290.468H222.063V127.814C222.062 123.256 217.789 119.526 212.566 119.526Z" fill="#3889C9"/>
<path fill-rule="evenodd" clip-rule="evenodd" d="M229.778 119.526H141.955C137.579 119.526 133.999 122.651 133.999 126.469V290.468H237.735V126.469C237.735 122.651 234.155 119.526 229.778 119.526Z" fill="#80BBE7"/>
<path fill-rule="evenodd" clip-rule="evenodd" d="M229.778 123.804H141.955C140.996 123.804 140.211 124.488 140.211 125.325V290.468H231.522V125.326C231.522 124.488 230.737 123.804 229.778 123.804Z" fill="white"/>
<path fill-rule="evenodd" clip-rule="evenodd" d="M173.894 123.803H197.839C198.956 123.803 199.87 124.6 199.87 125.576V125.577C199.87 126.552 198.956 127.35 197.839 127.35H173.894C172.777 127.35 171.864 126.553 171.864 125.577V125.576C171.864 124.6 172.777 123.803 173.894 123.803Z" fill="#221758"/>
<path fill-rule="evenodd" clip-rule="evenodd" d="M141.955 123.804H229.778C230.737 123.804 231.522 124.488 231.522 125.326V125.577H140.211V125.326C140.211 124.488 140.996 123.804 141.955 123.804Z" fill="#221758"/>
<path fill-rule="evenodd" clip-rule="evenodd" d="M173.894 250.065H197.839C198.956 250.065 199.87 250.863 199.87 251.838V251.839C199.87 252.814 198.956 253.612 197.839 253.612H173.894C172.777 253.612 171.864 252.814 171.864 251.839V251.838C171.864 250.863 172.777 250.065 173.894 250.065Z" fill="#221758"/>
<path fill-rule="evenodd" clip-rule="evenodd" d="M141.955 250.065H229.778C230.737 250.065 231.522 250.75 231.522 251.586V251.838H140.211V251.586C140.211 250.75 140.996 250.065 141.955 250.065Z" fill="#221758"/>
<path d="M161.026 150.469H140.211V184.611H161.026V150.469Z" fill="#F9B532"/>
<path d="M161.026 155.522H140.211V184.611H161.026V155.522Z" fill="#F59F3A"/>
<path d="M161.026 158.6H140.211V184.61H161.026V158.6Z" fill="white"/>
<path d="M161.026 158.6H140.211V184.61H161.026V158.6Z" fill="#FFF2D1"/>
<path fill-rule="evenodd" clip-rule="evenodd" d="M161.026 156.407H145.622C143.347 156.407 141.022 158.213 140.211 160.519V184.611H161.026V156.407Z" fill="#FCC749"/>
<path d="M161.027 150.469H146.789V180.651H161.027V150.469Z" fill="#F18D3D"/>
<path d="M161.027 155.522H146.789V180.651H161.027V155.522Z" fill="#EE7E40"/>
<path d="M161.027 158.6H146.789V180.651H161.027V158.6Z" fill="#F2BCC2"/>
<path d="M161.027 158.6H146.789V180.651H161.027V158.6Z" fill="#F2B2A5"/>
<path d="M161.027 156.407H146.789V180.651H161.027V156.407Z" fill="#F39A4C"/>
<path fill-rule="evenodd" clip-rule="evenodd" d="M188.452 150.469H156.638C154.189 150.469 152.186 152.56 152.186 155.116V184.61H188.452V150.469Z" fill="#F9B532"/>
<path fill-rule="evenodd" clip-rule="evenodd" d="M188.452 155.522H159.111C156.663 155.522 154.659 157.613 154.659 160.17V184.611H188.452V155.522Z" fill="#F59F3A"/>
<path fill-rule="evenodd" clip-rule="evenodd" d="M156.555 184.611V162.387C156.555 160.305 158.187 158.601 160.183 158.601H188.452V184.611H156.555Z" fill="white"/>
<path fill-rule="evenodd" clip-rule="evenodd" d="M158.768 184.611L164.432 161.055C164.648 160.155 165.099 159.314 165.698 158.6H188.452V184.61H158.768V184.611Z" fill="#FFF2D1"/>
<path fill-rule="evenodd" clip-rule="evenodd" d="M188.452 156.407H173.048C170.599 156.407 168.093 158.499 167.478 161.055L161.815 184.611H188.453V156.407H188.452Z" fill="#FCC749"/>
<path d="M188.452 150.469H174.215V180.651H188.452V150.469Z" fill="#F18D3D"/>
<path d="M188.452 155.522H174.215V180.651H188.452V155.522Z" fill="#EE7E40"/>
<path d="M188.452 158.6H174.215V180.651H188.452V158.6Z" fill="#F2BCC2"/>
<path d="M188.452 158.6H174.215V180.651H188.452V158.6Z" fill="#F2B2A5"/>
<path d="M188.452 156.407H174.215V180.651H188.452V156.407Z" fill="#F39A4C"/>
<path fill-rule="evenodd" clip-rule="evenodd" d="M215.878 150.469H184.063C181.615 150.469 179.611 152.56 179.611 155.116V184.61H215.877V150.469H215.878Z" fill="#F9B532"/>
<path fill-rule="evenodd" clip-rule="evenodd" d="M215.878 155.522H186.537C184.088 155.522 182.084 157.613 182.084 160.17V184.611H215.877V155.522H215.878Z" fill="#F59F3A"/>
<path fill-rule="evenodd" clip-rule="evenodd" d="M183.981 184.611V162.387C183.981 160.305 185.613 158.601 187.609 158.601H215.877V184.611H183.981Z" fill="white"/>
<path fill-rule="evenodd" clip-rule="evenodd" d="M186.194 184.611L191.858 161.055C192.073 160.155 192.524 159.314 193.123 158.6H215.878V184.61H186.194V184.611Z" fill="#FFF2D1"/>
<path fill-rule="evenodd" clip-rule="evenodd" d="M215.878 156.407H200.473C198.024 156.407 195.518 158.499 194.903 161.055L189.24 184.611H215.878V156.407Z" fill="#FCC749"/>
<path d="M215.878 150.469H201.641V180.651H215.878V150.469Z" fill="#F18D3D"/>
<path d="M215.878 155.522H201.641V180.651H215.878V155.522Z" fill="#EE7E40"/>
<path d="M215.878 158.6H201.641V180.651H215.878V158.6Z" fill="#F2BCC2"/>
<path d="M215.878 158.6H201.641V180.651H215.878V158.6Z" fill="#F2B2A5"/>
<path d="M215.878 156.407H201.641V180.651H215.878V156.407Z" fill="#F39A4C"/>
<path fill-rule="evenodd" clip-rule="evenodd" d="M210.674 202.366H264.434C266.882 202.366 268.886 200.275 268.886 197.719V155.117C268.886 152.56 266.882 150.47 264.434 150.47H262.248V148.306C262.248 147.602 261.697 147.026 261.022 147.026H244.78C244.106 147.026 243.555 147.602 243.555 148.306V150.47H210.674C208.226 150.47 206.222 152.561 206.222 155.117V197.719C206.222 200.275 208.226 202.366 210.674 202.366Z" fill="#F9B532"/>
<path fill-rule="evenodd" clip-rule="evenodd" d="M210.674 202.366H264.434C266.882 202.366 268.886 200.275 268.886 197.719V156.009C268.289 155.698 267.617 155.522 266.907 155.522H264.721V153.359C264.721 152.654 264.17 152.079 263.496 152.079H247.255C246.581 152.079 246.029 152.654 246.029 153.359V155.522H213.148C210.699 155.522 208.696 157.613 208.696 160.17V201.88C209.293 202.191 209.965 202.366 210.674 202.366Z" fill="#F59F3A"/>
<path fill-rule="evenodd" clip-rule="evenodd" d="M248.19 202.366H214.219C212.224 202.366 210.591 200.663 210.591 198.58V162.387C210.591 160.305 212.224 158.601 214.219 158.601H248.19C250.185 158.601 251.818 160.305 251.818 162.387V198.58C251.819 200.663 250.185 202.366 248.19 202.366Z" fill="white"/>
<path fill-rule="evenodd" clip-rule="evenodd" d="M248.19 202.366H214.219C212.224 202.366 210.591 200.663 210.591 198.58V193.815L218.468 161.055C218.684 160.155 219.135 159.314 219.734 158.6H248.189C250.184 158.6 251.817 160.305 251.817 162.387V198.579C251.819 200.663 250.185 202.366 248.19 202.366Z" fill="#FFF2D1"/>
<path fill-rule="evenodd" clip-rule="evenodd" d="M216.034 202.367H265.67C268.119 202.367 270.626 200.275 271.24 197.719L280.055 161.055C280.67 158.499 279.169 156.407 276.719 156.407H274.111L274.665 154.105C274.889 153.171 274.342 152.408 273.447 152.408H255.33C254.436 152.408 253.522 153.171 253.296 154.105L252.743 156.407H227.085C224.636 156.407 222.129 158.499 221.515 161.055L212.699 197.719C212.084 200.275 213.585 202.367 216.034 202.367Z" fill="#FCC749"/>
<path fill-rule="evenodd" clip-rule="evenodd" d="M268.886 163.08L261.841 192.383C261.225 194.939 258.719 197.031 256.27 197.031H251.819H212.865L212.699 197.718C212.084 200.274 213.585 202.366 216.034 202.366H248.19H264.434H265.67C268.118 202.366 270.626 200.274 271.239 197.718L280.054 161.054C280.669 158.498 279.168 156.407 276.718 156.407H274.11L274.664 154.104C274.888 153.17 274.341 152.407 273.446 152.407H270.116C270.735 153.252 270.965 154.426 270.655 155.717L268.886 163.08Z" fill="#F9B532"/>
<path d="M292.726 167.663H201.416V207.978H292.726V167.663Z" fill="white"/>
<path fill-rule="evenodd" clip-rule="evenodd" d="M173.894 207.977H197.839C198.956 207.977 199.87 208.775 199.87 209.75V209.752C199.87 210.728 198.956 211.524 197.839 211.524H173.894C172.777 211.524 171.864 210.728 171.864 209.752V209.75C171.864 208.774 172.777 207.977 173.894 207.977Z" fill="#221758"/>
<path fill-rule="evenodd" clip-rule="evenodd" d="M141.955 207.978H229.778C230.737 207.978 231.522 208.663 231.522 209.5V209.752H140.211V209.5C140.211 208.663 140.996 207.978 141.955 207.978Z" fill="#221758"/>
<path fill-rule="evenodd" clip-rule="evenodd" d="M203.16 165.891H235.074H235.1H259.044H259.07H290.984C291.942 165.891 292.727 166.575 292.727 167.412V167.663H261.076C261.076 168.638 260.162 169.438 259.045 169.438H235.099C233.983 169.438 233.069 168.639 233.069 167.664L201.416 167.663V167.412C201.416 166.575 202.202 165.891 203.16 165.891Z" fill="#221758"/>
<path fill-rule="evenodd" clip-rule="evenodd" d="M201.416 207.978V167.663H140.211V209.5C140.211 208.663 140.995 207.978 141.955 207.978H173.858C173.87 207.977 173.882 207.977 173.894 207.977H197.839C197.851 207.977 197.863 207.977 197.875 207.978H201.416Z" fill="#D3EBFA"/>
<path fill-rule="evenodd" clip-rule="evenodd" d="M100.502 163.712C90.0476 151.619 82.2702 166.98 83.3556 182.401C84.3856 197.021 95.4781 247.183 93.4217 268.287H97.6693C108.06 241.225 113.887 179.193 100.502 163.712Z" fill="white"/>
<path fill-rule="evenodd" clip-rule="evenodd" d="M96.1078 268.287C106.221 225.634 93.4187 166.674 93.3751 166.474C93.2972 166.108 92.9725 165.883 92.65 165.971C92.3275 166.061 92.1303 166.43 92.2082 166.795C92.2511 166.997 105.07 226.022 94.8797 268.287H96.1078Z" fill="#DFDFDF"/>
<path fill-rule="evenodd" clip-rule="evenodd" d="M74.7105 190.363C63.6929 183.731 60.915 198.201 65.21 210.17C68.7696 220.09 84.4941 249.433 90.4393 268.286H96.0395C96.5155 242.233 87.7153 198.19 74.7105 190.363Z" fill="#80BBE7"/>
<path fill-rule="evenodd" clip-rule="evenodd" d="M93.994 268.286C90.3499 233.05 69.7219 194.747 69.6477 194.609C69.5043 194.34 69.1949 194.253 68.9583 194.417C68.7217 194.58 68.646 194.931 68.7901 195.2C68.8637 195.338 89.3592 233.392 92.9989 268.286H93.994Z" fill="#428FCD"/>
<path fill-rule="evenodd" clip-rule="evenodd" d="M121.273 207.087C131.951 201.788 133.644 215.494 128.9 226.305C125.69 233.621 114.123 252.353 106.334 268.287H97.4436C100.484 244.18 110.237 212.565 121.273 207.087Z" fill="#FCC749"/>
<path fill-rule="evenodd" clip-rule="evenodd" d="M100.618 268.287C108.199 239.081 125.658 211.559 125.728 211.448C125.879 211.208 126.172 211.154 126.383 211.325C126.594 211.496 126.642 211.828 126.492 212.068C126.423 212.179 109.148 239.415 101.584 268.287H100.618Z" fill="#F9B532"/>
<path fill-rule="evenodd" clip-rule="evenodd" d="M83.7618 258.644H115.047C115.983 258.644 116.748 259.513 116.748 260.577V269.352C116.748 270.415 115.983 271.285 115.047 271.285H83.7618C82.8256 271.285 82.0605 270.415 82.0605 269.352V260.577C82.0605 259.513 82.8256 258.644 83.7618 258.644Z" fill="#28256C"/>
<path fill-rule="evenodd" clip-rule="evenodd" d="M89.1275 265.783H109.68L115.047 271.284L110.663 290.468H99.4047H88.1454L83.7617 271.284L89.1275 265.783Z" fill="#28256C"/>
<path fill-rule="evenodd" clip-rule="evenodd" d="M115.047 271.284L114.146 275.229H84.6637L83.7617 271.284H115.047Z" fill="#221758"/>
<path fill-rule="evenodd" clip-rule="evenodd" d="M279.618 143.399C279.059 143.828 278.755 144.112 278.755 144.112C278.755 144.112 273.852 143.647 272.366 145.43C270.881 147.214 267.611 151.557 266.2 152.255C264.788 152.953 266.348 154.195 269.319 153.109C272.292 152.023 275.635 149.385 275.635 149.385C275.635 149.385 278.72 150.156 281.132 148.635C280.323 146.797 279.711 144.351 279.626 143.729C279.611 143.621 279.608 143.511 279.618 143.399Z" fill="#F2BBC9"/>
</g>
<defs>
<clipPath id="clip0_1007_9520">
<rect width="487" height="330" fill="white"/>
</clipPath>
</defs>
</svg>
