<svg width="488" height="367" viewBox="0 0 488 367" fill="none" xmlns="http://www.w3.org/2000/svg">
<g clip-path="url(#clip0_1007_9401)">
<path d="M83.6204 347.659C83.6204 347.659 22.8526 304.37 5.36326 230.701C-12.1261 157.02 14.5752 67.6824 65.2076 22.5572C115.851 -22.568 207.003 7.82336 247.511 45.5817L288.019 83.34C288.019 83.34 326.691 104.517 377.335 102.681C427.978 100.834 473.092 169.907 485.064 224.246C497.035 278.586 468.487 350.419 468.487 350.419L83.6204 347.659Z" fill="#DDECFF"/>
<g style="mix-blend-mode:multiply">
<path d="M56.0061 358.709C56.0061 358.709 13.6512 335.685 2.60349 282.269C-8.44418 228.853 39.4291 180.045 44.035 153.337C48.641 126.629 38.5056 93.4777 80.8606 67.6823C123.216 41.898 198.714 51.1011 227.262 44.6578C255.81 38.2146 288.953 -5.99815 346.038 4.13973C403.123 14.2665 458.373 44.6578 461.132 110.971C463.891 177.285 442.719 179.121 463.891 215.043C485.063 250.965 493.351 275.826 483.227 312.661C473.103 349.495 451.92 359.633 451.92 359.633L56.0061 358.709Z" fill="#DDECFF"/>
</g>
<g style="mix-blend-mode:multiply">
<path d="M144.443 346.735C141.806 343.976 103.167 266.612 146.201 195.702C189.234 124.793 297.252 133.072 340.286 160.704C383.32 188.335 404.391 224.246 408.786 262.005C413.181 299.763 384.199 358.709 384.199 358.709L144.443 346.735Z" fill="#DDECFF"/>
</g>
<path d="M447.425 180.579H397.783C394.711 180.579 392.22 183.07 392.22 186.143V210.937C392.22 214.01 394.711 216.501 397.783 216.501H447.425C450.497 216.501 452.988 214.01 452.988 210.937V186.143C452.988 183.07 450.497 180.579 447.425 180.579Z" fill="#60A8FF"/>
<path d="M422.604 230.545L430.481 211.894H414.738L422.604 230.545Z" fill="#60A8FF"/>
<path d="M422.426 192.375H436.633V194.456L443.598 190.427L436.633 186.41V188.491H422.426V192.375Z" fill="#223A7A"/>
<path d="M443.598 200.543H429.391V198.462L422.426 202.479L429.391 206.497V204.416H443.598V200.543Z" fill="white"/>
<path d="M413.704 204.204L413.025 204.449C413.025 204.449 410.911 202.045 409.821 199.419C408.73 196.793 408.686 193.599 408.686 193.599L409.175 193.387L406.172 186.199C405.638 186.621 405.126 187.156 404.714 187.857C403.012 190.728 403.179 195.146 404.892 199.452C406.605 203.759 408.43 207.609 411.768 210.024C413.737 211.449 415.428 211.705 416.73 211.493L413.692 204.215L413.704 204.204Z" fill="#223A7A"/>
<path d="M415.851 203.358L414.916 203.703L417.987 211.07C418.332 210.959 418.643 210.814 418.921 210.67C419.711 210.236 420.067 209.279 419.734 208.433L418.132 204.382C417.776 203.481 416.763 203.036 415.862 203.358H415.851Z" fill="#223A7A"/>
<path d="M408.53 184.93C408.152 185.064 407.74 185.253 407.329 185.498L410.399 192.842L411.434 192.408C412.335 192.03 412.758 191.017 412.413 190.105L410.8 185.965C410.455 185.064 409.442 184.596 408.541 184.93H408.53Z" fill="#223A7A"/>
<path d="M130.08 334.305V251.422C130.08 251.422 129.157 229.087 140.894 222.644C152.632 216.201 202.118 219.65 202.118 219.65V334.305H130.069H130.08Z" fill="#1C83FF"/>
<path d="M217.593 142.053C217.593 142.053 214.601 167.147 213.455 169.217L212.309 171.287L206.557 175.204C206.557 175.204 217.605 190.861 231.189 193.387C244.773 195.925 243.616 187.857 243.616 187.857L241.547 183.483L244.306 159.535C244.306 159.535 219.674 148.251 217.605 142.042L217.593 142.053Z" fill="#F3C6D4"/>
<path d="M199.403 177.285L208.382 173.368C208.382 173.368 214.134 182.804 227.484 188.335C240.835 193.866 241.069 190.639 241.758 188.335C242.448 186.032 241.525 183.506 241.525 183.506L242.515 175.449L247.855 177.229L266.39 327.183L218.74 329.486L199.403 177.296V177.285Z" fill="white"/>
<path d="M243.371 175.593C243.371 175.593 246.598 183.038 249.591 200.532C252.583 218.026 255.343 247.504 256.032 267.758C256.722 288.011 257.178 334.294 257.178 334.294H317.256C317.946 334.294 322.085 311.503 322.085 311.503C322.085 311.503 295.84 289.013 294.46 285.329C293.537 282.87 294.004 237.367 290.088 216.412C286.171 195.457 281.109 191.24 270.518 186.021C259.57 180.623 243.36 175.582 243.36 175.582L243.371 175.593Z" fill="#223A7A"/>
<path d="M274.679 307.92C274.367 307.92 274.122 307.675 274.122 307.363C274.122 305.716 273.833 282.325 273.544 259.712C273.266 237.088 272.965 213.697 272.965 212.05C272.965 211.738 273.21 211.493 273.522 211.493C273.833 211.493 274.078 211.738 274.078 212.05C274.078 213.697 274.367 237.088 274.656 259.701C274.935 282.325 275.235 305.716 275.235 307.363C275.235 307.675 274.99 307.92 274.679 307.92Z" fill="#8593B6"/>
<path d="M154.979 302.3L154.523 334.305H224.502C224.502 334.305 227.495 307.141 226.349 304.604C225.203 302.066 154.99 302.3 154.99 302.3H154.979Z" fill="#223A7A"/>
<g style="mix-blend-mode:multiply">
<path d="M232.858 168.527C235.706 170.83 239.611 172.667 242.648 173.791L244.295 159.546C244.295 159.546 225.793 151.067 219.518 144.768C220.831 151.935 224.058 161.427 232.858 168.527Z" fill="#F3C6D4"/>
</g>
<path d="M265.934 95.3138C265.934 95.3138 270.762 103.604 271.686 113.731C272.609 123.858 271.686 149.876 263.397 160.926C255.109 171.977 237.842 168.749 230.021 162.072C222.834 155.941 215.747 149.175 213.911 135.821C212.064 122.467 217.827 97.1389 234.17 91.8418C250.514 86.5447 265.934 95.2916 265.934 95.2916V95.3138Z" fill="#F3C6D4"/>
<path d="M286.694 319.827C286.694 319.827 285.882 319.827 284.647 319.794C284.358 319.783 284.035 319.794 283.702 319.783C282.511 319.749 281.065 319.716 279.607 319.671C279.285 319.66 278.951 319.649 278.628 319.638C277.182 319.605 275.947 319.783 274.79 319.716H274.757C274.512 319.705 274.156 319.738 273.867 319.749C273.722 319.76 273.588 319.771 273.499 319.76C272.832 319.638 272.698 319.482 271.975 319.159C271.041 318.737 258.391 315.91 248.1 315.977C237.82 316.021 228.597 316.722 227.095 315.465C225.582 314.185 224.669 301.265 233.447 300.419L244.239 304.515C244.239 304.515 268.882 301.588 277.916 308.254C286.972 314.92 286.694 319.827 286.694 319.827Z" fill="#F2BBC9"/>
<path d="M274.757 319.716C274.512 319.705 274.156 319.738 273.867 319.749C273.644 319.393 273.177 318.748 272.921 318.481C270.139 315.643 263.42 313.807 260.983 313.217C260.761 313.161 260.616 312.939 260.672 312.716C260.716 312.494 260.95 312.36 261.183 312.405C264.732 313.261 272.264 315.454 274.401 319.048C274.467 319.148 274.645 319.493 274.757 319.716Z" fill="#223A7A"/>
<path d="M279.607 319.671C279.285 319.671 278.951 319.66 278.628 319.638C275.591 314.096 270.618 312.505 264.488 310.535L264.12 310.413C263.909 310.346 263.787 310.101 263.853 309.878C263.92 309.667 264.154 309.545 264.387 309.611L264.744 309.734C271.241 311.815 276.459 313.495 279.618 319.671H279.607Z" fill="#223A7A"/>
<path d="M284.647 319.794C284.358 319.794 284.035 319.794 283.701 319.783C281.855 315.91 275.758 309.422 267.703 307.92C267.469 307.875 267.325 307.664 267.358 307.43C267.403 307.208 267.625 307.063 267.848 307.096C276.158 308.654 282.856 315.443 284.658 319.794H284.647Z" fill="#223A7A"/>
<path d="M219.429 124.437C219.429 124.437 224.491 122.022 228.063 115.222C231.634 108.434 231.167 102.325 231.167 102.325C231.167 102.325 237.608 101.29 247.276 104.172C256.944 107.054 268.448 110.96 278.116 105.441C287.785 99.9098 287.785 91.0517 283.067 87.3682C277.783 83.2396 267.302 85.7546 267.302 85.7546C267.302 85.7546 271.33 81.8375 269.149 79.5339C266.957 77.2304 259.025 80.2239 259.025 80.2239C259.025 80.2239 249.357 72.512 231.055 73.4356C212.754 74.3592 204.009 87.1345 202.974 101.412C201.94 115.69 207.113 129.967 207.113 129.967L219.429 124.437Z" fill="#223A7A"/>
<g style="mix-blend-mode:multiply">
<path d="M256.555 127.897C255.52 130.457 255.543 133.428 255.287 136.132C255.087 138.247 254.697 140.706 256.633 142.131C257.556 142.809 261.929 144.646 259.681 146.137C258.825 146.704 257.39 146.548 256.41 146.504C255.743 146.471 255.064 146.448 254.386 146.393C253.662 146.337 252.962 146.126 252.238 146.114C251.816 146.114 251.682 146.671 252.027 146.893C253.184 147.617 254.897 147.85 256.244 147.895C257.601 147.951 258.513 147.895 259.737 147.283C260.482 146.916 261.217 146.382 261.328 145.491C261.461 144.49 260.705 143.588 259.948 143.021C259.081 142.375 258.013 142.075 257.134 141.441C255.91 140.573 256.01 139.093 256.099 137.735C256.31 134.463 257.056 131.247 257.345 127.986C257.39 127.486 256.7 127.486 256.544 127.875L256.555 127.897Z" fill="#8E9BBB"/>
</g>
<path d="M265.967 135.554C265.622 137.49 264.21 138.87 262.819 138.625C261.417 138.38 260.571 136.6 260.905 134.663C261.25 132.727 262.663 131.347 264.054 131.592C265.456 131.837 266.301 133.617 265.967 135.554Z" fill="#223A7A"/>
<path d="M248.356 134.018C248.044 136.11 246.564 137.624 245.063 137.401C243.561 137.178 242.582 135.298 242.893 133.206C243.205 131.114 244.684 129.6 246.186 129.823C247.688 130.045 248.667 131.926 248.356 134.018Z" fill="#223A7A"/>
<path d="M261.873 127.552C262.952 127.731 264.032 127.552 265.122 127.63C265.378 127.653 265.645 127.686 265.901 127.708C266.09 127.731 265.556 127.653 265.812 127.697C265.867 127.697 265.923 127.719 265.979 127.719C266.112 127.742 266.246 127.775 266.379 127.808C266.613 127.864 266.835 127.953 267.069 127.998C267.28 128.042 267.514 128.098 267.725 128.087C267.848 128.076 267.959 128.053 268.081 128.042C268.003 128.053 267.937 128.064 267.859 128.087C267.859 128.109 268.259 128.053 268.304 128.042C268.916 127.897 269.305 127.185 269.127 126.584C269.083 126.406 269.005 126.262 268.893 126.117C268.849 126.061 268.804 125.995 268.749 125.939C268.793 125.983 268.838 126.039 268.882 126.084C268.838 126.017 268.793 125.961 268.738 125.894C268.682 125.794 268.593 125.705 268.493 125.65C268.404 125.583 268.326 125.516 268.237 125.449C267.948 125.249 267.581 125.138 267.236 125.049C266.59 124.882 265.923 124.804 265.255 124.793C264.599 124.793 263.943 124.859 263.297 124.948C262.719 125.026 262.085 125.227 261.617 125.572C261.261 125.839 261.039 126.184 261.094 126.651C261.15 127.041 261.45 127.486 261.873 127.552Z" fill="#223A7A"/>
<path d="M249.591 124.47C249.446 124.381 249.29 124.303 249.146 124.236C249.012 124.181 248.656 123.991 248.923 124.136C248.823 124.08 248.723 124.025 248.623 123.98C248.178 123.758 247.71 123.602 247.232 123.48C246.186 123.212 245.074 123.146 243.994 123.257C242.849 123.379 241.792 123.658 240.801 124.259C240.657 124.348 240.512 124.425 240.401 124.548C240.323 124.648 240.245 124.748 240.167 124.848C240.19 124.815 240.212 124.782 240.234 124.748C239.922 124.96 239.744 125.316 239.756 125.683C239.756 126.039 239.945 126.34 240.256 126.506C240.635 126.718 240.991 126.618 241.369 126.506H240.79C241.113 126.562 241.335 126.573 241.658 126.506C241.669 126.506 241.97 126.429 241.769 126.473C241.58 126.518 242.081 126.44 242.136 126.429C242.203 126.429 242.548 126.384 242.181 126.429C242.248 126.429 242.314 126.417 242.381 126.406C242.559 126.384 242.726 126.362 242.904 126.351C243.661 126.295 244.417 126.262 245.185 126.228C245.886 126.206 246.609 126.195 247.321 126.228C247.621 126.239 247.922 126.25 248.222 126.262C248.389 126.262 248.322 126.295 248.2 126.262C248.267 126.284 248.322 126.295 248.389 126.306C248.511 126.34 248.634 126.384 248.756 126.429C249.246 126.618 249.835 126.262 250.013 125.805C250.214 125.316 250.047 124.748 249.579 124.47H249.591Z" fill="#223A7A"/>
<path d="M255.053 156.486C256.11 154.361 258.035 152.803 260.249 151.801C258.324 151.601 249.212 150.766 246.92 152.068C244.35 153.526 247.399 159.402 252.717 159.691C253.273 159.724 253.785 159.68 254.274 159.602C254.319 158.534 254.564 157.465 255.053 156.486Z" fill="#223A7A"/>
<path d="M212.988 144.123C212.988 144.123 213.911 147.695 219.207 151.834C224.502 155.974 232.179 159.012 232.179 159.012L232.791 156.33C232.791 156.33 224.847 152.88 221.165 149.075C217.482 145.28 217.026 143.199 217.026 143.199L212.999 144.123H212.988Z" fill="#DEE1EB"/>
<path d="M233.703 154.338C237.964 154.138 240.345 157.51 240.634 159.691C240.935 161.872 238.888 164.32 234.093 162.173C228.14 159.502 229.431 154.539 233.692 154.338H233.703Z" fill="#223A7A"/>
<path d="M216.325 117.76C216.325 117.76 218.161 104.528 227.028 95.5364C243.95 78.3877 258.335 79.4226 258.335 79.4226C258.335 79.4226 258.224 77.0078 252.806 75.1605C247.721 73.4356 245.441 74.3593 245.441 74.3593C245.441 74.3593 231.512 75.5055 219.774 88.5144C208.037 101.523 206.768 118.105 206.768 118.105L216.325 117.76Z" fill="#DEE1EB"/>
<path d="M215.057 116.146C203.976 114.265 197.79 122.934 197.334 131.692C196.878 140.439 203.23 147.094 211.719 146.426C230.822 144.935 228.641 118.45 215.057 116.146Z" fill="white"/>
<path d="M209.539 137.924C206.613 137.924 204.143 136.455 202.73 133.862C201.217 131.091 201.339 127.675 203.053 125.16C203.186 124.971 203.442 124.926 203.631 125.049C203.82 125.182 203.876 125.438 203.742 125.627C202.207 127.886 202.096 130.958 203.464 133.462C204.755 135.832 207.047 137.178 209.761 137.089C212.298 137.023 214.445 135.865 215.802 133.829C217.36 131.503 217.716 128.298 216.715 125.65C215.713 123.023 212.988 121.243 210.507 121.565C210.284 121.599 210.073 121.432 210.039 121.209C210.006 120.987 210.173 120.775 210.395 120.742C213.299 120.352 216.348 122.344 217.493 125.36C218.595 128.254 218.194 131.759 216.492 134.296C214.968 136.566 212.587 137.857 209.783 137.924C209.706 137.924 209.628 137.924 209.55 137.924H209.539Z" fill="#818FB3"/>
<path d="M201.484 174.058C201.484 174.058 167.873 182.348 156.136 195.702C144.399 209.056 138.869 274.902 138.647 287.11C138.424 299.318 146.935 304.381 151.997 307.831C157.059 311.281 179.388 317.501 197.345 318.425C215.302 319.349 232.335 318.425 232.335 318.425C232.335 318.425 232.279 314.508 235.038 308.754C237.597 303.413 240.846 302.311 240.846 302.311L225.426 296.78C225.426 296.78 222.722 248.383 218.517 224.947C213.688 198.006 201.484 174.069 201.484 174.069V174.058Z" fill="#223A7A"/>
<path d="M257.178 289.046C257.1 289.046 257.022 289.035 256.956 289.002C256.678 288.879 256.544 288.546 256.678 288.267C259.826 281.156 263.086 267.213 264.922 257.42L265.077 256.63C265.634 253.747 266.323 250.175 264.944 247.694C264.243 246.436 262.652 243.699 261.117 241.072C259.526 238.346 258.035 235.764 257.612 234.996C256.8 233.494 259.359 229.477 263.052 223.968C264.054 222.477 264.91 221.197 265.411 220.329C266.724 218.048 265.856 215.967 264.833 213.541L264.488 212.706C263.564 210.447 262.518 208.188 261.506 205.996C261.094 205.106 260.683 204.204 260.271 203.303C259.726 202.112 259.192 200.899 258.636 199.675C255.387 192.419 252.016 184.919 247.71 177.674C247.555 177.407 247.644 177.073 247.9 176.906C248.167 176.751 248.5 176.84 248.667 177.096C253.006 184.396 256.388 191.93 259.648 199.208C260.193 200.432 260.738 201.645 261.272 202.824C261.684 203.726 262.096 204.616 262.507 205.506C263.52 207.71 264.577 209.98 265.5 212.261L265.845 213.085C266.88 215.544 267.948 218.103 266.357 220.852C265.834 221.754 264.966 223.056 263.954 224.558C262.029 227.429 258.024 233.405 258.569 234.44C258.981 235.196 260.471 237.767 262.051 240.482C263.587 243.12 265.177 245.857 265.89 247.126C267.469 249.953 266.735 253.758 266.145 256.808L265.99 257.598C265.322 261.159 261.773 279.409 257.668 288.69C257.579 288.902 257.367 289.024 257.156 289.024L257.178 289.046Z" fill="#8593B6"/>
<path d="M224.38 290.994C224.235 290.994 224.091 290.938 223.991 290.827C221.376 288.189 208.76 266.345 207.825 262.238C207.314 259.99 208.604 254.281 209.85 248.762C210.818 244.489 211.819 240.071 211.53 238.869C211.107 237.077 207.881 234.44 204.766 231.891C200.994 228.809 197.1 225.626 196.344 222.755C195.487 219.494 196.221 199.085 196.7 185.587C196.878 180.735 197.011 176.895 197.011 175.527C197.011 175.215 197.256 174.97 197.568 174.97C197.879 174.97 198.124 175.215 198.124 175.527C198.124 176.918 197.99 180.757 197.812 185.62C197.356 198.239 196.6 219.361 197.412 222.466C198.079 224.981 201.996 228.186 205.456 231.012C208.871 233.805 212.086 236.432 212.598 238.591C212.943 240.037 212.009 244.188 210.918 248.984C209.75 254.126 208.437 259.957 208.893 261.96C209.817 265.988 222.2 287.422 224.77 290.014C224.981 290.237 224.981 290.582 224.77 290.805C224.658 290.916 224.525 290.971 224.38 290.971V290.994Z" fill="#8593B6"/>
<path d="M179.155 281.446C179.155 281.446 179.099 281.446 179.077 281.446C178.776 281.401 178.565 281.123 178.598 280.811C179.01 277.918 185.396 220.273 185.685 215.855C185.708 215.544 185.975 215.31 186.275 215.332C186.587 215.355 186.809 215.622 186.798 215.922C186.509 220.34 180.112 278.063 179.7 280.956C179.655 281.234 179.422 281.435 179.155 281.435V281.446Z" fill="#8593B6"/>
<path d="M224.959 297.103C224.892 297.103 224.814 297.092 224.747 297.059C223.334 296.48 217.082 294.377 209.171 291.706C193.195 286.32 171.322 278.942 167.161 276.772C166.883 276.627 166.783 276.293 166.928 276.026C167.072 275.748 167.406 275.648 167.673 275.792C171.756 277.918 194.486 285.585 209.527 290.66C217.46 293.342 223.724 295.445 225.17 296.035C225.459 296.146 225.593 296.48 225.482 296.758C225.393 296.97 225.181 297.103 224.97 297.103H224.959Z" fill="#8593B6"/>
<path d="M217.271 320.05C203.208 320.05 175.962 317.512 155.257 310.19C154.968 310.09 154.812 309.767 154.923 309.478C155.023 309.188 155.346 309.033 155.635 309.144C181.791 318.403 218.383 319.983 225.192 318.447C225.493 318.38 225.793 318.57 225.86 318.87C225.927 319.171 225.737 319.471 225.437 319.538C223.968 319.872 221.109 320.05 217.293 320.05H217.271Z" fill="#8593B6"/>
<path d="M56.362 181.825C60.7233 185.664 66.2527 188.124 70.0799 192.564C71.5818 194.311 72.9391 196.17 74.3409 198.006C75.3534 199.341 78.0791 201.556 78.513 203.225C78.7022 203.959 78.6688 202.958 78.4685 202.223C78.4685 202.19 78.4463 202.168 78.4351 202.134C78.0569 198.74 77.7787 195.335 77.6564 191.919C77.534 188.513 77.7454 185.097 77.534 181.703C77.2336 176.906 75.7316 172.266 71.8154 169.261C69.9018 167.792 67.4431 166.902 65.6741 165.266C64.0053 163.719 64.6728 161.95 65.6519 160.225C66.5753 158.612 67.6879 157.02 68.0439 155.162C68.4555 153.047 67.6545 150.866 66.5864 149.075C64.3057 145.246 59.2547 140.973 54.4596 141.552C50.4655 142.03 50.0094 146.638 50.0761 149.842C50.1317 152.958 50.4433 156.074 50.4655 159.19C50.4989 162.395 49.9537 165.544 49.9092 168.738C49.8314 174.169 52.3457 178.309 56.3287 181.814L56.362 181.825Z" fill="#6BAEFF"/>
<path d="M96.9148 231.658C98.1274 228.753 99.5293 226.049 101.243 223.412C103.59 219.795 106.205 216.267 107.784 212.217C109.398 208.077 109.164 203.659 109.32 199.308C109.431 196.103 110.388 192.92 110.132 189.704C110.01 188.168 109.119 185.676 107.128 185.932C105.582 186.132 104.658 188.046 104.068 189.281C103.034 191.418 102.311 193.699 101.543 195.947C101.243 196.826 100.953 197.716 100.575 198.562C100.353 199.052 99.6516 200.254 98.9841 200.098C97.8493 199.82 98.884 195.201 99.0509 194.378C99.8964 190.272 101.165 186.455 101.343 182.226C101.599 176.094 101.12 168.805 95.1236 165.444C93.5548 164.565 91.5745 164.042 90.0837 165.355C88.6151 166.646 88.2035 168.883 87.9809 170.73C87.3134 176.395 88.6485 181.747 90.4619 187.078C91.9639 191.473 93.744 196.014 93.8775 200.721C93.9999 205.25 91.6524 209.256 90.5398 213.541C88.782 220.351 89.138 223.968 89.138 226.171C89.138 228.931 89.227 231.669 89.4273 234.429C89.6164 236.966 89.8278 239.492 90.1393 242.018C90.2061 242.53 90.2617 243.064 90.3284 243.598C89.3494 241.25 89.0156 238.568 88.2035 236.209C86.7683 232.025 85.1106 227.919 83.731 223.712C82.5962 220.24 81.517 216.735 80.0262 213.385C78.6244 210.247 76.9221 206.931 74.2965 204.627C72.7056 203.236 70.792 202.424 68.667 202.435C67.3097 202.435 66.0859 202.913 64.7953 203.258C63.2044 203.681 61.9472 203.536 60.6343 202.524C56.3399 199.219 55.0271 193.298 51.8563 189.114C49.4865 185.998 43.857 180.679 39.7183 184.084C37.5266 185.887 36.9147 189.37 37.0371 192.052C37.1817 195.402 38.6503 198.473 40.3858 201.277C42.2438 204.26 44.6358 206.931 46.338 209.991C47.3504 211.805 47.5062 213.541 47.3393 215.577C47.1836 217.502 47.0167 219.361 47.6731 221.219C49.6423 226.795 55.7947 226.016 60.5787 226.16C63.9275 226.26 67.5099 226.761 70.6918 227.83C74.3633 229.065 76.7553 231.457 78.0681 235.085C79.0138 237.711 79.5255 240.705 81.3167 242.931C82.1623 243.977 83.2748 244.756 84.4986 245.301C86.3677 246.124 92.0529 246.481 92.0863 245.969C92.2309 244.233 93.0542 242.396 93.566 240.749C94.5339 237.656 95.6687 234.64 96.9259 231.647L96.9148 231.658Z" fill="#6BAEFF"/>
<path d="M123.316 230.601C122.826 227.418 122.915 223.901 121.413 220.975C121.302 220.763 121.024 220.707 120.824 220.819C119.744 221.42 119.7 223.167 119.611 224.235C119.466 226.016 119.577 227.796 119.355 229.566C118.977 232.681 118.254 235.886 117.13 238.813C115.862 242.129 113.559 244.01 110.21 245.045C108.063 245.713 105.949 246.291 104.146 247.716C102.533 248.996 101.421 250.754 100.597 252.612C98.3611 257.631 97.293 263.229 96.2583 268.592C95.5574 272.198 94.99 275.826 94.1111 279.398C93.2322 282.97 92.2976 286.52 91.797 290.17C91.708 290.359 91.619 290.537 91.5411 290.727C91.3075 291.272 92.1641 291.561 92.4534 291.116C95.9134 285.797 100.119 281.012 105.871 278.085C108.463 276.761 111.912 276.482 114.081 274.401C115.728 272.821 115.951 270.406 115.706 268.248C115.383 265.421 114.026 263.095 112.613 260.68C111.834 259.356 110.922 257.943 111.233 256.329C111.534 254.816 112.791 253.692 114.037 252.913C116.429 251.433 119.221 250.765 121.168 248.628C122.982 246.647 123.994 244.166 124.195 241.495C124.462 237.934 123.85 234.106 123.305 230.589L123.316 230.601Z" fill="#6BAEFF"/>
<path d="M76.188 248.984C73.1396 245.056 69.457 241.662 65.3183 238.913C63.1043 237.444 57.8976 234.551 56.8406 238.88C56.2287 241.417 58.7097 243.91 60.3452 245.501C62.8039 247.894 65.6409 249.953 67.7103 252.712C65.1403 253.536 62.459 253.692 60.2339 255.461C57.5972 257.564 56.4067 261.615 59.0324 264.197C60.3118 265.454 62.0029 266.222 63.5827 266.99C65.6521 267.992 67.7548 268.893 69.8686 269.783C74.4412 271.697 79.0695 273.634 82.9634 276.761C86.9352 279.943 90.6734 285.341 90.9849 290.537C91.0183 291.038 90.8292 290.582 91.1184 290.359C91.2853 290.504 91.8194 290.248 91.8194 289.959C91.7415 282.247 90.3508 274.891 87.2022 267.825C84.2762 261.27 80.5937 254.671 76.188 248.996V248.984Z" fill="#6BAEFF"/>
<path d="M65.6409 177.14C67.3209 180.634 69.0787 184.051 70.9478 187.456C72.7502 190.739 74.5414 193.988 75.8876 197.494C77.5453 201.8 79.2809 206.04 81.0276 210.314C82.8522 214.754 84.4765 219.272 85.7782 223.89C88.3259 232.904 90.2173 242.174 91.1518 251.499C91.6302 256.24 91.8416 261.003 91.7081 265.766C91.608 269.483 91.1852 273.166 90.8403 276.872C90.4732 280.722 90.2173 284.628 90.5399 288.49C90.8069 291.717 91.3187 295.567 93.8331 297.871C94.3226 298.327 95.0235 297.76 94.7343 297.181C91.7526 291.072 91.9195 284.406 92.4869 277.784C92.7984 274.123 93.2323 270.484 93.3658 266.812C93.5216 262.138 93.3436 257.453 92.8985 252.801C92.0307 243.654 90.2062 234.618 87.8475 225.749C86.6349 221.197 85.1329 216.735 83.4084 212.361C81.6729 207.977 79.6703 203.703 77.9903 199.297C74.953 191.318 70.3248 184.251 66.2195 176.817C66.0081 176.428 65.4518 176.773 65.6298 177.162L65.6409 177.14Z" fill="#43588E"/>
<path d="M91.3076 242.363C91.786 236.554 92.3089 230.957 94.2559 225.426C95.1682 222.844 96.2696 220.329 97.1596 217.736C97.8828 215.588 98.9731 212.651 98.4168 210.369C98.3501 210.113 97.9829 210.124 97.9162 210.369C97.5379 211.671 97.5824 213.096 97.3154 214.431C97.0484 215.733 96.7035 217.002 96.303 218.27C95.4463 220.952 94.3226 223.523 93.3547 226.171C91.4745 231.279 90.5066 236.932 90.9182 242.363C90.9404 242.619 91.2965 242.619 91.3187 242.363H91.3076Z" fill="#43588E"/>
<path d="M57.6527 208.978C59.9557 214.542 66.8869 214.865 71.9379 216.111C75.5426 217.002 78.2016 219.405 80.1152 222.532C82.2068 225.949 83.6197 229.955 84.7879 233.772C84.799 233.817 84.8658 233.794 84.8547 233.75C83.4417 227.073 81.4169 219.038 74.5413 215.933C69.023 213.441 61.758 214.698 58.2423 208.733C58.0643 208.444 57.5303 208.633 57.6749 208.978H57.6527Z" fill="#43588E"/>
<path d="M87.6583 241.484C87.9364 241.851 88.1812 242.241 88.4705 242.608C88.6151 242.786 88.7486 242.953 88.9266 243.098C89.1046 243.242 89.316 243.431 89.5719 243.42C89.672 243.42 89.7499 243.298 89.6943 243.209C89.583 243.02 89.3716 242.908 89.2159 242.775C89.049 242.63 88.8821 242.486 88.7264 242.33C88.4037 242.029 88.1145 241.695 87.7918 241.384C87.7362 241.328 87.6138 241.406 87.6694 241.484H87.6583Z" fill="#43588E"/>
<path d="M73.2507 259.145C77.2225 262.405 80.8939 266.267 83.8088 270.507C85.1995 272.532 86.4901 274.669 87.6583 276.827C88.9266 279.187 89.7721 281.679 90.7623 284.161C90.8402 284.35 91.1851 284.35 91.1517 284.105C90.5954 278.864 87.28 274.379 84.6321 270.017C83.2525 267.758 81.5392 265.933 79.6924 264.041C77.7899 262.094 75.8429 260.246 73.6178 258.677C73.3508 258.488 72.9948 258.933 73.2618 259.145H73.2507Z" fill="#43588E"/>
<path d="M104.903 252.979C102.989 254.07 102.923 257.086 102.889 259.022C102.823 262.739 103.735 266.222 102.111 269.761C100.642 272.955 98.2945 275.626 96.4476 278.586C94.7232 281.368 93.0098 284.918 93.0543 288.256C93.0543 288.445 93.3547 288.557 93.4437 288.356C94.1446 286.843 94.3894 285.118 94.89 283.527C95.4463 281.735 96.2362 280.11 97.2487 278.541C99.0287 275.781 101.209 273.277 102.656 270.317C104.18 267.19 103.957 264.097 103.857 260.714C103.79 258.555 103.579 255.083 105.315 253.48C105.582 253.224 105.237 252.801 104.925 252.979H104.903Z" fill="#43588E"/>
<path d="M92.1085 288.601C84.3985 288.49 69.7017 288.412 69.7017 288.412L73.3397 315.409C74.163 321.485 79.3364 326.014 85.4666 326.014H98.7505C104.881 326.014 110.065 321.485 110.877 315.409L114.515 288.412C114.515 288.412 99.8185 288.501 92.1085 288.601Z" fill="white"/>
<path d="M464.926 238.98L420.924 326.17L292.635 327.094L332.22 237.756L464.926 238.98Z" fill="#F6F7FA"/>
<path d="M207.492 326.549L207.514 319.571H290.566L328.771 235.764H461.588L464.926 238.991H335.18L295.473 326.482C295.473 326.482 207.492 326.326 207.492 326.549Z" fill="#D9DEE8"/>
<path d="M398.306 287.099C396.86 291.45 388.994 294.811 380.739 294.599C372.484 294.388 366.965 290.704 368.423 286.353C369.869 282.002 377.735 278.641 385.99 278.853C394.245 279.064 399.763 282.748 398.306 287.099Z" fill="#D9DEE8"/>
<path d="M295.472 327.027C295.395 327.027 295.317 327.016 295.239 326.983C294.961 326.86 294.838 326.526 294.961 326.248L334.812 238.435H464.915C465.226 238.435 465.471 238.68 465.471 238.991C465.471 239.303 465.226 239.548 464.915 239.548H335.524L295.962 326.716C295.873 326.916 295.662 327.038 295.45 327.038L295.472 327.027Z" fill="white"/>
<path d="M201.706 333.148H49.0972V366.989H201.706V333.148Z" fill="#596B9B"/>
<path d="M475.417 333.148H200.839V366.989H475.417V333.148Z" fill="#7A89AF"/>
<g style="mix-blend-mode:multiply">
<path d="M201.706 333.148H200.839H49.0972V339.368H200.839H201.706H475.417V333.148H201.706Z" fill="#BDC4D7"/>
</g>
<path d="M208.382 326.471H41.7319V334.761H208.382V326.471Z" fill="#6F7FA9"/>
<path d="M482.092 326.471H207.514V334.761H482.092V326.471Z" fill="#9CA6C3"/>
<path d="M163.179 109.925H109.309C105.972 109.925 103.268 112.631 103.268 115.968V142.865C103.268 146.202 105.972 148.908 109.309 148.908H163.179C166.515 148.908 169.22 146.202 169.22 142.865V115.968C169.22 112.631 166.515 109.925 163.179 109.925Z" fill="white"/>
<path d="M184.573 129.411L164.336 120.876V137.946L184.573 129.411Z" fill="white"/>
<path d="M123.46 133.139C125.519 133.139 127.188 131.47 127.188 129.411C127.188 127.352 125.519 125.683 123.46 125.683C121.402 125.683 119.733 127.352 119.733 129.411C119.733 131.47 121.402 133.139 123.46 133.139Z" fill="#223A7A"/>
<path d="M136.244 133.139C138.302 133.139 139.971 131.47 139.971 129.411C139.971 127.352 138.302 125.683 136.244 125.683C134.185 125.683 132.517 127.352 132.517 129.411C132.517 131.47 134.185 133.139 136.244 133.139Z" fill="#223A7A"/>
<path d="M149.027 133.139C151.085 133.139 152.754 131.47 152.754 129.411C152.754 127.352 151.085 125.683 149.027 125.683C146.968 125.683 145.3 127.352 145.3 129.411C145.3 131.47 146.968 133.139 149.027 133.139Z" fill="#223A7A"/>
<path d="M437.457 27.1642H313.084C305.096 27.1642 298.621 33.6408 298.621 41.6309V100.644C298.621 108.634 305.096 115.111 313.084 115.111H324.232C324.544 120.464 323.776 128.421 319.315 138.592C333.689 131.959 341.955 122.011 346.283 115.111H437.468C445.456 115.111 451.931 108.634 451.931 100.644V41.6309C451.931 33.6408 445.456 27.1642 437.468 27.1642H437.457Z" fill="#60A8FF"/>
<path d="M384.399 55.2854H322.708C321.017 55.2854 319.637 53.9055 319.637 52.214C319.637 50.5225 321.017 49.1425 322.708 49.1425H384.399C386.09 49.1425 387.47 50.5113 387.47 52.214C387.47 53.9055 386.101 55.2854 384.399 55.2854Z" fill="white"/>
<path d="M428.634 73.1685H321.517C320.483 73.1685 319.637 72.3228 319.637 71.2878C319.637 70.2529 320.483 69.4072 321.517 69.4072H428.634C429.669 69.4072 430.514 70.2529 430.514 71.2878C430.514 72.3228 429.669 73.1685 428.634 73.1685Z" fill="#D2E6FF"/>
<path d="M428.634 83.6068H321.517C320.483 83.6068 319.637 82.7611 319.637 81.7262C319.637 80.6912 320.483 79.8455 321.517 79.8455H428.634C429.669 79.8455 430.514 80.6912 430.514 81.7262C430.514 82.7611 429.669 83.6068 428.634 83.6068Z" fill="#D2E6FF"/>
<path d="M405.271 94.7352H321.529C320.494 94.7352 319.648 93.8894 319.648 92.8545C319.648 91.8196 320.494 90.9738 321.529 90.9738H405.271C406.305 90.9738 407.151 91.8196 407.151 92.8545C407.151 93.8894 406.305 94.7352 405.271 94.7352Z" fill="#D2E6FF"/>
<path d="M427.789 55.2854H398.362C396.671 55.2854 395.291 53.9055 395.291 52.214C395.291 50.5225 396.671 49.1425 398.362 49.1425H427.789C429.48 49.1425 430.859 50.5113 430.859 52.214C430.859 53.9055 429.48 55.2854 427.789 55.2854Z" fill="white"/>
<path d="M353.615 163.731H320.205C318.976 163.731 317.979 164.727 317.979 165.956V188.791C317.979 190.021 318.976 191.017 320.205 191.017H353.615C354.844 191.017 355.84 190.021 355.84 188.791V165.956C355.84 164.727 354.844 163.731 353.615 163.731Z" fill="white"/>
<path d="M337.149 181.458C336.96 181.458 336.771 181.391 336.615 181.269L318.425 166.246C318.069 165.956 318.025 165.422 318.314 165.066C318.614 164.71 319.137 164.665 319.493 164.955L337.138 179.533L354.327 164.576C354.672 164.276 355.206 164.309 355.507 164.654C355.807 164.999 355.774 165.533 355.429 165.834L337.706 181.258C337.55 181.391 337.35 181.458 337.161 181.458H337.149Z" fill="#6F7FA9"/>
<path d="M318.959 190.394C318.747 190.394 318.547 190.316 318.38 190.16C318.046 189.838 318.035 189.315 318.347 188.981L331.063 175.604C331.375 175.271 331.909 175.259 332.242 175.571C332.576 175.894 332.587 176.417 332.276 176.751L319.559 190.127C319.392 190.294 319.181 190.383 318.959 190.383V190.394Z" fill="#6F7FA9"/>
<path d="M354.872 189.904C354.66 189.904 354.449 189.826 354.282 189.659L341.61 176.951C341.288 176.628 341.288 176.094 341.61 175.771C341.933 175.449 342.467 175.449 342.789 175.771L355.461 188.48C355.784 188.803 355.784 189.337 355.461 189.659C355.295 189.826 355.083 189.904 354.872 189.904Z" fill="#6F7FA9"/>
<path d="M357.586 174.046C363.749 174.046 368.745 169.049 368.745 162.885C368.745 156.72 363.749 151.723 357.586 151.723C351.424 151.723 346.427 156.72 346.427 162.885C346.427 169.049 351.424 174.046 357.586 174.046Z" fill="#FF5F42"/>
<path d="M355.683 162.824L355.659 162.548C355.963 162.684 356.227 162.86 356.451 163.076C356.675 163.292 356.847 163.528 356.967 163.784C357.087 164.04 357.147 164.304 357.147 164.576C357.147 165.032 357.019 165.452 356.763 165.836C356.515 166.212 356.179 166.516 355.755 166.748C355.331 166.972 354.859 167.084 354.339 167.084C353.819 167.084 353.347 166.972 352.923 166.748C352.499 166.516 352.159 166.212 351.903 165.836C351.655 165.452 351.531 165.032 351.531 164.576C351.531 164.208 351.607 163.892 351.759 163.628C351.919 163.356 352.115 163.128 352.347 162.944C352.587 162.76 352.823 162.608 353.055 162.488L352.959 162.824C352.759 162.744 352.563 162.632 352.371 162.488C352.187 162.336 352.035 162.144 351.915 161.912C351.795 161.68 351.735 161.408 351.735 161.096C351.735 160.648 351.851 160.244 352.083 159.884C352.315 159.516 352.627 159.224 353.019 159.008C353.419 158.792 353.859 158.684 354.339 158.684C354.827 158.684 355.263 158.792 355.647 159.008C356.039 159.224 356.351 159.516 356.583 159.884C356.815 160.244 356.931 160.648 356.931 161.096C356.931 161.44 356.863 161.728 356.727 161.96C356.591 162.192 356.427 162.376 356.235 162.512C356.043 162.648 355.859 162.752 355.683 162.824ZM353.175 161.12C353.175 161.336 353.223 161.528 353.319 161.696C353.423 161.864 353.563 162 353.739 162.104C353.915 162.2 354.115 162.248 354.339 162.248C354.563 162.248 354.759 162.2 354.927 162.104C355.103 162 355.239 161.864 355.335 161.696C355.439 161.528 355.491 161.336 355.491 161.12C355.491 160.8 355.379 160.536 355.155 160.328C354.939 160.112 354.667 160.004 354.339 160.004C354.003 160.004 353.723 160.112 353.499 160.328C353.283 160.536 353.175 160.8 353.175 161.12ZM354.339 165.764C354.723 165.764 355.047 165.648 355.311 165.416C355.575 165.176 355.707 164.888 355.707 164.552C355.707 164.32 355.647 164.112 355.527 163.928C355.407 163.744 355.243 163.6 355.035 163.496C354.827 163.384 354.595 163.328 354.339 163.328C354.083 163.328 353.851 163.384 353.643 163.496C353.435 163.6 353.271 163.744 353.151 163.928C353.031 164.112 352.971 164.32 352.971 164.552C352.971 164.888 353.103 165.176 353.367 165.416C353.631 165.648 353.955 165.764 354.339 165.764ZM360.517 167.204C360.221 167.204 359.905 167.16 359.569 167.072C359.233 166.976 358.957 166.84 358.741 166.664C358.637 166.576 358.553 166.464 358.489 166.328C358.433 166.184 358.405 166.048 358.405 165.92C358.405 165.784 358.461 165.656 358.573 165.536C358.693 165.416 358.861 165.356 359.077 165.356C359.221 165.356 359.401 165.432 359.617 165.584C359.745 165.664 359.885 165.736 360.037 165.8C360.189 165.864 360.345 165.896 360.505 165.896C360.889 165.896 361.221 165.828 361.501 165.692C361.781 165.548 361.997 165.352 362.149 165.104C362.301 164.856 362.377 164.564 362.377 164.228C362.377 163.924 362.305 163.664 362.161 163.448C362.025 163.232 361.841 163.064 361.609 162.944C361.385 162.824 361.141 162.764 360.877 162.764C360.629 162.764 360.413 162.804 360.229 162.884C360.045 162.964 359.877 163.048 359.725 163.136C359.573 163.216 359.421 163.256 359.269 163.256C359.005 163.256 358.809 163.2 358.681 163.088C358.553 162.968 358.473 162.828 358.441 162.668C358.409 162.508 358.401 162.364 358.417 162.236L358.789 159.32C358.821 159.152 358.901 159.016 359.029 158.912C359.165 158.8 359.325 158.744 359.509 158.744H362.977C363.169 158.744 363.329 158.808 363.457 158.936C363.585 159.064 363.649 159.224 363.649 159.416C363.649 159.6 363.585 159.756 363.457 159.884C363.329 160.004 363.169 160.064 362.977 160.064H359.881L360.013 159.956L359.689 162.392L359.533 161.936C359.581 161.856 359.685 161.78 359.845 161.708C360.005 161.636 360.189 161.576 360.397 161.528C360.605 161.472 360.809 161.444 361.009 161.444C361.545 161.444 362.025 161.568 362.449 161.816C362.873 162.056 363.205 162.388 363.445 162.812C363.693 163.228 363.817 163.7 363.817 164.228C363.817 164.828 363.681 165.352 363.409 165.8C363.137 166.248 362.753 166.596 362.257 166.844C361.769 167.084 361.189 167.204 360.517 167.204Z" fill="white"/>
<path d="M469.71 139.671H404.492C402.034 139.671 400.042 141.664 400.042 144.123V154.327C400.042 156.786 402.034 158.779 404.492 158.779H469.71C472.167 158.779 474.16 156.786 474.16 154.327V144.123C474.16 141.664 472.167 139.671 469.71 139.671Z" fill="#223A7A"/>
<path d="M409.198 154.238C408.909 154.238 408.675 154.138 408.497 153.927C408.319 153.715 408.241 153.459 408.263 153.148L408.541 150.677C408.564 150.61 408.541 150.577 408.508 150.555C408.464 150.532 408.419 150.555 408.352 150.588L406.316 152.057C406.06 152.246 405.805 152.313 405.538 152.257C405.271 152.202 405.048 152.046 404.881 151.768C404.692 151.434 404.659 151.144 404.77 150.889C404.881 150.633 405.081 150.466 405.348 150.354L407.629 149.319C407.696 149.297 407.718 149.264 407.718 149.23C407.718 149.197 407.685 149.153 407.629 149.141L405.348 148.106C405.059 147.984 404.87 147.784 404.781 147.517C404.703 147.25 404.725 146.971 404.87 146.704C405.037 146.437 405.259 146.27 405.526 146.215C405.793 146.159 406.06 146.215 406.305 146.382L408.341 147.884C408.408 147.928 408.452 147.94 408.497 147.917C408.541 147.895 408.553 147.851 408.53 147.795L408.252 145.324C408.23 145.013 408.319 144.746 408.508 144.545C408.697 144.334 408.942 144.234 409.265 144.234C409.554 144.234 409.799 144.334 409.988 144.545C410.177 144.757 410.244 145.013 410.21 145.324L409.932 147.795C409.91 147.862 409.932 147.895 409.965 147.917C410.01 147.94 410.054 147.917 410.121 147.884L412.157 146.415C412.402 146.226 412.669 146.159 412.958 146.215C413.236 146.27 413.448 146.426 413.604 146.704C413.793 147.038 413.826 147.327 413.715 147.583C413.604 147.828 413.403 148.006 413.136 148.118L410.856 149.153C410.789 149.175 410.767 149.208 410.767 149.242C410.767 149.275 410.8 149.319 410.856 149.331L413.136 150.366C413.426 150.488 413.626 150.688 413.715 150.955C413.804 151.222 413.77 151.501 413.604 151.768C413.459 152.035 413.248 152.202 412.958 152.257C412.68 152.313 412.413 152.257 412.157 152.09L410.121 150.588C410.054 150.544 410.01 150.532 409.965 150.555C409.921 150.577 409.91 150.621 409.932 150.677L410.21 153.148C410.255 153.459 410.177 153.726 409.977 153.927C409.776 154.138 409.52 154.238 409.209 154.238H409.198Z" fill="white"/>
<path d="M422.682 154.238C422.393 154.238 422.159 154.138 421.981 153.927C421.803 153.715 421.725 153.459 421.747 153.148L422.026 150.677C422.048 150.61 422.026 150.577 421.992 150.555C421.948 150.532 421.903 150.555 421.836 150.588L419.8 152.057C419.545 152.246 419.289 152.313 419.022 152.257C418.755 152.202 418.532 152.046 418.365 151.768C418.176 151.434 418.143 151.144 418.254 150.889C418.365 150.633 418.565 150.466 418.833 150.354L421.113 149.319C421.18 149.297 421.202 149.264 421.202 149.23C421.202 149.197 421.169 149.153 421.113 149.141L418.833 148.106C418.543 147.984 418.354 147.784 418.265 147.517C418.187 147.25 418.209 146.971 418.354 146.704C418.521 146.437 418.744 146.27 419.011 146.215C419.278 146.159 419.545 146.215 419.789 146.382L421.825 147.884C421.892 147.928 421.937 147.94 421.981 147.917C422.026 147.895 422.037 147.851 422.014 147.795L421.736 145.324C421.714 145.013 421.803 144.746 421.992 144.545C422.181 144.334 422.426 144.234 422.749 144.234C423.038 144.234 423.283 144.334 423.472 144.545C423.661 144.757 423.728 145.013 423.694 145.324L423.416 147.795C423.394 147.862 423.405 147.895 423.45 147.917C423.494 147.94 423.539 147.917 423.605 147.884L425.641 146.415C425.886 146.226 426.153 146.159 426.442 146.215C426.721 146.27 426.932 146.426 427.088 146.704C427.277 147.038 427.31 147.327 427.199 147.583C427.088 147.828 426.887 148.006 426.62 148.118L424.34 149.153C424.273 149.175 424.251 149.208 424.251 149.242C424.251 149.275 424.284 149.319 424.34 149.331L426.62 150.366C426.91 150.488 427.11 150.688 427.199 150.955C427.288 151.222 427.255 151.501 427.088 151.768C426.943 152.035 426.732 152.202 426.442 152.257C426.164 152.313 425.897 152.257 425.641 152.09L423.605 150.588C423.539 150.544 423.494 150.532 423.45 150.555C423.405 150.577 423.394 150.621 423.416 150.677L423.694 153.148C423.739 153.459 423.661 153.726 423.461 153.927C423.26 154.138 423.005 154.238 422.693 154.238H422.682Z" fill="white"/>
<path d="M436.177 154.238C435.888 154.238 435.654 154.138 435.476 153.927C435.298 153.715 435.221 153.459 435.243 153.148L435.521 150.677C435.543 150.61 435.521 150.577 435.488 150.555C435.443 150.532 435.399 150.555 435.332 150.588L433.296 152.057C433.04 152.246 432.784 152.313 432.517 152.257C432.25 152.202 432.028 152.046 431.861 151.768C431.671 151.434 431.638 151.144 431.749 150.889C431.861 150.633 432.061 150.466 432.328 150.354L434.609 149.319C434.675 149.297 434.698 149.264 434.698 149.23C434.698 149.197 434.664 149.153 434.609 149.141L432.328 148.106C432.039 147.984 431.849 147.784 431.76 147.517C431.683 147.25 431.705 146.971 431.849 146.704C432.016 146.437 432.239 146.27 432.506 146.215C432.773 146.159 433.04 146.215 433.285 146.382L435.321 147.884C435.387 147.928 435.432 147.94 435.476 147.917C435.521 147.895 435.532 147.851 435.51 147.795L435.232 145.324C435.209 145.013 435.298 144.746 435.488 144.545C435.677 144.334 435.921 144.234 436.244 144.234C436.533 144.234 436.778 144.334 436.967 144.545C437.156 144.757 437.223 145.013 437.19 145.324L436.912 147.795C436.889 147.862 436.9 147.895 436.945 147.917C436.989 147.94 437.034 147.917 437.101 147.884L439.137 146.415C439.381 146.226 439.648 146.159 439.938 146.215C440.216 146.27 440.427 146.426 440.583 146.704C440.772 147.038 440.806 147.327 440.694 147.583C440.583 147.828 440.383 148.006 440.116 148.118L437.835 149.153C437.768 149.175 437.746 149.208 437.746 149.242C437.746 149.275 437.779 149.319 437.835 149.331L440.116 150.366C440.405 150.488 440.605 150.688 440.694 150.955C440.783 151.222 440.75 151.501 440.583 151.768C440.438 152.035 440.227 152.202 439.938 152.257C439.66 152.313 439.393 152.257 439.137 152.09L437.101 150.588C437.034 150.544 436.989 150.532 436.945 150.555C436.9 150.577 436.889 150.621 436.912 150.677L437.19 153.148C437.234 153.459 437.156 153.726 436.956 153.927C436.756 154.138 436.5 154.238 436.188 154.238H436.177Z" fill="white"/>
<path d="M449.661 154.238C449.372 154.238 449.139 154.138 448.961 153.927C448.783 153.715 448.705 153.459 448.727 153.148L449.005 150.677C449.027 150.61 449.005 150.577 448.972 150.555C448.927 150.532 448.883 150.555 448.816 150.588L446.78 152.057C446.524 152.246 446.268 152.313 446.001 152.257C445.734 152.202 445.512 152.046 445.345 151.768C445.156 151.434 445.122 151.144 445.233 150.889C445.345 150.633 445.545 150.466 445.812 150.354L448.093 149.319C448.16 149.297 448.182 149.264 448.182 149.23C448.182 149.197 448.148 149.153 448.093 149.141L445.812 148.106C445.523 147.984 445.334 147.784 445.245 147.517C445.167 147.25 445.189 146.971 445.334 146.704C445.5 146.437 445.723 146.27 445.99 146.215C446.257 146.159 446.524 146.215 446.769 146.382L448.805 147.884C448.872 147.928 448.916 147.94 448.961 147.917C449.005 147.895 449.016 147.851 448.994 147.795L448.716 145.324C448.694 145.013 448.783 144.746 448.972 144.545C449.161 144.334 449.406 144.234 449.728 144.234C450.017 144.234 450.262 144.334 450.451 144.545C450.641 144.757 450.707 145.013 450.674 145.324L450.396 147.795C450.373 147.862 450.385 147.895 450.429 147.917C450.474 147.94 450.518 147.917 450.585 147.884L452.621 146.415C452.866 146.226 453.133 146.159 453.422 146.215C453.7 146.27 453.911 146.426 454.067 146.704C454.256 147.038 454.29 147.327 454.178 147.583C454.067 147.828 453.867 148.006 453.6 148.118L451.319 149.153C451.252 149.175 451.23 149.208 451.23 149.242C451.23 149.275 451.264 149.319 451.319 149.331L453.6 150.366C453.889 150.488 454.089 150.688 454.178 150.955C454.267 151.222 454.234 151.501 454.067 151.768C453.923 152.035 453.711 152.202 453.422 152.257C453.144 152.313 452.877 152.257 452.621 152.09L450.585 150.588C450.518 150.544 450.474 150.532 450.429 150.555C450.385 150.577 450.373 150.621 450.396 150.677L450.674 153.148C450.718 153.459 450.64 153.726 450.44 153.927C450.24 154.138 449.984 154.238 449.673 154.238H449.661Z" fill="white"/>
<path d="M463.157 154.238C462.867 154.238 462.634 154.138 462.456 153.927C462.278 153.715 462.2 153.459 462.222 153.148L462.5 150.677C462.523 150.61 462.5 150.577 462.467 150.555C462.422 150.532 462.378 150.555 462.311 150.588L460.275 152.057C460.019 152.246 459.763 152.313 459.496 152.257C459.229 152.202 459.007 152.046 458.84 151.768C458.651 151.434 458.617 151.144 458.729 150.889C458.84 150.633 459.04 150.466 459.307 150.354L461.588 149.319C461.655 149.297 461.677 149.264 461.677 149.23C461.677 149.197 461.644 149.153 461.588 149.141L459.307 148.106C459.018 147.984 458.829 147.784 458.74 147.517C458.662 147.25 458.684 146.971 458.829 146.704C458.996 146.437 459.218 146.27 459.485 146.215C459.752 146.159 460.019 146.215 460.264 146.382L462.3 147.884C462.367 147.928 462.411 147.94 462.456 147.917C462.5 147.895 462.511 147.851 462.489 147.795L462.211 145.324C462.189 145.013 462.278 144.746 462.467 144.545C462.656 144.334 462.901 144.234 463.223 144.234C463.513 144.234 463.757 144.334 463.947 144.545C464.136 144.757 464.202 145.013 464.169 145.324L463.891 147.795C463.869 147.862 463.88 147.895 463.924 147.917C463.969 147.94 464.013 147.917 464.08 147.884L466.116 146.415C466.361 146.226 466.628 146.159 466.917 146.215C467.195 146.27 467.407 146.426 467.562 146.704C467.752 147.038 467.785 147.327 467.674 147.583C467.562 147.828 467.362 148.006 467.095 148.118L464.814 149.153C464.748 149.175 464.725 149.208 464.725 149.242C464.725 149.275 464.759 149.319 464.814 149.331L467.095 150.366C467.384 150.488 467.585 150.688 467.674 150.955C467.763 151.222 467.729 151.501 467.562 151.768C467.418 152.035 467.206 152.202 466.917 152.257C466.639 152.313 466.372 152.257 466.116 152.09L464.08 150.588C464.013 150.544 463.969 150.532 463.924 150.555C463.88 150.577 463.869 150.621 463.891 150.677L464.169 153.148C464.214 153.459 464.136 153.726 463.935 153.927C463.735 154.138 463.479 154.238 463.168 154.238H463.157Z" fill="#67ACFF"/>
</g>
<defs>
<clipPath id="clip0_1007_9401">
<rect width="488" height="367" fill="white"/>
</clipPath>
</defs>
</svg>
