<svg width="530" height="360" viewBox="0 0 530 360" fill="none" xmlns="http://www.w3.org/2000/svg">
<g clip-path="url(#clip0_54_358)">
<path fill-rule="evenodd" clip-rule="evenodd" d="M154.85 25.4973H234.669C240.467 25.4973 245.21 30.4602 245.21 36.5265V82.0133V85.378V114.332C245.21 114.841 244.933 115.276 244.484 115.47C244.035 115.664 243.545 115.562 243.201 115.203L225.238 96.408H154.85C149.051 96.408 144.308 91.4451 144.308 85.378V36.5265C144.308 30.4602 149.051 25.4973 154.85 25.4973Z" fill="#D3EBFA"/>
<path fill-rule="evenodd" clip-rule="evenodd" d="M81.1362 318.65C81.1362 318.65 41.9487 269.755 87.6673 227.412C87.6673 227.412 46.6141 179.546 72.7394 125.238C98.8639 70.9295 149.247 75.5326 189.368 86.5775C229.488 97.6233 281.738 92.1008 321.857 48.838C361.978 5.57528 408.629 14.7799 426.357 35.0303C444.084 55.2814 448.749 96.7031 429.155 138.125C409.562 179.547 420.758 206.24 437.553 226.491C454.347 246.742 456.214 303.111 416.092 318.65H81.1362ZM92.9372 335.971C92.9372 335.971 51.0633 309.609 61.2196 264.083C61.2196 264.083 61.5167 262.918 60.5439 262.73C59.5702 262.54 38.7639 297.561 67.8371 329.617L92.9372 335.971Z" fill="#D3EBFA"/>
<path fill-rule="evenodd" clip-rule="evenodd" d="M314.766 212.428C363.064 207.664 354.062 259.891 322.917 292.816C317.209 298.85 308.107 307.107 296.907 316.874H199.944C237.458 261.78 281.595 215.701 314.766 212.428Z" fill="#99C8EC"/>
<path fill-rule="evenodd" clip-rule="evenodd" d="M236.512 316.874C284.038 267.361 327.125 234.583 327.39 234.38C328.26 233.711 329.481 233.91 330.119 234.819C330.757 235.73 330.567 237.009 329.697 237.675C329.44 237.873 288.176 269.262 242.007 316.873H236.512V316.874Z" fill="#89BBE6"/>
<path fill-rule="evenodd" clip-rule="evenodd" d="M281.418 93.4394C301.241 86.9073 301.95 109.63 291.729 126.348C282.038 142.198 239.49 191.403 229.856 216.709L224.634 213.798C227.454 176.037 256.041 101.801 281.418 93.4394Z" fill="#99C8EC"/>
<path fill-rule="evenodd" clip-rule="evenodd" d="M226.553 214.869C238.7 159.641 288.42 101.647 288.588 101.449C288.896 101.088 289.425 101.056 289.77 101.377C290.114 101.699 290.145 102.253 289.838 102.614C289.67 102.811 239.892 160.871 228.064 215.712L226.553 214.869Z" fill="#89BBE6"/>
<path fill-rule="evenodd" clip-rule="evenodd" d="M292.435 127.721C312.081 125.107 309.07 146.543 296.778 160.41C286.593 171.901 248.739 202.844 230.599 225.163L222.275 221.878C234.427 185.933 269.243 130.806 292.435 127.721Z" fill="#B6DAF4"/>
<path fill-rule="evenodd" clip-rule="evenodd" d="M225.316 223.078C248.123 176.978 297.684 136.649 297.863 136.502C298.21 136.219 298.71 136.283 298.982 136.645C299.254 137.007 299.193 137.531 298.846 137.816C298.669 137.961 249.427 178.03 226.795 223.661L225.316 223.078Z" fill="#99C8EC"/>
<path fill-rule="evenodd" clip-rule="evenodd" d="M40.3714 316.874H486.274C489.198 316.874 491.592 319.378 491.592 322.438V322.439C491.592 325.498 489.199 328.003 486.274 328.003H468.332C466.706 328.003 465.377 329.395 465.377 331.095C465.377 332.796 466.707 334.187 468.332 334.187H474.895C476.926 334.187 478.59 335.926 478.59 338.05C478.59 340.175 476.927 341.915 474.895 341.915H52.3372C50.3052 341.915 48.6439 340.176 48.6439 338.05C48.6439 335.925 50.306 334.187 52.3372 334.187H57.5073C59.1322 334.187 60.4615 332.795 60.4615 331.095C60.4615 329.394 59.1322 328.003 57.5073 328.003H40.3714C37.4465 328.003 35.0532 325.499 35.0532 322.439V322.438C35.0532 319.378 37.4489 316.874 40.3714 316.874ZM43.1411 341.915C45.0907 341.915 46.6863 340.245 46.6863 338.204V337.895C46.6863 335.854 45.0907 334.186 43.1411 334.186C41.1914 334.186 39.5951 335.854 39.5951 337.895V338.204C39.5951 340.246 41.1914 341.915 43.1411 341.915Z" fill="#170839"/>
<path fill-rule="evenodd" clip-rule="evenodd" d="M447.33 174.29C448.847 172.703 450.944 171.72 453.259 171.72C455.573 171.72 457.669 172.703 459.185 174.29C460.703 175.877 461.642 178.071 461.642 180.493C461.642 182.914 460.703 185.108 459.185 186.696C457.669 188.282 455.572 189.265 453.259 189.265C450.943 189.265 448.847 188.282 447.33 186.696C445.814 185.108 444.875 182.915 444.875 180.493C444.876 178.071 445.814 175.878 447.33 174.29ZM449.141 165.596C447.98 165.947 446.879 166.442 445.856 167.06C444.807 167.695 443.84 168.459 442.973 169.334C442.804 169.504 442.552 169.529 442.359 169.412L438.465 167.058L438.443 167.045C438.22 166.918 437.965 166.895 437.733 166.96C437.493 167.027 437.279 167.188 437.145 167.429L437.13 167.456L434.389 172.424C434.257 172.663 434.231 172.94 434.296 173.191C434.359 173.442 434.514 173.666 434.743 173.805L434.77 173.823L438.632 176.156C438.836 176.279 438.929 176.524 438.876 176.75H438.877C438.734 177.352 438.625 177.97 438.552 178.604C438.48 179.221 438.442 179.851 438.442 180.494C438.442 181.135 438.48 181.766 438.552 182.383C438.625 183.016 438.735 183.636 438.878 184.236C438.936 184.486 438.817 184.737 438.605 184.847L434.743 187.18L434.743 187.181C434.514 187.319 434.359 187.545 434.296 187.795C434.231 188.047 434.257 188.323 434.389 188.562L437.145 193.557C437.279 193.797 437.493 193.958 437.733 194.026C437.973 194.093 438.236 194.065 438.464 193.927L438.494 193.911L442.362 191.574C442.564 191.453 442.813 191.491 442.974 191.652C443.84 192.526 444.807 193.292 445.857 193.925C446.886 194.548 447.994 195.045 449.164 195.395C449.391 195.463 449.539 195.679 449.539 195.913V200.616C449.539 200.893 449.648 201.145 449.823 201.328C449.997 201.511 450.237 201.625 450.502 201.625H456.017C456.281 201.625 456.522 201.51 456.697 201.328C456.872 201.145 456.98 200.893 456.98 200.616V195.913C456.98 195.659 457.149 195.446 457.377 195.388C458.538 195.037 459.638 194.543 460.662 193.924C461.71 193.29 462.678 192.524 463.544 191.651C463.721 191.473 463.988 191.454 464.184 191.591L468.053 193.927C468.283 194.065 468.545 194.092 468.786 194.025C469.026 193.958 469.24 193.796 469.372 193.556L469.389 193.529L472.13 188.56C472.263 188.321 472.288 188.046 472.223 187.794C472.159 187.542 472.004 187.318 471.777 187.18L467.885 184.829C467.681 184.707 467.589 184.462 467.641 184.234C467.783 183.633 467.893 183.015 467.966 182.381C468.038 181.765 468.075 181.134 468.075 180.492C468.075 179.851 468.038 179.22 467.966 178.601C467.893 177.968 467.783 177.351 467.641 176.749C467.582 176.498 467.7 176.247 467.913 176.138L471.777 173.803C472.003 173.666 472.158 173.441 472.223 173.189C472.288 172.938 472.262 172.663 472.129 172.424L472.114 172.394L469.373 167.427L469.372 167.428C469.24 167.188 469.025 167.026 468.786 166.959C468.545 166.892 468.283 166.918 468.054 167.056V167.057L464.159 169.41C463.95 169.536 463.695 169.492 463.534 169.321C462.67 168.451 461.705 167.691 460.662 167.058C459.633 166.436 458.524 165.939 457.355 165.588C457.129 165.52 456.98 165.304 456.98 165.07V160.368C456.98 160.091 456.871 159.839 456.697 159.656C456.521 159.473 456.281 159.36 456.017 159.36H450.502C450.237 159.36 449.996 159.473 449.823 159.656C449.648 159.839 449.539 160.091 449.539 160.368V165.07C449.537 165.326 449.37 165.539 449.141 165.596Z" fill="#D3EBFA"/>
<path fill-rule="evenodd" clip-rule="evenodd" d="M470.228 104.826C471.374 103.626 472.749 102.657 474.278 101.994C475.75 101.356 477.36 101.004 479.047 101.004C480.732 101.004 482.342 101.356 483.813 101.994C485.343 102.657 486.718 103.626 487.864 104.826C489.011 106.026 489.939 107.465 490.571 109.066C491.182 110.605 491.517 112.29 491.517 114.054C491.517 115.818 491.181 117.503 490.571 119.042C489.938 120.644 489.011 122.081 487.864 123.282C486.719 124.482 485.344 125.451 483.816 126.113C482.346 126.753 480.733 127.104 479.048 127.104C477.361 127.104 475.751 126.753 474.279 126.114C472.749 125.452 471.375 124.482 470.228 123.282C469.081 122.081 468.155 120.643 467.521 119.042C466.911 117.503 466.576 115.818 466.576 114.054C466.576 112.29 466.911 110.605 467.521 109.066C468.154 107.465 469.08 106.026 470.228 104.826ZM474.716 103.108C473.335 103.706 472.09 104.587 471.044 105.681C469.998 106.775 469.157 108.08 468.586 109.523C468.034 110.916 467.73 112.446 467.73 114.053C467.73 115.66 468.034 117.191 468.586 118.584C469.157 120.028 469.999 121.332 471.044 122.426C472.089 123.52 473.336 124.401 474.716 124.999C476.047 125.576 477.51 125.895 479.047 125.895C480.581 125.895 482.042 125.576 483.373 124.999C484.756 124.402 486.003 123.52 487.047 122.426C488.094 121.332 488.935 120.028 489.507 118.584C490.059 117.191 490.363 115.66 490.363 114.053C490.363 112.446 490.059 110.915 489.507 109.523C488.935 108.079 488.094 106.775 487.047 105.681C486.003 104.587 484.756 103.706 483.375 103.108C482.045 102.531 480.583 102.212 479.047 102.212C477.509 102.212 476.047 102.531 474.716 103.108ZM473.337 93.5043C472.558 93.7405 471.79 94.0282 471.04 94.3622C470.278 94.7013 469.541 95.0867 468.832 95.5161C468.113 95.9513 467.418 96.4338 466.753 96.9585C466.084 97.4857 465.45 98.0519 464.853 98.6545C464.641 98.8676 464.378 98.9919 464.107 99.0267C463.83 99.0624 463.543 99.0027 463.295 98.8518C461.462 97.7452 459.537 96.6501 457.743 95.4979C457.656 95.4507 457.565 95.4216 457.474 95.4109C457.37 95.3992 457.265 95.4075 457.167 95.4349C457.065 95.4639 456.969 95.512 456.887 95.5783C456.807 95.6421 456.738 95.7234 456.685 95.8187C455.35 97.9325 454.009 100.663 452.773 102.905C452.72 103.001 452.688 103.103 452.675 103.206C452.661 103.314 452.671 103.427 452.699 103.536C452.725 103.642 452.771 103.743 452.834 103.83C452.895 103.913 452.974 103.986 453.066 104.041C454.713 105.182 456.836 106.321 458.582 107.378C458.838 107.531 459.026 107.761 459.132 108.023C459.17 108.115 459.197 108.211 459.214 108.308L459.328 108.347L459.2 108.886C459.101 109.31 459.013 109.733 458.938 110.154C458.867 110.565 458.805 110.994 458.753 111.442C458.702 111.878 458.664 112.311 458.641 112.739C458.616 113.157 458.603 113.595 458.603 114.051C458.603 114.507 458.616 114.945 458.641 115.363C458.664 115.791 458.702 116.225 458.753 116.662C458.805 117.109 458.869 117.538 458.938 117.949C459.014 118.371 459.102 118.795 459.201 119.218C459.275 119.532 459.24 119.848 459.118 120.119C459 120.39 458.793 120.618 458.528 120.76L453.643 123.712L453.645 123.714L453.066 124.063C452.974 124.118 452.895 124.192 452.834 124.275C452.772 124.361 452.725 124.461 452.699 124.568C452.671 124.678 452.661 124.79 452.675 124.898C452.688 125 452.72 125.103 452.773 125.199L456.39 131.757L456.391 131.756L456.684 132.286C456.735 132.382 456.807 132.463 456.887 132.527C456.968 132.592 457.065 132.641 457.166 132.67C457.27 132.699 457.378 132.708 457.481 132.694C457.577 132.681 457.675 132.647 457.766 132.592C459.516 131.442 461.491 130.344 463.297 129.253C463.554 129.099 463.836 129.045 464.103 129.079C464.38 129.114 464.644 129.242 464.851 129.449L464.852 129.452C465.45 130.054 466.085 130.622 466.753 131.148C467.418 131.672 468.112 132.155 468.831 132.59C469.544 133.021 470.287 133.41 471.054 133.75C471.807 134.085 472.588 134.376 473.394 134.617C473.677 134.701 473.912 134.878 474.078 135.107C474.246 135.34 474.342 135.629 474.342 135.933L474.344 142.604C474.344 142.716 474.365 142.822 474.404 142.917C474.442 143.016 474.503 143.108 474.577 143.186C474.649 143.264 474.738 143.326 474.834 143.368C474.926 143.408 475.026 143.429 475.134 143.429H482.957C483.066 143.429 483.166 143.408 483.257 143.368C483.354 143.326 483.442 143.264 483.515 143.187C483.589 143.108 483.649 143.016 483.688 142.917C483.726 142.822 483.747 142.716 483.747 142.604V135.933C483.747 135.615 483.853 135.321 484.03 135.086C484.211 134.847 484.464 134.671 484.753 134.6C485.533 134.366 486.301 134.078 487.051 133.744C487.813 133.404 488.55 133.019 489.259 132.589C489.978 132.154 490.673 131.672 491.338 131.148C492.006 130.621 492.641 130.054 493.238 129.452C493.459 129.229 493.739 129.103 494.023 129.077C494.315 129.049 494.612 129.123 494.863 129.297L500.321 132.593C500.412 132.648 500.511 132.682 500.61 132.695C500.713 132.709 500.82 132.699 500.925 132.671C501.026 132.642 501.122 132.593 501.205 132.528C501.285 132.464 501.354 132.384 501.407 132.287C502.704 129.921 504.02 127.565 505.319 125.199C505.372 125.104 505.403 125.001 505.416 124.897C505.43 124.79 505.421 124.678 505.392 124.569C505.366 124.461 505.319 124.36 505.258 124.275C505.197 124.189 505.121 124.118 505.031 124.064L499.509 120.729C499.253 120.574 499.066 120.345 498.96 120.083C498.931 120.012 498.907 119.939 498.89 119.863L498.745 119.832L498.891 119.22C498.99 118.796 499.078 118.373 499.153 117.952C499.224 117.541 499.287 117.111 499.339 116.664C499.39 116.227 499.428 115.793 499.452 115.364C499.477 114.947 499.489 114.51 499.489 114.053C499.489 113.597 499.477 113.16 499.452 112.742C499.428 112.315 499.39 111.881 499.339 111.444C499.286 110.992 499.223 110.56 499.153 110.153C499.077 109.733 498.99 109.31 498.891 108.887C498.816 108.571 498.853 108.255 498.974 107.984C499.093 107.713 499.298 107.486 499.56 107.345L505.028 104.041C505.117 103.989 505.195 103.915 505.257 103.831C505.319 103.747 505.365 103.646 505.392 103.537C505.42 103.428 505.429 103.316 505.415 103.209C505.403 103.106 505.371 103.002 505.319 102.907C503.983 100.83 502.645 98.0535 501.407 95.8204C501.354 95.7242 501.284 95.643 501.205 95.58C501.122 95.5136 501.026 95.4656 500.924 95.4366C500.819 95.4075 500.711 95.3992 500.609 95.4125C500.512 95.4249 500.414 95.4598 500.32 95.5153L494.795 98.8526C494.536 99.011 494.243 99.064 493.967 99.0251C493.69 98.9853 493.425 98.8526 493.22 98.6396C492.62 98.0345 491.988 97.47 491.329 96.951C490.673 96.4338 489.98 95.9538 489.256 95.5161C488.545 95.0851 487.802 94.6971 487.035 94.3556C486.281 94.0215 485.501 93.7306 484.695 93.4894C484.413 93.404 484.176 93.2274 484.012 92.9978C483.843 92.7657 483.747 92.4756 483.747 92.173L483.745 85.5016C483.745 85.3897 483.724 85.2836 483.686 85.1883C483.647 85.0888 483.586 84.9976 483.512 84.9189C483.44 84.8409 483.352 84.7788 483.255 84.7365C483.163 84.6967 483.063 84.6743 482.955 84.6743H475.132C475.024 84.6743 474.923 84.6967 474.831 84.7365C474.735 84.7788 474.647 84.8409 474.574 84.9172C474.431 85.0689 474.342 85.2753 474.342 85.5008V92.1722C474.342 92.4913 474.236 92.7856 474.061 93.0185C473.879 93.2589 473.627 93.4338 473.337 93.5043ZM470.587 93.2523C469.783 93.6104 469.004 94.0182 468.254 94.4725C467.489 94.935 466.755 95.444 466.057 95.9953C465.358 96.5482 464.688 97.1458 464.055 97.7858C464.03 97.8098 464 97.8239 463.967 97.8281C463.933 97.8322 463.899 97.8256 463.872 97.8098C462.014 96.6874 460.154 95.57 458.299 94.4418C458.079 94.3166 457.841 94.2412 457.601 94.213C457.355 94.1832 457.105 94.2031 456.869 94.2702C456.624 94.3382 456.392 94.4567 456.186 94.6209C455.99 94.7792 455.819 94.979 455.688 95.216C454.341 97.4973 453.063 99.9684 451.774 102.302C451.644 102.539 451.564 102.796 451.533 103.056C451.499 103.326 451.518 103.595 451.583 103.85C451.648 104.106 451.762 104.349 451.919 104.562C452.069 104.77 452.261 104.949 452.487 105.086C454.264 106.234 456.191 107.324 458.009 108.422C458.037 108.439 458.059 108.466 458.072 108.497C458.085 108.529 458.088 108.565 458.08 108.598L457.954 109.137L457.962 109.139C457.905 109.401 457.854 109.667 457.806 109.937C457.726 110.399 457.659 110.854 457.607 111.3C457.557 111.742 457.516 112.2 457.49 112.669C457.463 113.14 457.448 113.602 457.448 114.052C457.448 114.502 457.462 114.962 457.49 115.434C457.516 115.903 457.557 116.362 457.607 116.804C457.659 117.25 457.726 117.705 457.807 118.167C457.888 118.627 457.98 119.074 458.082 119.508C458.091 119.543 458.087 119.58 458.073 119.612C458.055 119.647 458.032 119.675 458.004 119.689C455.974 120.823 453.915 122.157 451.91 123.37L451.981 123.463L451.92 123.544C451.763 123.758 451.649 124.002 451.584 124.257C451.519 124.511 451.501 124.781 451.534 125.051C451.566 125.31 451.645 125.567 451.777 125.803L455.981 133.421L456.059 133.372C456.101 133.411 456.143 133.45 456.188 133.485C456.394 133.649 456.627 133.767 456.871 133.837C457.112 133.904 457.37 133.924 457.627 133.889C457.869 133.857 458.107 133.776 458.328 133.648C460.167 132.626 462.06 131.393 463.875 130.295C463.902 130.281 463.935 130.275 463.968 130.279C464.002 130.283 464.035 130.298 464.058 130.322C464.692 130.961 465.361 131.56 466.061 132.111C466.758 132.661 467.491 133.17 468.256 133.632C469.011 134.089 469.796 134.499 470.604 134.859C471.409 135.216 472.236 135.524 473.08 135.776C473.112 135.786 473.142 135.807 473.16 135.834C473.18 135.863 473.193 135.898 473.191 135.931V142.602C473.191 142.875 473.245 143.138 473.34 143.379C473.44 143.63 473.585 143.854 473.765 144.04C473.944 144.227 474.159 144.379 474.396 144.482C474.625 144.582 474.876 144.638 475.136 144.638H482.96C483.22 144.638 483.471 144.582 483.702 144.482C483.938 144.378 484.153 144.227 484.334 144.04C484.512 143.854 484.657 143.63 484.756 143.379C484.851 143.138 484.906 142.876 484.906 142.602V135.931C484.906 135.891 484.918 135.856 484.936 135.83C484.955 135.804 484.987 135.784 485.023 135.775L485.048 135.766C485.896 135.51 486.717 135.204 487.505 134.852C488.309 134.494 489.089 134.086 489.839 133.632C490.604 133.169 491.338 132.661 492.035 132.11C492.736 131.558 493.405 130.959 494.039 130.319C494.065 130.293 494.099 130.277 494.129 130.275C494.164 130.272 494.199 130.281 494.229 130.301L499.751 133.636C499.977 133.773 500.221 133.856 500.468 133.889C500.724 133.923 500.982 133.904 501.225 133.836C501.468 133.767 501.703 133.649 501.906 133.484C502.099 133.33 502.267 133.136 502.397 132.906C503.847 130.465 505.218 127.792 506.602 125.286L506.528 125.24C506.541 125.176 506.552 125.111 506.559 125.047C506.593 124.779 506.575 124.509 506.509 124.256C506.444 124 506.33 123.757 506.173 123.543C506.023 123.335 505.831 123.157 505.605 123.02L500.083 119.683C500.055 119.667 500.033 119.639 500.02 119.609C500.007 119.576 500.004 119.539 500.011 119.504L500.156 118.893L500.148 118.892C500.197 118.654 500.242 118.412 500.286 118.167C500.366 117.705 500.434 117.25 500.486 116.804C500.537 116.361 500.577 115.903 500.604 115.433C500.631 114.962 500.645 114.501 500.645 114.051C500.645 113.602 500.631 113.141 500.604 112.67C500.578 112.2 500.537 111.741 500.486 111.296C500.435 110.854 500.368 110.399 500.286 109.933C500.205 109.476 500.113 109.029 500.011 108.596C500.002 108.561 500.007 108.524 500.021 108.489C500.036 108.458 500.061 108.43 500.092 108.414L505.607 105.082C505.834 104.944 506.025 104.766 506.174 104.559C506.331 104.343 506.444 104.1 506.509 103.847C506.574 103.594 506.592 103.324 506.559 103.055C506.53 102.803 506.452 102.552 506.326 102.319C505.013 99.7719 503.505 97.203 502.116 94.6839L502.036 94.7319C501.994 94.6922 501.952 94.6549 501.906 94.6184C501.702 94.4543 501.468 94.3357 501.225 94.2677C500.982 94.1998 500.724 94.1807 500.468 94.2147C500.219 94.247 499.975 94.3299 499.752 94.4642L499.343 94.7096L499.344 94.7145L494.222 97.8073C494.192 97.8256 494.156 97.8322 494.124 97.8272C494.091 97.8231 494.06 97.8073 494.037 97.7825L494.023 97.7684C493.396 97.1367 492.727 96.5407 492.024 95.9861C491.323 95.4341 490.593 94.9284 489.838 94.4717C489.083 94.0149 488.298 93.6046 487.49 93.2448C486.685 92.8875 485.86 92.58 485.015 92.3272C484.982 92.3172 484.954 92.2965 484.935 92.2708C484.914 92.241 484.901 92.2061 484.904 92.173V85.5016C484.904 85.2289 484.85 84.9661 484.754 84.7257C484.654 84.4754 484.509 84.2507 484.329 84.0642C484.15 83.8769 483.936 83.726 483.7 83.6224C483.469 83.5221 483.219 83.4666 482.957 83.4666H475.134C474.873 83.4666 474.622 83.5221 474.393 83.6224C474.156 83.726 473.942 83.8777 473.76 84.0642C473.408 84.4331 473.188 84.9421 473.188 85.5016V92.173C473.188 92.2111 473.176 92.2468 473.157 92.275C473.138 92.3015 473.107 92.3214 473.072 92.3297L473.047 92.3396C472.196 92.5958 471.376 92.9016 470.587 93.2523Z" fill="#D3EBFA"/>
<path fill-rule="evenodd" clip-rule="evenodd" d="M160.183 21.2432H240.003C245.801 21.2432 250.544 26.2061 250.544 32.2731V77.76V81.1247V110.079C250.544 110.588 250.267 111.022 249.818 111.216C249.368 111.411 248.879 111.309 248.535 110.949L230.573 92.1538H160.183C154.386 92.1538 149.642 87.1909 149.642 81.1238V32.2731C149.643 26.2069 154.386 21.2432 160.183 21.2432Z" fill="#3388C9"/>
<path fill-rule="evenodd" clip-rule="evenodd" d="M168.591 78.2193H209.998C211.884 78.2193 213.427 76.6045 213.427 74.6308V41.7373C213.427 39.7636 211.884 38.1488 209.998 38.1488H208.315V36.4785C208.315 35.9347 207.89 35.4912 207.371 35.4912H194.861C194.342 35.4912 193.917 35.9355 193.917 36.4785V38.1488H168.591C166.705 38.1488 165.162 39.7644 165.162 41.7373V74.6308C165.161 76.6045 166.705 78.2193 168.591 78.2193Z" fill="#F9B532"/>
<path fill-rule="evenodd" clip-rule="evenodd" d="M197.487 78.2194H171.322C169.786 78.2194 168.528 76.9039 168.528 75.2957V47.3519C168.528 45.7438 169.786 44.4282 171.322 44.4282H197.487C199.024 44.4282 200.281 45.7438 200.281 47.3519V75.2949C200.281 76.9039 199.024 78.2194 197.487 78.2194Z" fill="white"/>
<path fill-rule="evenodd" clip-rule="evenodd" d="M172.719 78.2192H210.95C212.836 78.2192 215.066 76.6044 215.907 74.6307L227.958 46.323C228.799 44.3493 227.942 42.7345 226.056 42.7345H224.047L224.804 40.958C225.11 40.2377 224.798 39.6475 224.11 39.6475H210.155C209.467 39.6475 208.652 40.2377 208.346 40.958L207.589 42.7345H187.826C185.938 42.7345 183.708 44.3493 182.868 46.323L170.816 74.6307C169.977 76.6052 170.833 78.2192 172.719 78.2192Z" fill="#FCC749"/>
<path fill-rule="evenodd" clip-rule="evenodd" d="M192.113 51.155C194.714 48.4344 198.122 47.0732 201.531 47.0732C204.939 47.0732 208.348 48.4344 210.949 51.155C213.55 53.8764 214.85 57.4425 214.849 61.0095C214.849 64.5756 213.549 68.1418 210.949 70.864C208.348 73.5846 204.939 74.9449 201.531 74.9449C198.123 74.9449 194.714 73.5846 192.113 70.864C189.513 68.1426 188.212 64.5756 188.212 61.0095C188.212 57.4425 189.512 53.8764 192.113 51.155ZM201.531 49.0694C198.61 49.0694 195.689 50.2348 193.461 52.5658C191.233 54.8977 190.119 57.954 190.119 61.0095C190.119 64.065 191.233 67.1205 193.461 69.4523C195.689 71.7833 198.61 72.9497 201.531 72.9497C204.451 72.9497 207.372 71.7833 209.599 69.4523C211.828 67.1205 212.942 64.065 212.942 61.0095C212.942 57.954 211.828 54.8977 209.599 52.5658C207.372 50.234 204.451 49.0694 201.531 49.0694Z" fill="#170839"/>
<path fill-rule="evenodd" clip-rule="evenodd" d="M209.6 70.8633C209.227 70.4729 209.227 69.8412 209.6 69.4516C209.972 69.062 210.576 69.062 210.949 69.4516L214.101 72.75C214.473 73.1388 214.473 73.7713 214.101 74.1617C213.729 74.5513 213.125 74.5513 212.752 74.1617L209.6 70.8633Z" fill="#170839"/>
<path fill-rule="evenodd" clip-rule="evenodd" d="M212.881 75.7075C212.136 74.9283 212.136 73.6642 212.881 72.8849C213.625 72.1057 214.833 72.1057 215.578 72.8849L225.738 83.5162C226.483 84.2954 226.483 85.5595 225.738 86.3388C224.993 87.1188 223.785 87.1188 223.04 86.3388L212.881 75.7075Z" fill="#170839"/>
<path fill-rule="evenodd" clip-rule="evenodd" d="M208.112 54.1217C207.866 53.8647 207.866 53.4469 208.112 53.1899C208.358 52.9321 208.757 52.9321 209.004 53.1899C210.013 54.246 210.777 55.4679 211.294 56.7743C211.828 58.1255 212.096 59.5662 212.096 61.0086H212.098C212.098 62.0389 211.961 63.071 211.686 64.0707C211.591 64.4205 211.242 64.6236 210.908 64.5241C210.574 64.4247 210.381 64.0599 210.475 63.7101C210.717 62.8298 210.838 61.9196 210.838 61.0086H210.84C210.84 59.7386 210.604 58.4678 210.131 57.2742C209.679 56.131 209.007 55.0576 208.112 54.1217ZM209.366 66.2724C209.553 65.9665 209.942 65.8778 210.235 66.0743C210.527 66.2707 210.612 66.6777 210.424 66.9836C210.224 67.3111 210.002 67.6319 209.763 67.9427C209.521 68.2561 209.267 68.552 209.004 68.828C208.758 69.0858 208.359 69.0858 208.112 68.828C207.867 68.5711 207.867 68.1533 208.112 67.8971C208.359 67.6393 208.582 67.3799 208.783 67.1196C208.993 66.8468 209.187 66.5633 209.366 66.2724ZM194.95 67.8963C195.195 68.1524 195.195 68.5702 194.95 68.8272C194.703 69.085 194.305 69.085 194.058 68.8272C193.049 67.7711 192.285 66.5493 191.768 65.2428C191.232 63.8875 190.964 62.446 190.964 61.0086C190.964 60.3379 191.023 59.6607 191.143 58.9859C191.26 58.3253 191.437 57.672 191.671 57.0329C191.795 56.6947 192.157 56.5248 192.481 56.6549C192.804 56.7843 192.967 57.1639 192.842 57.5013C192.637 58.0592 192.483 58.6353 192.379 59.2222C192.276 59.8058 192.224 60.4034 192.224 61.0086C192.224 62.2827 192.459 63.5534 192.93 64.743C193.382 65.8861 194.055 66.9604 194.95 67.8963ZM193.973 55.3178C193.77 55.6121 193.378 55.6793 193.097 55.467C192.815 55.2557 192.751 54.8453 192.954 54.5502C193.122 54.3057 193.298 54.0711 193.481 53.8473L193.511 53.8133C193.701 53.582 193.884 53.3731 194.058 53.1899C194.305 52.9321 194.703 52.9321 194.95 53.1899C195.195 53.4469 195.195 53.8647 194.95 54.1217C194.763 54.3156 194.602 54.498 194.463 54.6655L194.435 54.7019C194.268 54.9067 194.114 55.1123 193.973 55.3178Z" fill="white"/>
<path fill-rule="evenodd" clip-rule="evenodd" d="M208.554 30.2747H238.658C239.042 30.2747 239.356 30.6038 239.356 31.005C239.356 31.407 239.043 31.7361 238.658 31.7361H208.554C208.17 31.7361 207.855 31.407 207.855 31.005C207.855 30.6038 208.17 30.2747 208.554 30.2747Z" fill="#EFEEF8"/>
<path fill-rule="evenodd" clip-rule="evenodd" d="M208.554 34.8596H238.658C239.042 34.8596 239.356 35.1879 239.356 35.5899C239.356 35.992 239.043 36.321 238.658 36.321H208.554C208.17 36.321 207.855 35.992 207.855 35.5899C207.855 35.1887 208.17 34.8596 208.554 34.8596Z" fill="#EFEEF8"/>
<path fill-rule="evenodd" clip-rule="evenodd" d="M232.973 39.9094H238.657C239.041 39.9094 239.356 40.2377 239.356 40.6406C239.356 41.0426 239.042 41.3717 238.657 41.3717H232.973C232.589 41.3717 232.275 41.0426 232.275 40.6406C232.275 40.2385 232.589 39.9094 232.973 39.9094Z" fill="#EFEEF8"/>
<path fill-rule="evenodd" clip-rule="evenodd" d="M232.973 45.093H238.657C239.041 45.093 239.356 45.4213 239.356 45.8233C239.356 46.2254 239.042 46.5545 238.657 46.5545H232.973C232.589 46.5545 232.275 46.2262 232.275 45.8233C232.275 45.4221 232.589 45.093 232.973 45.093Z" fill="#EFEEF8"/>
<path fill-rule="evenodd" clip-rule="evenodd" d="M232.973 50.2764H238.657C239.041 50.2764 239.356 50.6055 239.356 51.0075C239.356 51.4095 239.042 51.7386 238.657 51.7386H232.973C232.589 51.7386 232.275 51.4095 232.275 51.0075C232.275 50.6055 232.589 50.2764 232.973 50.2764Z" fill="#EFEEF8"/>
<path fill-rule="evenodd" clip-rule="evenodd" d="M232.973 55.4597H238.657C239.041 55.4597 239.356 55.7888 239.356 56.1908C239.356 56.5929 239.042 56.9212 238.657 56.9212H232.973C232.589 56.9212 232.275 56.5929 232.275 56.1908C232.275 55.7888 232.589 55.4597 232.973 55.4597Z" fill="#EFEEF8"/>
<path fill-rule="evenodd" clip-rule="evenodd" d="M232.973 60.6431H238.657C239.041 60.6431 239.356 60.9713 239.356 61.3734C239.356 61.7754 239.042 62.1037 238.657 62.1037H232.973C232.589 62.1037 232.275 61.7754 232.275 61.3734C232.275 60.9713 232.589 60.6431 232.973 60.6431Z" fill="#EFEEF8"/>
<path fill-rule="evenodd" clip-rule="evenodd" d="M232.973 65.8257H238.657C239.041 65.8257 239.356 66.154 239.356 66.556C239.356 66.958 239.042 67.2871 238.657 67.2871H232.973C232.589 67.2871 232.275 66.958 232.275 66.556C232.275 66.1548 232.589 65.8257 232.973 65.8257Z" fill="#EFEEF8"/>
<path fill-rule="evenodd" clip-rule="evenodd" d="M224.239 71.009H238.657C239.041 71.009 239.356 71.3381 239.356 71.7402C239.356 72.1414 239.042 72.4713 238.657 72.4713H224.239C223.856 72.4713 223.542 72.1422 223.542 71.741V71.7393C223.542 71.3373 223.856 71.009 224.239 71.009Z" fill="#EFEEF8"/>
<path fill-rule="evenodd" clip-rule="evenodd" d="M225.669 65.8257H229.925C230.309 65.8257 230.624 66.154 230.624 66.556C230.624 66.958 230.309 67.2871 229.925 67.2871H225.669C225.285 67.2871 224.97 66.958 224.97 66.556C224.97 66.1548 225.285 65.8257 225.669 65.8257Z" fill="#EFEEF8"/>
<path fill-rule="evenodd" clip-rule="evenodd" d="M227.575 60.6431H229.719C230.103 60.6431 230.417 60.9713 230.417 61.3734C230.417 61.7754 230.103 62.1037 229.719 62.1037H227.575C227.191 62.1037 226.877 61.7754 226.877 61.3734C226.877 60.9713 227.191 60.6431 227.575 60.6431Z" fill="#EFEEF8"/>
<path fill-rule="evenodd" clip-rule="evenodd" d="M229.069 55.4597H230.637C231.022 55.4597 231.337 55.7888 231.337 56.1908C231.337 56.5929 231.022 56.9212 230.637 56.9212H229.069C228.684 56.9212 228.37 56.5929 228.37 56.1908C228.37 55.7888 228.684 55.4597 229.069 55.4597Z" fill="#EFEEF8"/>
<path fill-rule="evenodd" clip-rule="evenodd" d="M169.984 111.541H173.353C173.969 111.541 174.474 112.069 174.474 112.714V116.238C174.474 116.883 173.969 117.413 173.353 117.413H169.984C169.367 117.413 168.862 116.883 168.862 116.238V112.714C168.862 112.068 169.367 111.541 169.984 111.541Z" fill="#80BBE7"/>
<path fill-rule="evenodd" clip-rule="evenodd" d="M181.488 111.541H184.856C185.472 111.541 185.977 112.069 185.977 112.714V116.238C185.977 116.883 185.472 117.413 184.856 117.413H181.488C180.87 117.413 180.367 116.883 180.367 116.238V112.714C180.367 112.068 180.871 111.541 181.488 111.541Z" fill="white"/>
<path fill-rule="evenodd" clip-rule="evenodd" d="M192.992 111.541H196.359C196.977 111.541 197.481 112.069 197.481 112.714V116.238C197.481 116.883 196.977 117.413 196.359 117.413H192.992C192.375 117.413 191.869 116.883 191.869 116.238V112.714C191.87 112.068 192.375 111.541 192.992 111.541Z" fill="#80BBE7"/>
<path fill-rule="evenodd" clip-rule="evenodd" d="M204.495 111.541H207.864C208.481 111.541 208.985 112.069 208.985 112.714V116.238C208.985 116.883 208.481 117.413 207.864 117.413H204.495C203.878 117.413 203.374 116.883 203.374 116.238V112.714C203.374 112.068 203.879 111.541 204.495 111.541Z" fill="#80BBE7"/>
<path fill-rule="evenodd" clip-rule="evenodd" d="M80.8951 59.7271C80.4704 59.7271 80.125 59.2115 80.125 58.5765C80.125 57.9415 80.4704 57.4268 80.8951 57.4268H116.942C117.367 57.4268 117.711 57.9424 117.711 58.5765C117.711 59.2107 117.366 59.7271 116.942 59.7271H80.8951ZM76.0086 57.4268C76.434 57.4268 76.7779 57.9424 76.7779 58.5765C76.7779 59.2107 76.4332 59.7271 76.0086 59.7271H73.0061C72.5806 59.7271 72.2368 59.2115 72.2368 58.5765C72.2368 57.9415 72.5814 57.4268 73.0061 57.4268H76.0086Z" fill="#80BBE7"/>
<path fill-rule="evenodd" clip-rule="evenodd" d="M123.98 103.011C123.98 102.742 124.188 102.525 124.445 102.525C124.701 102.525 124.91 102.743 124.91 103.011V105.199C124.91 105.468 124.701 105.686 124.445 105.686C124.187 105.686 123.98 105.468 123.98 105.199V103.011ZM120.811 104.788C120.628 104.598 120.628 104.29 120.811 104.1C120.992 103.909 121.287 103.909 121.468 104.1L122.947 105.648C123.129 105.837 123.129 106.146 122.947 106.336C122.766 106.525 122.471 106.525 122.289 106.336L120.811 104.788ZM119.77 108.388C119.514 108.388 119.306 108.17 119.306 107.902C119.306 107.634 119.514 107.416 119.77 107.416H121.862C122.119 107.416 122.326 107.634 122.326 107.902C122.326 108.171 122.119 108.388 121.862 108.388H119.77ZM121.468 111.704C121.287 111.894 120.992 111.894 120.811 111.704C120.628 111.514 120.628 111.206 120.811 111.017L122.289 109.469C122.471 109.28 122.766 109.28 122.947 109.469C123.129 109.66 123.129 109.967 122.947 110.158L121.468 111.704ZM124.91 112.792C124.91 113.061 124.701 113.279 124.445 113.279C124.187 113.279 123.98 113.061 123.98 112.792V110.604C123.98 110.335 124.188 110.117 124.445 110.117C124.701 110.117 124.91 110.335 124.91 110.604V112.792ZM128.078 111.016C128.26 111.206 128.26 111.514 128.078 111.703C127.896 111.893 127.602 111.893 127.42 111.703L125.942 110.156C125.76 109.966 125.76 109.658 125.942 109.467C126.123 109.278 126.417 109.278 126.599 109.467L128.078 111.016ZM129.118 107.416C129.375 107.416 129.583 107.634 129.583 107.902C129.583 108.171 129.375 108.388 129.118 108.388H127.026C126.77 108.388 126.562 108.17 126.562 107.902C126.562 107.634 126.771 107.416 127.026 107.416H129.118ZM127.42 104.1C127.602 103.909 127.896 103.909 128.078 104.1C128.26 104.29 128.26 104.598 128.078 104.788L126.599 106.335C126.417 106.525 126.123 106.525 125.942 106.335C125.76 106.145 125.76 105.837 125.942 105.647L127.42 104.1Z" fill="#80BBE7"/>
<path fill-rule="evenodd" clip-rule="evenodd" d="M397.743 44.6072C397.743 44.3386 397.951 44.1206 398.208 44.1206C398.465 44.1206 398.673 44.3386 398.673 44.6072V46.7956C398.673 47.0642 398.465 47.2814 398.208 47.2814C397.951 47.2814 397.743 47.0642 397.743 46.7956V44.6072ZM394.575 46.3836C394.392 46.1938 394.392 45.8854 394.575 45.6956C394.756 45.5058 395.051 45.5058 395.232 45.6956L396.711 47.2432C396.892 47.4331 396.892 47.7414 396.711 47.9313C396.528 48.1219 396.235 48.1219 396.053 47.9313L394.575 46.3836ZM393.535 49.9837C393.277 49.9837 393.07 49.7657 393.07 49.498C393.07 49.2286 393.277 49.0114 393.535 49.0114H395.626C395.881 49.0114 396.091 49.2286 396.091 49.498C396.091 49.7666 395.881 49.9837 395.626 49.9837H393.535ZM395.232 53.2987C395.05 53.4885 394.755 53.4885 394.575 53.2987C394.392 53.1089 394.392 52.8005 394.575 52.6115L396.053 51.0639C396.235 50.874 396.528 50.874 396.711 51.0639C396.892 51.2537 396.892 51.5621 396.711 51.7527L395.232 53.2987ZM398.672 54.3879C398.672 54.6565 398.464 54.8737 398.207 54.8737C397.951 54.8737 397.742 54.6557 397.742 54.3879V52.1995C397.742 51.9309 397.951 51.7138 398.207 51.7138C398.464 51.7138 398.672 51.9309 398.672 52.1995V54.3879ZM401.841 52.6115C402.023 52.8005 402.023 53.1097 401.841 53.2987C401.66 53.4885 401.364 53.4885 401.184 53.2987L399.705 51.7519C399.524 51.5621 399.524 51.2537 399.705 51.063C399.886 50.8732 400.182 50.8732 400.363 51.063L401.841 52.6115ZM402.882 49.0106C403.138 49.0106 403.347 49.2278 403.347 49.4972C403.347 49.7657 403.138 49.9829 402.882 49.9829H400.79C400.534 49.9829 400.325 49.7649 400.325 49.4972C400.325 49.2278 400.534 49.0106 400.79 49.0106H402.882ZM401.184 45.6948C401.364 45.5049 401.66 45.5049 401.841 45.6948C402.023 45.8846 402.023 46.193 401.841 46.3828L400.363 47.9296C400.181 48.1203 399.886 48.1203 399.705 47.9296C399.524 47.7398 399.524 47.4322 399.705 47.2416L401.184 45.6948Z" fill="#80BBE7"/>
<path fill-rule="evenodd" clip-rule="evenodd" d="M433.307 266.818C433.307 266.55 433.515 266.332 433.771 266.332C434.028 266.332 434.237 266.55 434.237 266.818V269.007C434.237 269.274 434.028 269.493 433.771 269.493C433.515 269.493 433.307 269.274 433.307 269.007V266.818ZM430.137 268.595C429.957 268.405 429.957 268.096 430.137 267.907C430.32 267.718 430.614 267.718 430.796 267.907L432.274 269.454C432.456 269.644 432.456 269.952 432.274 270.141C432.093 270.332 431.798 270.332 431.617 270.141L430.137 268.595ZM429.099 272.196C428.843 272.196 428.633 271.977 428.633 271.709C428.633 271.441 428.843 271.222 429.099 271.222H431.189C431.446 271.222 431.654 271.441 431.654 271.709C431.654 271.977 431.446 272.196 431.189 272.196H429.099ZM430.796 275.511C430.614 275.701 430.32 275.701 430.137 275.511C429.957 275.321 429.957 275.013 430.137 274.822L431.617 273.276C431.799 273.086 432.093 273.086 432.274 273.276C432.456 273.465 432.456 273.775 432.274 273.964L430.796 275.511ZM434.237 276.599C434.237 276.868 434.028 277.085 433.771 277.085C433.515 277.085 433.307 276.868 433.307 276.599V274.41C433.307 274.143 433.515 273.924 433.771 273.924C434.028 273.924 434.237 274.143 434.237 274.41V276.599ZM437.405 274.822C437.587 275.013 437.587 275.321 437.405 275.511C437.224 275.701 436.929 275.701 436.748 275.511L435.269 273.964C435.088 273.775 435.088 273.465 435.269 273.276C435.45 273.086 435.746 273.086 435.927 273.276L437.405 274.822ZM438.446 271.222C438.702 271.222 438.911 271.441 438.911 271.709C438.911 271.977 438.702 272.196 438.446 272.196H436.355C436.097 272.196 435.89 271.977 435.89 271.709C435.89 271.441 436.097 271.222 436.355 271.222H438.446ZM436.748 267.907C436.929 267.718 437.224 267.718 437.405 267.907C437.587 268.096 437.587 268.405 437.405 268.595L435.927 270.141C435.745 270.332 435.45 270.332 435.269 270.141C435.088 269.952 435.088 269.643 435.269 269.454L436.748 267.907Z" fill="#80BBE7"/>
<path fill-rule="evenodd" clip-rule="evenodd" d="M33.9575 189.564C33.9575 189.294 34.1659 189.076 34.4226 189.076C34.6792 189.076 34.8876 189.294 34.8876 189.564V191.751C34.8876 192.019 34.6792 192.238 34.4226 192.238C34.1659 192.238 33.9575 192.019 33.9575 191.751V189.564ZM30.7886 191.34C30.6072 191.149 30.6072 190.84 30.7886 190.651C30.97 190.461 31.2648 190.461 31.4462 190.651L32.9245 192.198C33.1059 192.389 33.1059 192.698 32.9245 192.886C32.743 193.077 32.4491 193.077 32.2669 192.886L30.7886 191.34ZM29.7484 194.939C29.4917 194.939 29.2842 194.72 29.2842 194.453C29.2842 194.185 29.4925 193.966 29.7484 193.966H31.8399C32.0966 193.966 32.3049 194.185 32.3049 194.453C32.3049 194.72 32.0966 194.939 31.8399 194.939H29.7484ZM31.4462 198.255C31.2648 198.444 30.97 198.444 30.7886 198.255C30.6072 198.065 30.6072 197.757 30.7886 197.566L32.2677 196.02C32.4491 195.83 32.7438 195.83 32.9253 196.02C33.1067 196.209 33.1067 196.518 32.9253 196.707L31.4462 198.255ZM34.8876 199.344C34.8876 199.612 34.6792 199.83 34.4226 199.83C34.1659 199.83 33.9575 199.612 33.9575 199.344V197.155C33.9575 196.887 34.1659 196.668 34.4226 196.668C34.6792 196.668 34.8876 196.887 34.8876 197.155V199.344ZM38.0557 197.566C38.2371 197.757 38.2371 198.065 38.0557 198.255C37.8743 198.444 37.5796 198.444 37.3982 198.255L35.9191 196.707C35.7385 196.518 35.7385 196.208 35.9191 196.02C36.1005 195.83 36.396 195.83 36.5766 196.02L38.0557 197.566ZM39.0959 193.967C39.3526 193.967 39.561 194.186 39.561 194.454C39.561 194.721 39.3518 194.94 39.0959 194.94H37.0044C36.7478 194.94 36.5394 194.721 36.5394 194.454C36.5394 194.186 36.7478 193.967 37.0044 193.967H39.0959ZM37.3982 190.651C37.5796 190.461 37.8743 190.461 38.0557 190.651C38.2371 190.84 38.2371 191.149 38.0557 191.34L36.5766 192.886C36.3952 193.077 36.1005 193.077 35.9191 192.886C35.7385 192.698 35.7385 192.389 35.9191 192.198L37.3982 190.651Z" fill="#80BBE7"/>
<path fill-rule="evenodd" clip-rule="evenodd" d="M492.65 235.409C492.65 235.141 492.857 234.923 493.114 234.923C493.371 234.923 493.579 235.141 493.579 235.409V237.598C493.579 237.865 493.371 238.084 493.114 238.084C492.857 238.084 492.65 237.865 492.65 237.598V235.409ZM489.481 237.186C489.299 236.996 489.299 236.686 489.481 236.498C489.662 236.307 489.957 236.307 490.138 236.498L491.617 238.044C491.797 238.234 491.797 238.542 491.617 238.732C491.435 238.922 491.141 238.922 490.959 238.732L489.481 237.186ZM488.44 240.786C488.184 240.786 487.974 240.568 487.974 240.299C487.974 240.03 488.184 239.812 488.44 239.812H490.531C490.788 239.812 490.996 240.03 490.996 240.299C490.996 240.568 490.788 240.786 490.531 240.786H488.44ZM490.138 244.101C489.957 244.29 489.662 244.29 489.481 244.101C489.299 243.912 489.299 243.603 489.481 243.413L490.959 241.867C491.141 241.676 491.435 241.676 491.617 241.867C491.797 242.056 491.797 242.365 491.617 242.554L490.138 244.101ZM493.578 245.19C493.578 245.458 493.37 245.676 493.113 245.676C492.857 245.676 492.649 245.458 492.649 245.19V243.002C492.649 242.734 492.857 242.515 493.113 242.515C493.37 242.515 493.578 242.734 493.578 243.002V245.19ZM496.747 243.413C496.929 243.603 496.929 243.912 496.747 244.101C496.566 244.29 496.27 244.29 496.09 244.101L494.611 242.554C494.429 242.364 494.429 242.056 494.611 241.867C494.793 241.676 495.087 241.676 495.269 241.867L496.747 243.413ZM497.788 239.812C498.043 239.812 498.252 240.03 498.252 240.299C498.252 240.568 498.043 240.786 497.788 240.786H495.697C495.44 240.786 495.232 240.568 495.232 240.299C495.232 240.03 495.44 239.812 495.697 239.812H497.788ZM496.09 236.498C496.271 236.307 496.566 236.307 496.747 236.498C496.929 236.686 496.929 236.995 496.747 237.186L495.269 238.732C495.087 238.922 494.792 238.922 494.611 238.732C494.429 238.542 494.429 238.235 494.611 238.044L496.09 236.498Z" fill="#80BBE7"/>
<path fill-rule="evenodd" clip-rule="evenodd" d="M461.937 45.6218H465.305C465.921 45.6218 466.426 46.149 466.426 46.7948V50.3195C466.426 50.9644 465.921 51.4924 465.305 51.4924H461.937C461.319 51.4924 460.815 50.9636 460.815 50.3195V46.7948C460.815 46.1482 461.319 45.6218 461.937 45.6218Z" fill="#80BBE7"/>
<path fill-rule="evenodd" clip-rule="evenodd" d="M473.44 45.6218H476.808C477.423 45.6218 477.929 46.149 477.929 46.7948V50.3195C477.929 50.9644 477.423 51.4924 476.808 51.4924H473.44C472.823 51.4924 472.318 50.9636 472.318 50.3195V46.7948C472.318 46.1482 472.823 45.6218 473.44 45.6218Z" fill="white"/>
<path fill-rule="evenodd" clip-rule="evenodd" d="M484.944 45.6218H488.312C488.929 45.6218 489.434 46.149 489.434 46.7948V50.3195C489.434 50.9644 488.929 51.4924 488.312 51.4924H484.944C484.327 51.4924 483.823 50.9636 483.823 50.3195V46.7948C483.823 46.1482 484.327 45.6218 484.944 45.6218Z" fill="#80BBE7"/>
<path fill-rule="evenodd" clip-rule="evenodd" d="M496.448 45.6218H499.816C500.432 45.6218 500.938 46.149 500.938 46.7948V50.3195C500.938 50.9644 500.432 51.4924 499.816 51.4924H496.448C495.831 51.4924 495.326 50.9636 495.326 50.3195V46.7948C495.326 46.1482 495.831 45.6218 496.448 45.6218Z" fill="#80BBE7"/>
<path fill-rule="evenodd" clip-rule="evenodd" d="M36.4703 81.1629C37.9874 79.5755 40.0828 78.594 42.3977 78.594C44.7126 78.594 46.808 79.5755 48.3259 81.1629C49.8431 82.7504 50.7811 84.9438 50.7811 87.366C50.7811 89.7873 49.8423 91.9807 48.3259 93.5681C46.8088 95.1556 44.7126 96.1379 42.3977 96.1379C40.0828 96.1379 37.9866 95.1556 36.4703 93.5681C34.9524 91.9807 34.0144 89.7873 34.0144 87.366C34.0144 84.9429 34.9524 82.7495 36.4703 81.1629ZM38.2805 72.4681C37.1191 72.8188 36.0171 73.3136 34.9951 73.9312C33.9462 74.5662 32.9781 75.3305 32.1122 76.205C31.9427 76.3749 31.6916 76.4006 31.4983 76.2829L27.6029 73.9295L27.5823 73.9163C27.3581 73.7895 27.1046 73.7654 26.8724 73.8309C26.6324 73.898 26.4177 74.0597 26.2854 74.3001L26.2688 74.3283L23.5284 79.2953C23.3961 79.5349 23.37 79.8109 23.435 80.0621C23.4991 80.3133 23.6536 80.5379 23.8826 80.6763L23.9095 80.6937L27.774 83.0272C27.9768 83.1491 28.0703 83.3945 28.0164 83.6216C27.8738 84.2226 27.7661 84.841 27.6916 85.4751C27.6195 86.0927 27.5831 86.7227 27.5831 87.3651C27.5831 88.0059 27.6203 88.6376 27.6916 89.2551C27.7653 89.8876 27.8746 90.5068 28.0172 91.1078C28.0758 91.3582 27.9578 91.6102 27.7455 91.7188L23.8826 94.0531V94.0539C23.6536 94.1923 23.4991 94.417 23.435 94.6681C23.37 94.9201 23.3969 95.1962 23.5284 95.4349L26.2846 100.43L26.2854 100.429C26.4177 100.669 26.6324 100.831 26.8716 100.899C27.1117 100.965 27.3747 100.938 27.6029 100.8L27.6322 100.784L31.5006 98.4465C31.7034 98.3255 31.9522 98.3636 32.113 98.5244C32.9789 99.3981 33.9462 100.163 34.9951 100.798C36.0242 101.421 37.1334 101.917 38.3019 102.268C38.5293 102.335 38.6766 102.551 38.6766 102.786V107.489C38.6766 107.765 38.7852 108.018 38.9602 108.2C39.1353 108.384 39.3762 108.497 39.6408 108.497H45.1547C45.4201 108.497 45.6609 108.384 45.8352 108.2C46.0103 108.018 46.1188 107.766 46.1188 107.489V102.786C46.1188 102.532 46.2875 102.319 46.5149 102.261C47.6771 101.911 48.7783 101.416 49.8011 100.797C50.8508 100.162 51.8173 99.3973 52.684 98.5236C52.8607 98.3462 53.1284 98.3263 53.3241 98.4622L57.1933 100.799C57.4223 100.937 57.6861 100.965 57.9262 100.898C58.1654 100.831 58.3801 100.669 58.5124 100.429L58.529 100.4L61.2701 95.4316V95.4308C61.4024 95.1912 61.4278 94.916 61.3636 94.6648C61.2995 94.4137 61.1458 94.189 60.9176 94.0514L57.0254 91.6997C56.8218 91.5787 56.7291 91.3325 56.7822 91.1062H56.7814C56.924 90.5043 57.0333 89.886 57.107 89.2535C57.1791 88.6359 57.2163 88.0051 57.2163 87.3635C57.2163 86.721 57.1791 86.0902 57.107 85.4726C57.0341 84.8393 56.9248 84.2209 56.7814 83.6199C56.7228 83.3696 56.8416 83.1184 57.0539 83.009L60.9176 80.6747C61.145 80.5371 61.2987 80.3124 61.3636 80.0604C61.4278 79.8101 61.4017 79.5349 61.2701 79.2962L61.2543 79.2655L58.514 74.2984H58.5124C58.3801 74.058 58.1654 73.8964 57.9262 73.8292C57.6861 73.7621 57.4223 73.7895 57.1933 73.9271L57.1949 73.9279L53.2988 76.2813C53.0912 76.4073 52.8337 76.3642 52.6729 76.1917C51.8102 75.323 50.8452 74.5612 49.8011 73.9295C48.7728 73.3078 47.6637 72.8105 46.4943 72.4598C46.2677 72.3927 46.1204 72.1771 46.1196 71.9417V67.2399C46.1196 66.9631 46.0111 66.7111 45.836 66.5287C45.6617 66.3455 45.4209 66.2319 45.1555 66.2319H39.6416C39.3777 66.2319 39.1361 66.3455 38.961 66.5287C38.786 66.7111 38.6774 66.9631 38.6774 67.2399V71.9417C38.6766 72.1979 38.5071 72.4117 38.2805 72.4681Z" fill="#D3EBFA"/>
<path fill-rule="evenodd" clip-rule="evenodd" d="M297.193 160.713C292.297 165.379 291.532 165.934 291.532 165.934C291.532 165.934 288.299 172.357 289.543 172.351C290.787 172.347 291.779 171.171 291.779 171.171C291.779 171.171 292.991 172.79 294.08 172.114C295.169 171.439 295.743 171.187 295.743 171.187C295.743 171.187 296.992 172.484 298.023 171.639C299.055 170.794 303.976 165.236 303.976 165.236L310.48 160.774L307.887 158.33L297.193 160.713Z" fill="#E98DAF"/>
<path fill-rule="evenodd" clip-rule="evenodd" d="M376.512 297.845C376.412 298.563 375.611 302.178 375.624 302.269C375.766 303.333 376.015 305.467 376.015 305.467C376.015 305.467 374.024 307.863 372.176 308.212C370.329 308.56 361.942 308.951 361.836 308.472C361.729 307.993 363.932 304.204 363.932 304.204C363.932 304.204 366.313 302.113 366.632 297.279C366.952 292.444 376.512 297.845 376.512 297.845Z" fill="#F3C6D4"/>
<path fill-rule="evenodd" clip-rule="evenodd" d="M365.62 305.184L366.647 304.799C366.647 304.799 368.975 306.081 371.903 305.036C374.831 303.988 375.624 302.269 375.624 302.269C375.624 302.269 375.767 301.92 376.082 301.92C376.396 301.92 376.498 301.92 376.772 301.92C377.047 301.92 377.809 302.044 378.125 302.829C378.439 303.614 379.1 308.402 378.201 311.055C377.301 313.708 376.041 313.359 376.041 313.359C376.041 313.359 371.038 311.814 367.663 313.059C364.288 314.306 361.198 315.602 361.198 315.602C361.198 315.602 361.359 308.573 365.62 305.184Z" fill="#0E0226"/>
<path fill-rule="evenodd" clip-rule="evenodd" d="M342.838 314.883L342.466 313.74C342.466 313.74 342.466 312.869 342.466 312.351C342.466 311.831 342.674 310.268 344.117 310.268C345.56 310.268 348.367 310.268 349.647 310.268C350.929 310.268 357.862 306.58 363.19 302.044C363.19 302.044 363.567 301.582 364.125 301.92C364.684 302.256 366.383 303.677 366.555 303.825C366.727 303.976 366.748 304.586 366.647 304.799C366.544 305.01 361.613 315.228 361.613 315.228C361.613 315.228 347.096 317.221 342.838 314.883Z" fill="#1A0F44"/>
<path fill-rule="evenodd" clip-rule="evenodd" d="M342.466 313.74C342.466 313.74 342.14 314.022 342.14 314.338C342.14 314.654 342.14 315.202 342.14 315.452C342.14 315.702 342.781 316.869 344.212 316.869C345.643 316.869 357.559 316.869 359.561 316.869C361.561 316.869 363.673 316.338 365.041 315.62C366.407 314.904 368.993 314.105 368.993 314.105C368.993 314.105 369.359 313.976 369.359 314.634C369.359 315.292 369.359 315.59 369.359 315.91C369.359 316.229 369.173 317.097 370.425 317.097C371.676 317.097 377.322 317.097 377.891 317.097C378.46 317.097 379.111 316.758 379.111 315.541C379.111 314.325 379.111 313.169 379.111 312.412C379.111 311.655 378.672 311.056 378.2 311.056C377.728 311.056 374.867 311.056 372.459 311.056C370.051 311.056 368.132 311.673 365.139 313.149C362.147 314.624 359.413 315.064 356.29 315.064C353.167 315.064 349.214 315.064 347.702 315.064C346.188 315.063 343.488 314.703 342.466 313.74Z" fill="#0E0226"/>
<path fill-rule="evenodd" clip-rule="evenodd" d="M409.065 297.845C408.965 298.563 408.164 302.178 408.178 302.269C408.32 303.333 408.568 305.467 408.568 305.467C408.568 305.467 406.577 307.863 404.729 308.212C402.882 308.56 394.497 308.951 394.389 308.472C394.282 307.993 396.485 304.204 396.485 304.204C396.485 304.204 398.867 302.113 399.186 297.279C399.506 292.444 409.065 297.845 409.065 297.845Z" fill="#F3C6D4"/>
<path fill-rule="evenodd" clip-rule="evenodd" d="M398.173 305.184L399.2 304.799C399.2 304.799 401.527 306.081 404.456 305.036C407.384 303.988 408.177 302.269 408.177 302.269C408.177 302.269 408.32 301.92 408.635 301.92C408.949 301.92 409.051 301.92 409.325 301.92C409.6 301.92 410.362 302.044 410.678 302.829C410.993 303.614 411.653 308.402 410.753 311.055C409.854 313.708 408.593 313.359 408.593 313.359C408.593 313.359 403.592 311.814 400.217 313.059C396.841 314.306 393.751 315.602 393.751 315.602C393.751 315.602 393.913 308.573 398.173 305.184Z" fill="#0E0226"/>
<path fill-rule="evenodd" clip-rule="evenodd" d="M375.391 314.883L375.019 313.74C375.019 313.74 375.019 312.869 375.019 312.351C375.019 311.831 375.227 310.268 376.67 310.268C378.114 310.268 380.92 310.268 382.202 310.268C383.482 310.268 390.416 306.58 395.744 302.044C395.744 302.044 396.12 301.582 396.679 301.92C397.238 302.256 398.936 303.677 399.109 303.825C399.282 303.976 399.302 304.586 399.2 304.799C399.099 305.01 394.168 315.228 394.168 315.228C394.168 315.228 379.65 317.221 375.391 314.883Z" fill="#1A0F44"/>
<path fill-rule="evenodd" clip-rule="evenodd" d="M375.019 313.74C375.019 313.74 374.694 314.022 374.694 314.338C374.694 314.654 374.694 315.202 374.694 315.452C374.694 315.702 375.334 316.869 376.766 316.869C378.197 316.869 390.112 316.869 392.113 316.869C394.114 316.869 396.227 316.338 397.594 315.62C398.961 314.904 401.546 314.105 401.546 314.105C401.546 314.105 401.912 313.976 401.912 314.634C401.912 315.292 401.912 315.59 401.912 315.91C401.912 316.229 401.726 317.097 402.978 317.097C404.231 317.097 409.874 317.097 410.445 317.097C411.014 317.097 411.664 316.758 411.664 315.541C411.664 314.325 411.664 313.169 411.664 312.412C411.664 311.655 411.225 311.056 410.753 311.056C410.281 311.056 407.42 311.056 405.012 311.056C402.605 311.056 400.686 311.673 397.692 313.149C394.699 314.624 391.966 315.064 388.844 315.064C385.721 315.064 381.767 315.064 380.254 315.064C378.741 315.063 376.041 314.703 375.019 313.74Z" fill="#0E0226"/>
<path fill-rule="evenodd" clip-rule="evenodd" d="M317.979 79.616C317.979 79.616 314.52 85.6905 316.691 99.5024C318.861 113.314 333.843 167.067 323.668 195.117C323.668 195.117 323.04 197.041 324.789 198.1C326.538 199.159 351.247 203.646 369.312 195.595C387.377 187.541 355.649 83.7118 317.979 79.616Z" fill="#1B7FC2"/>
<path fill-rule="evenodd" clip-rule="evenodd" d="M366.015 300.354C366.015 300.354 370.062 302.925 376.907 301.371C376.907 301.371 378.65 300.695 379.039 298.804C379.426 296.91 392.217 184.256 393.766 164.256C395.316 144.258 383.637 132.046 365.748 119.208C347.86 106.371 362.831 117.21 361.444 116.387C357.008 133.57 351.8 144.622 351.8 144.622L351.76 153.091C351.757 153.676 352.035 154.216 352.168 154.769C357.62 177.442 358.263 195.534 359.082 218.342C359.116 219.008 358.762 201.222 359.157 220.334C359.551 239.448 363.69 294.407 363.948 296.57C364.207 298.732 365.11 300.15 366.015 300.354Z" fill="#170839"/>
<path fill-rule="evenodd" clip-rule="evenodd" d="M321.277 101.147L326.447 109.927C326.447 109.927 348.357 149.31 351.394 154.919C354.43 160.528 367.416 159.731 367.416 159.731L339.678 75.3744C339.678 75.3744 329.99 73.7695 326.233 73.8533C322.474 73.937 320.062 79.9552 320.062 79.9552L321.277 101.147Z" fill="#170839"/>
<path fill-rule="evenodd" clip-rule="evenodd" d="M317.979 79.616C317.979 79.616 314.52 85.6905 316.691 99.5024C318.369 110.177 327.695 144.709 327.149 172.795L327.153 172.796C331.924 121.674 323.133 89.3321 320.063 79.9542C319.371 79.8124 318.677 79.6914 317.979 79.616Z" fill="#428FCD"/>
<path fill-rule="evenodd" clip-rule="evenodd" d="M398.264 300.43C398.264 300.43 402.023 302.629 408.868 301.076C408.868 301.076 410.611 300.4 410.999 298.509C411.385 296.615 416.505 258.844 418.054 238.846C419.604 218.847 432.594 143.817 398.302 119.207C364.009 94.5983 356.618 137.058 356.618 137.058C356.618 137.058 388.61 151.148 389.383 188.714C390.159 226.278 395.938 294.484 396.197 296.646C396.456 298.808 397.359 300.228 398.264 300.43Z" fill="#221758"/>
<path fill-rule="evenodd" clip-rule="evenodd" d="M401.081 301.353C402.875 301.697 405.497 301.842 408.868 301.077C408.868 301.077 410.611 300.401 410.998 298.51C411.385 296.618 416.505 258.845 418.054 238.847C419.23 223.674 426.985 176.824 415.684 144.349C415.529 144.463 397.877 157.406 387.717 175.564C388.688 179.585 389.287 183.961 389.384 188.715C389.515 195.054 389.79 202.266 390.154 209.886C394.512 204.993 400.304 198.406 403.244 194.714C408.325 188.335 414.041 190.594 416.073 193.651C418.104 196.708 410.356 273.658 409.341 283.492C408.624 290.413 403.849 297.664 401.081 301.353Z" fill="#22134F"/>
<path fill-rule="evenodd" clip-rule="evenodd" d="M312.543 58.25C312.595 58.2433 312.746 58.9073 313.377 60.0189L310.263 63.4475C310.263 63.4475 311.056 64.501 312.198 65.6989C310.783 66.2103 309.566 67.0973 308.794 68.2819C308.794 68.2819 305.452 79.054 306.423 80.0985C306.389 80.1424 306.354 80.1856 306.317 80.2303C300.3 87.6652 296.606 85.2032 295.854 84.5359C295.101 83.8686 291.405 80.3223 291.005 80.2394C290.608 80.1566 289.179 81.9214 288.217 81.0676C287.252 80.2137 282.579 74.2329 277.491 65.829C272.401 57.4235 275.274 47.7422 275.274 47.7422C287.68 37.2038 297.986 57.0488 299.234 53.7189C300.482 50.389 304.041 50.0799 306.014 53.7761C306.29 54.2934 312.47 57.6979 312.543 58.25Z" fill="#F3C6D4"/>
<path fill-rule="evenodd" clip-rule="evenodd" d="M312.543 58.25C312.595 58.2433 312.746 58.9073 313.377 60.0189L310.263 63.4475C310.263 63.4475 311.056 64.5002 312.198 65.6989C311.85 65.8249 311.511 65.9741 311.19 66.1449C311.134 65.5223 311.035 65.0606 310.876 64.8683C310.031 63.8478 308.345 61.6578 308.345 61.6578C308.345 61.6578 305.986 62.8075 305.542 60.0828C305.097 57.3588 303.096 54.7004 301.001 55.1323C298.905 55.5642 300.109 58.4182 300.109 58.4182L305.066 65.897L304.24 74.8015C304.24 74.8015 296.493 76.2638 298.082 72.8104C299.673 69.357 295.603 66.6953 290.904 61.1131C286.204 55.531 283.6 56.1295 282.393 56.9933C281.64 57.5321 278.145 59.9849 275.621 61.7539C274.342 57.891 274.341 54.1268 274.612 51.4733C277.449 49.197 281.472 46.7425 285.229 44.9031C292.83 46.6522 298.345 56.098 299.237 53.7189C300.484 50.3882 304.043 50.0799 306.016 53.7761C306.29 54.2934 312.47 57.6979 312.543 58.25Z" fill="#E98DAF"/>
<path fill-rule="evenodd" clip-rule="evenodd" d="M314.213 58.2383C314.213 58.2383 316.628 58.4057 318.468 58.4895C320.307 58.5732 321.819 69.8038 321.819 69.8038L318.684 74.7907L317.953 75.9529L315.58 79.7287L315.356 78.5641C315.356 78.5641 312.872 76.5506 311.308 78.8169C309.744 81.0824 305.828 75.012 305.828 75.012C305.828 75.012 305.117 61.6991 314.213 58.2383Z" fill="#F3C6D4"/>
<path fill-rule="evenodd" clip-rule="evenodd" d="M314.213 58.2383C314.213 58.2383 316.628 58.4057 318.468 58.4895C320.307 58.5732 321.819 69.8046 321.819 69.8046L318.684 74.7915L317.953 75.9537L315.58 79.7296L315.356 78.5641C315.356 78.5641 312.872 76.5506 311.308 78.8169C310.919 79.3806 310.384 79.4287 309.801 79.1816L310.875 74.5047C310.875 74.5047 311.721 65.8895 310.875 64.869C310.361 64.2473 309.535 63.1929 308.967 62.4634C310.188 60.6671 311.876 59.1277 314.213 58.2383Z" fill="#E98DAF"/>
<path fill-rule="evenodd" clip-rule="evenodd" d="M294.921 58.2101C294.915 58.2126 289.253 61.1048 284.77 52.206C284.77 52.206 278.966 58.6428 275.182 60.2534C275.108 60.2849 275.028 60.3115 274.947 60.3363L275.182 60.2534C275.182 60.2534 273.567 60.314 271.793 59.495C269.538 58.6536 266.67 56.8788 264.883 53.1402C261.581 46.2293 265.519 42.7079 269.074 43.173C269.074 43.173 274.408 31.0123 277.393 27.4238C280.379 23.8353 287.364 25.3639 287.364 25.3639C287.364 25.3639 286.348 22.2404 287.555 21.5101C288.76 20.779 295.3 22.1318 297.842 30.0607C297.842 30.0607 302.922 29.1928 305.594 31.9001C308.257 34.6008 314.181 58.1156 314.212 58.2391C314.34 59.7395 313.772 61.2507 312.328 61.3045C310.113 61.3095 307.757 60.6099 306.081 58.2507C306.081 58.2507 304.202 51.2337 300.897 52.2947C300.897 52.2947 298.088 52.3221 299.403 57.2609C299.403 57.2609 300.54 59.4021 302.099 60.8279C303.663 62.2529 307.927 65.2222 310.897 72.4771C313.864 79.7329 307.593 84.3194 305.871 86.4457C304.15 88.5719 301.258 90.2298 299.182 88.3887C297.103 86.5485 292.418 82.3938 291.707 81.7655C290.998 81.1355 290.832 80.4449 291.004 80.241C291.004 80.241 294.027 76.8846 296.323 74.5777C298.616 72.269 300.41 70.7736 300.412 68.1359C300.412 65.5007 300.352 63.4184 298.039 60.7193C297.091 59.6102 295.986 58.7904 294.921 58.2101Z" fill="#170839"/>
<path fill-rule="evenodd" clip-rule="evenodd" d="M284.77 52.206C284.77 52.206 278.966 58.6428 275.182 60.2534C275.108 60.2849 275.028 60.3115 274.947 60.3363L275.182 60.2534C275.182 60.2534 273.567 60.314 271.793 59.495C269.538 58.6536 266.67 56.8788 264.883 53.1402C261.581 46.2293 265.519 42.7079 269.074 43.173C269.074 43.173 274.408 31.0123 277.393 27.4238C280.379 23.8353 287.364 25.3639 287.364 25.3639C287.364 25.3639 286.348 22.2404 287.555 21.5101C288.76 20.779 295.3 22.1318 297.842 30.0607C297.842 30.0599 297.862 37.9813 284.77 52.206Z" fill="#201049"/>
<path fill-rule="evenodd" clip-rule="evenodd" d="M264.182 51.4128C262.265 45.6467 265.829 42.747 269.074 43.1723C269.074 43.1723 289.653 48.2429 292.448 22.689C292.762 22.8863 293.078 23.1059 293.394 23.353C293.667 33.9253 290.653 53.4877 264.182 51.4128Z" fill="#22185A"/>
<path fill-rule="evenodd" clip-rule="evenodd" d="M287.125 69.9869C287.677 69.4978 288.511 69.5708 288.979 70.1486L290.086 71.5188C290.552 72.0966 290.484 72.9686 289.931 73.4577C289.379 73.9468 288.545 73.873 288.078 73.2961L286.971 71.925C286.504 71.348 286.573 70.476 287.125 69.9869Z" fill="#170839"/>
<path fill-rule="evenodd" clip-rule="evenodd" d="M291.13 73.5522C291.949 72.826 293.176 72.9338 293.87 73.7918C294.563 74.6497 294.46 75.9329 293.64 76.6583C292.82 77.3844 291.595 77.2766 290.901 76.4187C290.208 75.5616 290.311 74.2775 291.13 73.5522Z" fill="#ED7792"/>
<path fill-rule="evenodd" clip-rule="evenodd" d="M287.387 67.2929C287.603 67.2423 287.737 67.0194 287.69 66.7955C287.641 66.5709 287.429 66.43 287.214 66.4797C287.207 66.4814 284.579 67.026 283.737 69.4589C283.662 69.6753 283.77 69.9149 283.977 69.9936C284.183 70.0724 284.412 69.9596 284.488 69.7441C285.175 67.753 287.381 67.2954 287.387 67.2929Z" fill="#170839"/>
<path fill-rule="evenodd" clip-rule="evenodd" d="M326.673 156.979C326.673 156.979 309.91 163.524 308.156 164.409C306.402 165.294 304.479 157.985 304.316 156.795C304.152 155.606 305.353 154.21 307.626 152.848C309.9 151.486 322.534 143.824 322.534 143.824L326.673 156.979Z" fill="white"/>
<path fill-rule="evenodd" clip-rule="evenodd" d="M329.304 156.446C323.172 158.855 312.545 163.055 311.033 163.819C308.891 164.9 306.543 155.976 306.342 154.522C306.143 153.07 307.61 151.366 310.387 149.703C311.955 148.762 317.57 145.362 322.154 142.585C322.154 142.585 326.247 139.609 326.86 133.045C327.474 126.482 329.633 96.3733 329.633 96.3733L346.429 104.189L349.408 108.785C349.408 108.785 343.111 137.293 340.641 143.918C338.172 150.546 334.74 154.304 329.304 156.446Z" fill="#170839"/>
<path fill-rule="evenodd" clip-rule="evenodd" d="M414.988 116.74C414.988 116.74 426.925 138.35 429.179 170.714C429.179 170.714 429.374 171.809 428.178 172.342C426.983 172.874 416.986 172.372 405.238 187.461C393.49 202.551 374.716 216.108 363.951 214.34C363.951 214.34 362.787 214.332 362.644 212.36C362.499 210.388 360.245 121.849 325.664 89.8526C325.664 89.8526 322.307 86.9695 322.43 82.0646C322.553 77.1614 376.608 57.0934 414.988 116.74Z" fill="#0065AA"/>
<path fill-rule="evenodd" clip-rule="evenodd" d="M405.247 138.861L402.744 147.634C402.744 147.634 397.41 147.906 383.576 118.864C383.576 118.864 378.07 107.676 362.179 104.257L369.257 93.7173C369.257 93.7173 399.465 99.3002 399.309 101.998C399.151 104.695 405.247 138.861 405.247 138.861Z" fill="#1B7FC2"/>
<path fill-rule="evenodd" clip-rule="evenodd" d="M334.587 115.76L344.557 108.754C345.559 108.05 347.048 108.249 347.867 109.195L365.292 129.342C366.111 130.289 365.96 131.639 364.958 132.344L354.988 139.349C353.985 140.054 352.495 139.855 351.676 138.909L334.251 118.761C333.433 117.815 333.583 116.464 334.587 115.76Z" fill="#170839"/>
<path fill-rule="evenodd" clip-rule="evenodd" d="M333.139 116.777L343.11 109.771C344.112 109.067 345.602 109.266 346.42 110.212L363.845 130.36C364.664 131.307 364.513 132.657 363.512 133.362L353.541 140.367C352.538 141.072 351.048 140.873 350.228 139.926L332.804 119.779C331.986 118.832 332.136 117.481 333.139 116.777Z" fill="#221758"/>
<path fill-rule="evenodd" clip-rule="evenodd" d="M334.558 119.242L336.163 118.115C336.324 118.001 336.564 118.034 336.696 118.186L341.01 123.172C341.142 123.325 341.119 123.542 340.957 123.655L339.352 124.783C339.19 124.896 338.95 124.865 338.819 124.712L334.504 119.727C334.373 119.573 334.397 119.355 334.558 119.242Z" fill="#674F9B"/>
<path fill-rule="evenodd" clip-rule="evenodd" d="M335.91 119.245C336.332 118.948 336.943 119.038 337.275 119.445C337.607 119.853 337.534 120.423 337.112 120.72C336.69 121.016 336.08 120.927 335.748 120.519C335.415 120.111 335.489 119.541 335.91 119.245Z" fill="#D3EBFA"/>
<path fill-rule="evenodd" clip-rule="evenodd" d="M337.559 121.178C337.981 120.881 338.592 120.971 338.924 121.378C339.255 121.786 339.183 122.357 338.76 122.652C338.34 122.949 337.728 122.86 337.396 122.452C337.064 122.045 337.137 121.475 337.559 121.178Z" fill="#D3EBFA"/>
<path fill-rule="evenodd" clip-rule="evenodd" d="M337.819 121.498C338.059 121.329 338.405 121.38 338.593 121.611C338.781 121.843 338.739 122.166 338.5 122.334C338.262 122.502 337.915 122.451 337.727 122.221C337.538 121.989 337.58 121.665 337.819 121.498Z" fill="white"/>
<path fill-rule="evenodd" clip-rule="evenodd" d="M336.149 119.538C336.402 119.36 336.771 119.414 336.97 119.659C337.17 119.905 337.126 120.248 336.872 120.427C336.619 120.605 336.251 120.55 336.051 120.306C335.852 120.06 335.894 119.716 336.149 119.538Z" fill="white"/>
<path fill-rule="evenodd" clip-rule="evenodd" d="M339.133 123.021C339.387 122.843 339.754 122.897 339.954 123.142C340.154 123.387 340.11 123.73 339.856 123.908C339.602 124.087 339.234 124.032 339.035 123.787C338.835 123.544 338.88 123.2 339.133 123.021Z" fill="#D3EBFA"/>
<path fill-rule="evenodd" clip-rule="evenodd" d="M323.445 50.7861C323.243 50.9088 319.102 52.032 318.404 52.3595C317.706 52.6869 317.487 54.2296 317.333 56.8598C317.18 59.4901 315.137 78.9894 315.04 80.1002C314.943 81.211 315.323 81.8791 316.242 82.2074C317.161 82.5373 327.765 86.5303 327.765 86.5303L323.445 50.7861Z" fill="#170839"/>
<path fill-rule="evenodd" clip-rule="evenodd" d="M380.835 105.72C380.835 105.72 364.812 116.83 362.97 117.866C361.125 118.902 365.982 125.267 366.867 126.167C367.752 127.068 369.67 126.857 372.237 125.649C374.804 124.442 389.147 117.792 389.147 117.792L380.835 105.72Z" fill="white"/>
<path fill-rule="evenodd" clip-rule="evenodd" d="M387.988 99.2197C387.988 99.2197 367.036 113.75 364.624 115.105C362.213 116.459 368.564 124.784 369.721 125.962C370.878 127.138 373.385 126.863 376.743 125.283C380.101 123.705 398.86 115.008 398.86 115.008L387.988 99.2197Z" fill="#221758"/>
<path fill-rule="evenodd" clip-rule="evenodd" d="M343.532 101.244C343.532 101.244 353.42 103.737 365.151 104.485C376.88 105.234 401.235 106.923 402.743 147.633C402.743 147.633 402.927 147.848 403.554 147.616C404.182 147.386 421.142 131.647 423.524 124.083C425.906 116.518 412.131 88.6989 404.577 85.1029C397.023 81.5078 382.962 78.5799 367.6 62.437C352.239 46.2941 331.104 48.228 331.104 48.228L326.506 66.0429C326.506 66.0429 328.604 96.6377 343.532 101.244Z" fill="#428FCD"/>
<path fill-rule="evenodd" clip-rule="evenodd" d="M398.468 125.178C400.822 130.891 402.395 138.216 402.744 147.634C402.744 147.634 402.927 147.848 403.554 147.617C404.182 147.387 421.142 131.647 423.524 124.083C424.478 121.055 422.841 114.779 420.051 108.113C420.039 112.989 419.427 118.392 417.098 121.082C413.829 124.858 404.302 125.293 398.468 125.178ZM405.833 85.8812C405.399 85.5596 404.979 85.2952 404.578 85.1037C397.023 81.5085 382.962 78.5807 367.6 62.4378C367.283 62.1037 366.96 61.7796 366.638 61.4604C366.752 61.7299 376.557 84.9677 352.057 90.1205C352.057 90.1205 350.47 90.4529 350.914 91.8488C351.358 93.2431 395.954 79.2986 405.833 85.8812Z" fill="#3388C9"/>
<path fill-rule="evenodd" clip-rule="evenodd" d="M331.985 48.1799C331.414 48.2007 331.104 48.2288 331.104 48.2288L328.295 59.1096L332.371 88.8572L335.95 90.3982C335.95 90.3982 335.357 86.2319 335.673 85.9327C335.991 85.6334 343.485 81.7797 344.438 81.2475C345.391 80.7161 345.201 79.7529 345.201 79.7529C344.466 78.1588 334.24 53.5979 331.985 48.1799Z" fill="#1B7FC2"/>
<path fill-rule="evenodd" clip-rule="evenodd" d="M323.579 47.3425C323.579 47.3425 322.617 47.7553 322.323 48.9208C322.029 50.0863 322.452 74.4482 322.553 77.1614C322.653 79.8754 333.101 93.742 335.696 96.9533C338.29 100.165 342.125 100.951 343.532 101.244C343.532 101.244 343.654 101.235 343.67 101.109C343.685 100.983 339.598 99.2163 338.355 97.2418C337.112 95.2681 334.953 86.8037 334.701 85.5694C334.701 85.5694 341.884 81.9494 343.122 81.2149C344.362 80.4821 344.558 79.8853 344.089 79.0439C343.621 78.2009 331.947 49.298 331.104 48.2286C330.26 47.1601 327.203 46.8973 323.579 47.3425Z" fill="#D3EBFA"/>
<path fill-rule="evenodd" clip-rule="evenodd" d="M289.856 25.7534C290.017 25.8727 290.057 26.1082 289.943 26.2773C289.828 26.4472 289.604 26.4878 289.441 26.3685C289.43 26.3602 285.499 23.4025 279.171 24.636C278.976 24.6741 278.789 24.5381 278.753 24.3342C278.718 24.1303 278.847 23.9347 279.042 23.8974C285.67 22.6059 289.843 25.7451 289.856 25.7534Z" fill="#201049"/>
<path fill-rule="evenodd" clip-rule="evenodd" d="M274.777 58.8228C274.955 58.7316 275.171 58.807 275.258 58.9936C275.346 59.1792 275.274 59.4047 275.095 59.4967C275.076 59.5067 268.35 63.1101 264.12 54.8795C264.026 54.6963 264.091 54.4692 264.266 54.3697C264.441 54.2719 264.659 54.3407 264.754 54.5239C268.651 62.1071 274.759 58.8319 274.777 58.8228Z" fill="#201049"/>
<path fill-rule="evenodd" clip-rule="evenodd" d="M362.587 118.407C361.528 118.012 359.322 116.756 358.739 116.451C358.081 116.108 352.582 114.819 352.582 114.819L355.537 118.255C355.537 118.255 346.507 122.379 344.536 124.01C342.566 125.642 343.798 126.415 345.522 126.415C347.246 126.415 347.246 126.415 347.246 126.415C347.246 126.415 346.917 129.507 349.134 129.593C351.349 129.679 351.513 129.593 351.513 129.593C351.513 129.593 352.335 132.17 354.141 131.913C355.946 131.655 359.067 130.882 362.677 128.734C365.598 126.999 366.372 126.105 366.56 125.826C365.373 124.421 362.216 120.095 362.587 118.407Z" fill="#F2BBC9"/>
<path fill-rule="evenodd" clip-rule="evenodd" d="M362.587 118.407C362.287 118.296 361.898 118.116 361.479 117.908C361.291 121.312 363.812 124.018 359.798 126.262C355.379 128.734 352.483 128.096 347.453 123.072C347.219 122.905 346.994 122.749 346.77 122.597C345.79 123.144 344.983 123.641 344.538 124.01C342.567 125.642 343.799 126.414 345.523 126.414C347.247 126.414 347.247 126.414 347.247 126.414C347.247 126.414 346.918 129.506 349.136 129.592C351.351 129.679 351.515 129.592 351.515 129.592C351.515 129.592 352.336 132.169 354.143 131.912C355.947 131.654 359.069 130.881 362.679 128.734C365.599 126.998 366.373 126.104 366.562 125.826C365.373 124.421 362.215 120.095 362.587 118.407Z" fill="#E98DAF"/>
<path fill-rule="evenodd" clip-rule="evenodd" d="M231.335 130.392H117.247C111.563 130.392 106.913 134.462 106.913 139.434V316.874H241.67V139.434C241.67 134.461 237.019 130.392 231.335 130.392Z" fill="#3889C9"/>
<path fill-rule="evenodd" clip-rule="evenodd" d="M250.067 130.392H154.489C149.726 130.392 145.83 133.801 145.83 137.966V316.874H258.726V137.966C258.726 133.801 254.829 130.392 250.067 130.392Z" fill="#80BBE7"/>
<path fill-rule="evenodd" clip-rule="evenodd" d="M250.066 135.059H154.489C153.446 135.059 152.591 135.805 152.591 136.718V316.874H251.965V136.719C251.965 135.805 251.111 135.059 250.066 135.059Z" fill="white"/>
<path fill-rule="evenodd" clip-rule="evenodd" d="M189.249 135.058H215.308C216.524 135.058 217.518 135.927 217.518 136.992V136.993C217.518 138.057 216.524 138.927 215.308 138.927H189.249C188.033 138.927 187.039 138.058 187.039 136.993V136.992C187.039 135.927 188.033 135.058 189.249 135.058Z" fill="#221758"/>
<path fill-rule="evenodd" clip-rule="evenodd" d="M154.489 135.059H250.067C251.111 135.059 251.965 135.805 251.965 136.719V136.993H152.592V136.719C152.592 135.805 153.446 135.059 154.489 135.059Z" fill="#221758"/>
<path fill-rule="evenodd" clip-rule="evenodd" d="M189.249 272.798H215.308C216.524 272.798 217.518 273.668 217.518 274.732V274.734C217.518 275.797 216.524 276.668 215.308 276.668H189.249C188.033 276.668 187.039 275.797 187.039 274.734V274.732C187.039 273.668 188.033 272.798 189.249 272.798Z" fill="#221758"/>
<path fill-rule="evenodd" clip-rule="evenodd" d="M154.489 272.798H250.067C251.111 272.798 251.965 273.545 251.965 274.458V274.733H152.592V274.458C152.592 273.546 153.446 272.798 154.489 272.798Z" fill="#221758"/>
<path d="M175.245 164.148H152.592V201.393H175.245V164.148Z" fill="#F9B532"/>
<path d="M175.245 169.66H152.592V201.393H175.245V169.66Z" fill="#F59F3A"/>
<path d="M175.245 173.019H152.592V201.393H175.245V173.019Z" fill="white"/>
<path d="M175.245 173.019H152.592V201.393H175.245V173.019Z" fill="#FFF2D1"/>
<path fill-rule="evenodd" clip-rule="evenodd" d="M175.245 170.626H158.48C156.005 170.626 153.474 172.596 152.592 175.112V201.393H175.245V170.626Z" fill="#FCC749"/>
<path d="M175.244 164.148H159.75V197.074H175.244V164.148Z" fill="#F18D3D"/>
<path d="M175.244 169.66H159.75V197.074H175.244V169.66Z" fill="#EE7E40"/>
<path d="M175.244 173.019H159.75V197.074H175.244V173.019Z" fill="#F2BCC2"/>
<path d="M175.244 173.019H159.75V197.074H175.244V173.019Z" fill="#F2B2A5"/>
<path d="M175.244 170.626H159.75V197.074H175.244V170.626Z" fill="#F39A4C"/>
<path fill-rule="evenodd" clip-rule="evenodd" d="M205.092 164.148H170.468C167.803 164.148 165.623 166.429 165.623 169.218V201.393H205.092V164.148Z" fill="#F9B532"/>
<path fill-rule="evenodd" clip-rule="evenodd" d="M205.092 169.66H173.16C170.496 169.66 168.315 171.942 168.315 174.731V201.393H205.092V169.66Z" fill="#F59F3A"/>
<path fill-rule="evenodd" clip-rule="evenodd" d="M170.379 201.393V177.15C170.379 174.878 172.155 173.019 174.327 173.019H205.092V201.393H170.379Z" fill="white"/>
<path fill-rule="evenodd" clip-rule="evenodd" d="M172.787 201.393L178.951 175.696C179.186 174.715 179.677 173.797 180.329 173.019H205.092V201.393H172.787V201.393Z" fill="#FFF2D1"/>
<path fill-rule="evenodd" clip-rule="evenodd" d="M205.092 170.626H188.327C185.662 170.626 182.935 172.907 182.266 175.696L176.103 201.393H205.093V170.626H205.092Z" fill="#FCC749"/>
<path d="M205.092 164.148H189.597V197.074H205.092V164.148Z" fill="#F18D3D"/>
<path d="M205.092 169.66H189.597V197.074H205.092V169.66Z" fill="#EE7E40"/>
<path d="M205.092 173.019H189.597V197.074H205.092V173.019Z" fill="#F2BCC2"/>
<path d="M205.092 173.019H189.597V197.074H205.092V173.019Z" fill="#F2B2A5"/>
<path d="M205.092 170.626H189.597V197.074H205.092V170.626Z" fill="#F39A4C"/>
<path fill-rule="evenodd" clip-rule="evenodd" d="M234.939 164.148H200.315C197.65 164.148 195.469 166.429 195.469 169.218V201.393H234.938V164.148H234.939Z" fill="#F9B532"/>
<path fill-rule="evenodd" clip-rule="evenodd" d="M234.939 169.66H203.007C200.342 169.66 198.161 171.942 198.161 174.731V201.393H234.938V169.66H234.939Z" fill="#F59F3A"/>
<path fill-rule="evenodd" clip-rule="evenodd" d="M200.226 201.393V177.15C200.226 174.878 202.002 173.019 204.173 173.019H234.938V201.393H200.226Z" fill="white"/>
<path fill-rule="evenodd" clip-rule="evenodd" d="M202.634 201.393L208.798 175.696C209.032 174.715 209.523 173.797 210.175 173.019H234.939V201.393H202.634V201.393Z" fill="#FFF2D1"/>
<path fill-rule="evenodd" clip-rule="evenodd" d="M234.939 170.626H218.174C215.509 170.626 212.781 172.907 212.112 175.696L205.949 201.393H234.939V170.626Z" fill="#FCC749"/>
<path d="M234.939 164.148H219.444V197.074H234.939V164.148Z" fill="#F18D3D"/>
<path d="M234.939 169.66H219.444V197.074H234.939V169.66Z" fill="#EE7E40"/>
<path d="M234.939 173.019H219.444V197.074H234.939V173.019Z" fill="#F2BCC2"/>
<path d="M234.939 173.019H219.444V197.074H234.939V173.019Z" fill="#F2B2A5"/>
<path d="M234.939 170.626H219.444V197.074H234.939V170.626Z" fill="#F39A4C"/>
<path fill-rule="evenodd" clip-rule="evenodd" d="M229.276 220.763H287.783C290.447 220.763 292.627 218.481 292.627 215.693V169.218C292.627 166.429 290.447 164.149 287.783 164.149H285.404V161.788C285.404 161.02 284.803 160.392 284.07 160.392H266.393C265.66 160.392 265.06 161.02 265.06 161.788V164.149H229.276C226.611 164.149 224.431 166.43 224.431 169.218V215.693C224.431 218.481 226.611 220.763 229.276 220.763Z" fill="#F9B532"/>
<path fill-rule="evenodd" clip-rule="evenodd" d="M229.276 220.763H287.783C290.447 220.763 292.627 218.481 292.627 215.693V170.192C291.977 169.852 291.246 169.66 290.474 169.66H288.095V167.3C288.095 166.532 287.495 165.904 286.761 165.904H269.086C268.352 165.904 267.752 166.532 267.752 167.3V169.66H231.968C229.303 169.66 227.123 171.942 227.123 174.731V220.233C227.772 220.572 228.504 220.763 229.276 220.763Z" fill="#F59F3A"/>
<path fill-rule="evenodd" clip-rule="evenodd" d="M270.104 220.763H233.134C230.963 220.763 229.186 218.905 229.186 216.633V177.15C229.186 174.878 230.963 173.019 233.134 173.019H270.104C272.275 173.019 274.053 174.879 274.053 177.15V216.633C274.053 218.905 272.276 220.763 270.104 220.763Z" fill="white"/>
<path fill-rule="evenodd" clip-rule="evenodd" d="M270.104 220.763H233.134C230.963 220.763 229.186 218.905 229.186 216.633V211.434L237.757 175.696C237.993 174.714 238.483 173.797 239.135 173.018H270.103C272.274 173.018 274.052 174.878 274.052 177.149V216.632C274.053 218.905 272.276 220.763 270.104 220.763Z" fill="#FFF2D1"/>
<path fill-rule="evenodd" clip-rule="evenodd" d="M235.109 220.763H289.128C291.793 220.763 294.521 218.481 295.189 215.693L304.783 175.696C305.452 172.907 303.818 170.626 301.152 170.626H298.314L298.916 168.114C299.16 167.095 298.565 166.263 297.591 166.263H277.874C276.901 166.263 275.906 167.095 275.661 168.114L275.059 170.626H247.135C244.47 170.626 241.742 172.907 241.074 175.696L231.48 215.693C230.81 218.481 232.444 220.763 235.109 220.763Z" fill="#FCC749"/>
<path fill-rule="evenodd" clip-rule="evenodd" d="M292.627 177.905L284.96 209.872C284.29 212.66 281.563 214.942 278.898 214.942H274.053H231.66L231.48 215.693C230.81 218.48 232.444 220.762 235.109 220.762H270.104H287.782H289.127C291.792 220.762 294.52 218.48 295.188 215.693L304.781 175.695C305.451 172.906 303.817 170.625 301.151 170.625H298.313L298.916 168.113C299.16 167.095 298.564 166.262 297.59 166.262H293.966C294.64 167.184 294.89 168.464 294.553 169.873L292.627 177.905Z" fill="#F9B532"/>
<path d="M318.573 182.905H219.201V226.885H318.573V182.905Z" fill="white"/>
<path fill-rule="evenodd" clip-rule="evenodd" d="M189.249 226.884H215.308C216.524 226.884 217.518 227.755 217.518 228.818V228.821C217.518 229.885 216.524 230.754 215.308 230.754H189.249C188.033 230.754 187.039 229.885 187.039 228.821V228.818C187.039 227.754 188.033 226.884 189.249 226.884Z" fill="#221758"/>
<path fill-rule="evenodd" clip-rule="evenodd" d="M154.489 226.885H250.067C251.111 226.885 251.965 227.632 251.965 228.545V228.821H152.592V228.545C152.592 227.632 153.446 226.885 154.489 226.885Z" fill="#221758"/>
<path fill-rule="evenodd" clip-rule="evenodd" d="M221.099 180.971H255.83H255.859H281.917H281.945H316.676C317.72 180.971 318.574 181.718 318.574 182.631V182.905H284.128C284.128 183.969 283.133 184.841 281.917 184.841H255.858C254.643 184.841 253.648 183.97 253.648 182.906L219.201 182.905V182.631C219.201 181.718 220.055 180.971 221.099 180.971Z" fill="#221758"/>
<path fill-rule="evenodd" clip-rule="evenodd" d="M219.2 226.885V182.905H152.591V228.545C152.591 227.632 153.445 226.885 154.489 226.885H189.209C189.222 226.884 189.235 226.884 189.249 226.884H215.307C215.321 226.884 215.334 226.884 215.347 226.885H219.2Z" fill="#D3EBFA"/>
<path fill-rule="evenodd" clip-rule="evenodd" d="M109.377 178.595C97.999 165.402 89.5348 182.16 90.716 198.983C91.837 214.932 103.909 269.655 101.671 292.676H106.294C117.602 263.155 123.943 195.484 109.377 178.595Z" fill="white"/>
<path fill-rule="evenodd" clip-rule="evenodd" d="M104.594 292.676C115.601 246.146 101.668 181.826 101.62 181.608C101.536 181.209 101.182 180.963 100.831 181.059C100.48 181.157 100.266 181.56 100.351 181.958C100.397 182.179 114.348 246.569 103.258 292.676H104.594Z" fill="#DFDFDF"/>
<path fill-rule="evenodd" clip-rule="evenodd" d="M81.3074 207.669C69.317 200.434 66.2939 216.219 70.968 229.277C74.842 240.099 91.9549 272.109 98.425 292.675H104.52C105.038 264.254 95.4605 216.208 81.3074 207.669Z" fill="#80BBE7"/>
<path fill-rule="evenodd" clip-rule="evenodd" d="M102.294 292.676C98.3276 254.236 75.8783 212.452 75.7975 212.301C75.6414 212.007 75.3047 211.913 75.0472 212.091C74.7898 212.269 74.7074 212.652 74.8642 212.946C74.9442 213.097 97.2494 254.609 101.211 292.676H102.294Z" fill="#428FCD"/>
<path fill-rule="evenodd" clip-rule="evenodd" d="M131.981 225.913C143.603 220.133 145.445 235.084 140.282 246.879C136.789 254.86 124.2 275.294 115.723 292.676H106.048C109.356 266.379 119.97 231.89 131.981 225.913Z" fill="#FCC749"/>
<path fill-rule="evenodd" clip-rule="evenodd" d="M109.503 292.676C117.753 260.816 136.754 230.792 136.83 230.671C136.994 230.409 137.313 230.35 137.542 230.537C137.772 230.723 137.824 231.086 137.661 231.348C137.586 231.468 118.785 261.18 110.554 292.676H109.503Z" fill="#F9B532"/>
<path fill-rule="evenodd" clip-rule="evenodd" d="M91.1581 282.157H125.206C126.224 282.157 127.057 283.105 127.057 284.266V293.839C127.057 294.998 126.224 295.947 125.206 295.947H91.1581C90.1393 295.947 89.3066 294.998 89.3066 293.839V284.266C89.3066 283.105 90.1393 282.157 91.1581 282.157Z" fill="#28256C"/>
<path fill-rule="evenodd" clip-rule="evenodd" d="M96.9977 289.945H119.365L125.206 295.946L120.435 316.874H108.182H95.929L91.1582 295.946L96.9977 289.945Z" fill="#28256C"/>
<path fill-rule="evenodd" clip-rule="evenodd" d="M125.206 295.947L124.225 300.25H92.1398L91.1582 295.947H125.206Z" fill="#221758"/>
<path fill-rule="evenodd" clip-rule="evenodd" d="M304.307 156.435C303.699 156.904 303.369 157.213 303.369 157.213C303.369 157.213 298.032 156.706 296.414 158.651C294.798 160.597 291.24 165.335 289.704 166.096C288.167 166.858 289.865 168.212 293.099 167.028C296.334 165.843 299.972 162.966 299.972 162.966C299.972 162.966 303.33 163.806 305.954 162.148C305.075 160.142 304.409 157.474 304.316 156.795C304.299 156.677 304.296 156.557 304.307 156.435Z" fill="#F2BBC9"/>
</g>
<defs>
<clipPath id="clip0_54_358">
<rect width="530" height="360" fill="white"/>
</clipPath>
</defs>
</svg>
