<svg width="506" height="381" viewBox="0 0 506 381" fill="none" xmlns="http://www.w3.org/2000/svg">
<g clip-path="url(#clip0_58_550)">
<path d="M86.7044 360.921C86.7044 360.921 23.6952 315.981 5.56072 239.501C-12.5737 163.01 15.1125 70.2643 67.6124 23.4177C120.124 -23.4289 214.638 8.12179 256.64 47.3205L298.642 86.5191C298.642 86.5191 338.741 108.504 391.253 106.598C443.764 104.68 490.542 176.388 502.955 232.801C515.368 289.213 485.766 363.786 485.766 363.786L86.7044 360.921Z" fill="#DDECFF"/>
<g style="mix-blend-mode:multiply">
<path d="M58.0717 372.393C58.0717 372.393 14.1544 348.49 2.69927 293.037C-8.7559 237.584 40.8832 186.913 45.659 159.186C50.4349 131.459 39.9257 97.0437 83.8429 70.2643C127.76 43.4964 206.043 53.0506 235.644 46.3615C265.245 39.6724 299.611 -6.22687 358.802 4.29773C417.992 14.8108 475.28 46.3615 478.141 115.205C481.001 184.048 459.049 185.954 481.001 223.247C502.954 260.539 511.549 286.348 501.051 324.588C490.553 362.827 468.589 373.352 468.589 373.352L58.0717 372.393Z" fill="#DDECFF"/>
</g>
<g style="mix-blend-mode:multiply">
<path d="M149.771 359.962C147.037 357.097 106.973 276.782 151.593 203.168C196.214 129.553 308.217 138.148 352.838 166.834C397.458 195.52 419.307 232.801 423.864 271.999C428.421 311.198 398.37 372.393 398.37 372.393L149.771 359.962Z" fill="#DDECFF"/>
</g>
<path d="M463.929 187.468H412.455C409.27 187.468 406.688 190.054 406.688 193.244V218.984C406.688 222.174 409.27 224.76 412.455 224.76H463.929C467.114 224.76 469.697 222.174 469.697 218.984V193.244C469.697 190.054 467.114 187.468 463.929 187.468Z" fill="#60A8FF"/>
<path d="M438.192 239.34L446.359 219.977H430.036L438.192 239.34Z" fill="#60A8FF"/>
<path d="M438.008 199.713H452.739V201.874L459.961 197.692L452.739 193.521V195.681H438.008V199.713Z" fill="#223A7A"/>
<path d="M459.961 208.193H445.229V206.033L438.008 210.203L445.229 214.374V212.213H459.961V208.193Z" fill="white"/>
<path d="M428.964 211.994L428.26 212.248C428.26 212.248 426.068 209.753 424.937 207.026C423.807 204.3 423.761 200.984 423.761 200.984L424.268 200.765L421.154 193.302C420.6 193.741 420.069 194.295 419.642 195.023C417.877 198.003 418.051 202.59 419.827 207.061C421.604 211.532 423.495 215.529 426.956 218.036C428.998 219.515 430.752 219.781 432.101 219.561L428.952 212.005L428.964 211.994Z" fill="#223A7A"/>
<path d="M431.19 211.116L430.221 211.474L433.405 219.122C433.763 219.007 434.086 218.857 434.374 218.706C435.193 218.256 435.562 217.262 435.216 216.384L433.555 212.179C433.186 211.243 432.136 210.781 431.202 211.116H431.19Z" fill="#223A7A"/>
<path d="M423.599 191.985C423.207 192.123 422.78 192.32 422.354 192.574L425.537 200.199L426.61 199.748C427.545 199.355 427.983 198.304 427.625 197.357L425.953 193.059C425.595 192.123 424.545 191.638 423.611 191.985H423.599Z" fill="#223A7A"/>
<path d="M134.878 347.058V261.013C134.878 261.013 133.921 237.826 146.091 231.137C158.261 224.448 209.573 228.029 209.573 228.029V347.058H134.867H134.878Z" fill="#1C83FF"/>
<path d="M225.62 147.472C225.62 147.472 222.517 173.523 221.329 175.672L220.14 177.821L214.176 181.887C214.176 181.887 225.631 198.142 239.717 200.765C253.802 203.399 252.602 195.023 252.602 195.023L250.457 190.483L253.318 165.621C253.318 165.621 227.777 153.906 225.631 147.46L225.62 147.472Z" fill="#F3C6D4"/>
<path d="M206.758 184.048L216.068 179.981C216.068 179.981 222.032 189.778 235.875 195.52C249.718 201.261 249.96 197.911 250.676 195.52C251.391 193.128 250.433 190.506 250.433 190.506L251.46 182.142L256.997 183.99L276.216 339.664L226.808 342.056L206.758 184.059V184.048Z" fill="white"/>
<path d="M252.348 182.292C252.348 182.292 255.694 190.021 258.797 208.182C261.9 226.343 264.761 256.946 265.476 277.972C266.192 298.998 266.665 347.046 266.665 347.046H328.958C329.674 347.046 333.965 323.386 333.965 323.386C333.965 323.386 306.752 300.038 305.321 296.214C304.364 293.661 304.848 246.421 300.788 224.668C296.727 202.914 291.478 198.535 280.496 193.117C269.145 187.514 252.337 182.28 252.337 182.28L252.348 182.292Z" fill="#223A7A"/>
<path d="M284.811 319.666C284.488 319.666 284.234 319.412 284.234 319.088C284.234 317.379 283.934 293.095 283.634 269.619C283.346 246.132 283.034 221.848 283.034 220.139C283.034 219.815 283.288 219.561 283.611 219.561C283.934 219.561 284.188 219.815 284.188 220.139C284.188 221.848 284.488 246.132 284.788 269.608C285.076 293.095 285.387 317.379 285.387 319.088C285.387 319.412 285.134 319.666 284.811 319.666Z" fill="#8593B6"/>
<path d="M160.696 313.832L160.223 347.058H232.784C232.784 347.058 235.887 318.858 234.699 316.223C233.51 313.589 160.707 313.832 160.707 313.832H160.696Z" fill="#223A7A"/>
<g style="mix-blend-mode:multiply">
<path d="M241.447 174.956C244.4 177.347 248.449 179.253 251.598 180.42L253.306 165.633C253.306 165.633 234.121 156.829 227.615 150.291C228.976 157.731 232.322 167.585 241.447 174.956Z" fill="#F3C6D4"/>
</g>
<path d="M275.743 98.9498C275.743 98.9498 280.75 107.557 281.707 118.07C282.665 128.583 281.707 155.593 273.113 167.065C264.519 178.537 246.615 175.187 238.505 168.255C231.053 161.889 223.705 154.865 221.801 141.002C219.886 127.139 225.862 100.844 242.808 95.3453C259.754 89.8462 275.743 98.9267 275.743 98.9267V98.9498Z" fill="#F3C6D4"/>
<path d="M297.269 332.028C297.269 332.028 296.427 332.028 295.147 331.993C294.847 331.982 294.512 331.993 294.166 331.982C292.932 331.947 291.432 331.912 289.921 331.866C289.586 331.854 289.24 331.843 288.906 331.831C287.406 331.797 286.126 331.982 284.926 331.912H284.891C284.638 331.901 284.268 331.935 283.968 331.947C283.818 331.958 283.68 331.97 283.588 331.958C282.896 331.831 282.757 331.67 282.007 331.335C281.038 330.896 267.922 327.961 257.251 328.03C246.592 328.077 237.029 328.805 235.471 327.499C233.903 326.17 232.957 312.758 242.058 311.88L253.248 316.131C253.248 316.131 278.8 313.093 288.168 320.013C297.558 326.933 297.269 332.028 297.269 332.028Z" fill="#F2BBC9"/>
<path d="M284.891 331.912C284.637 331.901 284.268 331.935 283.968 331.947C283.738 331.577 283.253 330.907 282.988 330.63C280.104 327.684 273.136 325.778 270.61 325.165C270.379 325.108 270.229 324.877 270.287 324.646C270.333 324.415 270.575 324.276 270.817 324.322C274.497 325.212 282.307 327.488 284.522 331.219C284.591 331.323 284.776 331.681 284.891 331.912Z" fill="#223A7A"/>
<path d="M289.921 331.866C289.587 331.866 289.241 331.854 288.906 331.831C285.757 326.078 280.6 324.426 274.244 322.381L273.863 322.254C273.644 322.185 273.517 321.931 273.586 321.7C273.656 321.48 273.898 321.353 274.14 321.422L274.509 321.549C281.246 323.71 286.657 325.454 289.933 331.866H289.921Z" fill="#223A7A"/>
<path d="M295.147 331.993C294.847 331.993 294.512 331.993 294.166 331.982C292.251 327.961 285.929 321.226 277.577 319.666C277.335 319.62 277.185 319.401 277.22 319.158C277.266 318.927 277.497 318.777 277.727 318.811C286.345 320.429 293.289 327.476 295.158 331.993H295.147Z" fill="#223A7A"/>
<path d="M227.523 129.183C227.523 129.183 232.772 126.677 236.475 119.618C240.178 112.571 239.694 106.228 239.694 106.228C239.694 106.228 246.373 105.154 256.398 108.146C266.422 111.138 278.351 115.193 288.375 109.463C298.4 103.721 298.4 94.5251 293.509 90.7011C288.029 86.415 277.162 89.0259 277.162 89.0259C277.162 89.0259 281.338 84.9593 279.077 82.5679C276.805 80.1765 268.58 83.2842 268.58 83.2842C268.58 83.2842 258.555 75.2781 239.578 76.237C220.602 77.1958 211.535 90.4585 210.462 105.281C209.389 120.103 214.753 134.925 214.753 134.925L227.523 129.183Z" fill="#223A7A"/>
<g style="mix-blend-mode:multiply">
<path d="M266.018 132.776C264.946 135.434 264.969 138.518 264.703 141.325C264.496 143.521 264.092 146.074 266.099 147.552C267.057 148.257 271.59 150.163 269.26 151.711C268.372 152.301 266.884 152.139 265.868 152.093C265.176 152.058 264.473 152.035 263.769 151.977C263.019 151.919 262.292 151.7 261.543 151.688C261.104 151.688 260.966 152.266 261.323 152.497C262.523 153.248 264.3 153.491 265.695 153.537C267.103 153.595 268.049 153.537 269.318 152.901C270.091 152.52 270.852 151.966 270.967 151.041C271.106 150.002 270.321 149.066 269.537 148.477C268.637 147.807 267.53 147.495 266.618 146.836C265.349 145.935 265.453 144.399 265.545 142.989C265.765 139.593 266.538 136.254 266.837 132.869C266.884 132.349 266.168 132.349 266.007 132.753L266.018 132.776Z" fill="#8E9BBB"/>
</g>
<path d="M275.778 140.725C275.42 142.735 273.955 144.168 272.513 143.913C271.06 143.659 270.183 141.811 270.529 139.801C270.887 137.79 272.352 136.358 273.794 136.612C275.247 136.866 276.124 138.715 275.778 140.725Z" fill="#223A7A"/>
<path d="M257.517 139.13C257.194 141.302 255.659 142.873 254.102 142.642C252.545 142.411 251.529 140.459 251.852 138.287C252.175 136.115 253.71 134.544 255.267 134.775C256.824 135.006 257.84 136.958 257.517 139.13Z" fill="#223A7A"/>
<path d="M271.533 132.418C272.652 132.603 273.771 132.418 274.901 132.499C275.166 132.522 275.443 132.557 275.709 132.58C275.905 132.603 275.351 132.522 275.616 132.569C275.674 132.569 275.732 132.592 275.789 132.592C275.928 132.615 276.066 132.649 276.205 132.684C276.447 132.742 276.678 132.834 276.92 132.88C277.139 132.927 277.381 132.984 277.601 132.973C277.727 132.961 277.843 132.938 277.97 132.927C277.889 132.938 277.82 132.95 277.739 132.973C277.739 132.996 278.154 132.938 278.2 132.927C278.835 132.776 279.239 132.037 279.054 131.413C279.008 131.228 278.927 131.078 278.812 130.928C278.766 130.87 278.72 130.801 278.662 130.743C278.708 130.789 278.754 130.847 278.8 130.893C278.754 130.824 278.708 130.766 278.65 130.697C278.593 130.593 278.5 130.501 278.397 130.443C278.304 130.373 278.223 130.304 278.131 130.235C277.831 130.027 277.451 129.911 277.093 129.819C276.424 129.646 275.732 129.565 275.04 129.553C274.359 129.553 273.678 129.623 273.009 129.715C272.409 129.796 271.752 130.004 271.267 130.362C270.898 130.639 270.667 130.997 270.725 131.483C270.783 131.887 271.094 132.349 271.533 132.418Z" fill="#223A7A"/>
<path d="M258.797 129.218C258.647 129.126 258.485 129.045 258.335 128.976C258.197 128.918 257.828 128.721 258.105 128.872C258.001 128.814 257.897 128.756 257.793 128.71C257.332 128.479 256.847 128.317 256.351 128.19C255.267 127.913 254.113 127.843 252.994 127.959C251.806 128.086 250.71 128.375 249.684 128.999C249.534 129.091 249.384 129.172 249.268 129.299C249.187 129.403 249.107 129.507 249.026 129.611C249.049 129.576 249.072 129.542 249.095 129.507C248.772 129.727 248.588 130.096 248.599 130.477C248.599 130.847 248.795 131.159 249.118 131.332C249.51 131.552 249.88 131.448 250.272 131.332H249.672C250.007 131.39 250.237 131.402 250.572 131.332C250.583 131.332 250.895 131.252 250.687 131.298C250.491 131.344 251.01 131.263 251.068 131.252C251.137 131.252 251.495 131.205 251.114 131.252C251.183 131.252 251.252 131.24 251.322 131.228C251.506 131.205 251.679 131.182 251.864 131.171C252.648 131.113 253.433 131.078 254.229 131.044C254.955 131.02 255.705 131.009 256.444 131.044C256.755 131.055 257.067 131.067 257.378 131.078C257.551 131.078 257.482 131.113 257.355 131.078C257.424 131.101 257.482 131.113 257.551 131.124C257.678 131.159 257.805 131.205 257.932 131.252C258.439 131.448 259.051 131.078 259.235 130.605C259.443 130.096 259.27 129.507 258.785 129.218H258.797Z" fill="#223A7A"/>
<path d="M264.461 162.456C265.557 160.249 267.553 158.632 269.849 157.592C267.853 157.384 258.405 156.517 256.029 157.869C253.364 159.383 256.525 165.482 262.039 165.783C262.616 165.817 263.146 165.771 263.654 165.69C263.7 164.581 263.954 163.472 264.461 162.456Z" fill="#223A7A"/>
<path d="M220.844 149.62C220.844 149.62 221.801 153.329 227.292 157.626C232.783 161.924 240.743 165.078 240.743 165.078L241.378 162.294C241.378 162.294 233.141 158.712 229.323 154.761C225.504 150.822 225.031 148.661 225.031 148.661L220.855 149.62H220.844Z" fill="#DEE1EB"/>
<path d="M242.324 160.226C246.742 160.018 249.211 163.518 249.511 165.783C249.822 168.047 247.699 170.589 242.727 168.359C236.556 165.586 237.894 160.434 242.312 160.226H242.324Z" fill="#223A7A"/>
<path d="M224.304 122.252C224.304 122.252 226.208 108.516 235.402 99.1809C252.948 81.378 267.864 82.4524 267.864 82.4524C267.864 82.4524 267.749 79.9455 262.131 78.0277C256.859 76.237 254.494 77.1959 254.494 77.1959C254.494 77.1959 240.051 78.3858 227.88 91.8911C215.71 105.396 214.395 122.61 214.395 122.61L224.304 122.252Z" fill="#DEE1EB"/>
<path d="M222.99 120.577C211.5 118.624 205.086 127.624 204.613 136.716C204.14 145.796 210.727 152.705 219.529 152.012C239.336 150.464 237.075 122.968 222.99 120.577Z" fill="white"/>
<path d="M217.268 143.186C214.234 143.186 211.673 141.661 210.208 138.969C208.639 136.092 208.766 132.545 210.543 129.934C210.681 129.738 210.946 129.692 211.142 129.819C211.338 129.958 211.396 130.223 211.258 130.42C209.666 132.765 209.55 135.953 210.969 138.553C212.308 141.014 214.684 142.412 217.499 142.319C220.129 142.25 222.355 141.048 223.763 138.934C225.378 136.52 225.747 133.192 224.709 130.443C223.67 127.716 220.844 125.868 218.272 126.203C218.041 126.238 217.822 126.064 217.787 125.833C217.752 125.602 217.926 125.383 218.156 125.348C221.167 124.944 224.328 127.012 225.516 130.142C226.658 133.146 226.243 136.785 224.478 139.419C222.897 141.776 220.429 143.116 217.522 143.186C217.441 143.186 217.36 143.186 217.279 143.186H217.268Z" fill="#818FB3"/>
<path d="M208.916 180.698C208.916 180.698 174.066 189.304 161.895 203.168C149.725 217.031 143.992 285.389 143.761 298.062C143.53 310.736 152.355 315.992 157.604 319.574C162.853 323.155 186.005 329.613 204.624 330.572C223.243 331.531 240.905 330.572 240.905 330.572C240.905 330.572 240.847 326.505 243.708 320.533C246.361 314.987 249.73 313.844 249.73 313.844L233.741 308.102C233.741 308.102 230.938 257.859 226.577 233.528C221.571 205.559 208.916 180.709 208.916 180.709V180.698Z" fill="#223A7A"/>
<path d="M266.665 300.073C266.584 300.073 266.503 300.061 266.434 300.026C266.145 299.899 266.007 299.553 266.145 299.264C269.41 291.882 272.79 277.406 274.694 267.24L274.855 266.419C275.432 263.427 276.147 259.719 274.717 257.142C273.99 255.837 272.34 252.995 270.748 250.268C269.099 247.438 267.553 244.758 267.114 243.961C266.272 242.401 268.926 238.23 272.756 232.512C273.794 230.964 274.682 229.635 275.201 228.734C276.562 226.366 275.663 224.205 274.601 221.687L274.244 220.82C273.286 218.475 272.202 216.13 271.152 213.854C270.725 212.93 270.298 211.994 269.872 211.058C269.306 209.822 268.753 208.563 268.176 207.292C264.807 199.76 261.312 191.973 256.847 184.452C256.686 184.175 256.778 183.828 257.044 183.655C257.32 183.493 257.667 183.586 257.84 183.851C262.339 191.43 265.846 199.251 269.226 206.807C269.791 208.078 270.356 209.337 270.91 210.561C271.337 211.497 271.763 212.421 272.19 213.346C273.24 215.633 274.336 217.99 275.293 220.358L275.651 221.213C276.724 223.766 277.831 226.423 276.182 229.277C275.639 230.213 274.74 231.564 273.69 233.124C271.694 236.105 267.541 242.309 268.107 243.383C268.533 244.169 270.079 246.837 271.717 249.656C273.309 252.394 274.959 255.236 275.697 256.553C277.335 259.488 276.574 263.439 275.962 266.604L275.801 267.424C275.109 271.121 271.429 290.068 267.172 299.703C267.08 299.922 266.861 300.049 266.641 300.049L266.665 300.073Z" fill="#8593B6"/>
<path d="M232.657 302.094C232.507 302.094 232.357 302.037 232.253 301.921C229.542 299.183 216.46 276.505 215.491 272.242C214.96 269.908 216.299 263.982 217.591 258.251C218.594 253.815 219.633 249.229 219.333 247.981C218.894 246.121 215.549 243.383 212.319 240.737C208.408 237.537 204.371 234.233 203.586 231.253C202.698 227.868 203.459 206.68 203.955 192.666C204.14 187.629 204.278 183.643 204.278 182.222C204.278 181.899 204.532 181.645 204.855 181.645C205.178 181.645 205.432 181.899 205.432 182.222C205.432 183.667 205.293 187.652 205.109 192.701C204.636 205.802 203.851 227.729 204.694 230.952C205.386 233.563 209.446 236.89 213.034 239.825C216.576 242.724 219.909 245.451 220.44 247.692C220.798 249.194 219.829 253.503 218.698 258.482C217.487 263.82 216.126 269.874 216.599 271.953C217.556 276.135 230.396 298.386 233.06 301.078C233.28 301.309 233.28 301.667 233.06 301.898C232.945 302.013 232.807 302.071 232.657 302.071V302.094Z" fill="#8593B6"/>
<path d="M185.763 292.182C185.763 292.182 185.705 292.182 185.682 292.182C185.371 292.136 185.152 291.847 185.186 291.523C185.613 288.52 192.235 228.676 192.535 224.09C192.558 223.766 192.835 223.524 193.146 223.547C193.469 223.57 193.7 223.847 193.688 224.159C193.388 228.745 186.755 288.67 186.328 291.674C186.282 291.962 186.04 292.17 185.763 292.17V292.182Z" fill="#8593B6"/>
<path d="M233.256 308.437C233.187 308.437 233.106 308.425 233.037 308.391C231.572 307.79 225.089 305.606 216.887 302.834C200.321 297.242 177.642 289.583 173.327 287.33C173.039 287.18 172.935 286.833 173.085 286.556C173.235 286.267 173.581 286.163 173.858 286.313C178.092 288.52 201.659 296.48 217.256 301.748C225.481 304.532 231.976 306.715 233.476 307.328C233.775 307.443 233.914 307.79 233.799 308.079C233.706 308.298 233.487 308.437 233.268 308.437H233.256Z" fill="#8593B6"/>
<path d="M225.285 332.259C210.704 332.259 182.452 329.625 160.984 322.023C160.684 321.919 160.523 321.584 160.638 321.283C160.742 320.983 161.076 320.821 161.376 320.937C188.497 330.549 226.439 332.189 233.499 330.595C233.81 330.526 234.122 330.722 234.191 331.034C234.26 331.346 234.064 331.658 233.753 331.727C232.23 332.074 229.265 332.259 225.308 332.259H225.285Z" fill="#8593B6"/>
<path d="M58.4412 188.761C62.9633 192.747 68.6966 195.3 72.665 199.91C74.2223 201.724 75.6297 203.653 77.0832 205.559C78.133 206.945 80.9593 209.244 81.4092 210.977C81.6053 211.74 81.5707 210.7 81.3631 209.938C81.3631 209.903 81.34 209.88 81.3285 209.845C80.9362 206.322 80.6478 202.786 80.5209 199.24C80.394 195.705 80.6132 192.158 80.394 188.634C80.0826 183.655 78.5252 178.837 74.4646 175.718C72.4804 174.193 69.931 173.269 68.0968 171.571C66.3664 169.965 67.0585 168.128 68.0737 166.337C69.0312 164.662 70.1848 163.01 70.5539 161.081C70.9807 158.886 70.1501 156.621 69.0427 154.761C66.6778 150.787 61.4405 146.351 56.4685 146.952C52.3272 147.448 51.8542 152.231 51.9234 155.559C51.9811 158.793 52.3041 162.028 52.3272 165.263C52.3618 168.59 51.7965 171.86 51.7504 175.175C51.6696 180.813 54.2767 185.111 58.4066 188.75L58.4412 188.761Z" fill="#6BAEFF"/>
<path d="M100.489 240.495C101.747 237.48 103.2 234.672 104.977 231.934C107.411 228.18 110.122 224.517 111.76 220.312C113.433 216.014 113.19 211.428 113.352 206.911C113.467 203.584 114.459 200.28 114.194 196.941C114.067 195.346 113.144 192.759 111.079 193.024C109.476 193.232 108.518 195.219 107.907 196.502C106.834 198.72 106.084 201.088 105.288 203.422C104.977 204.335 104.677 205.259 104.285 206.137C104.054 206.645 103.327 207.893 102.635 207.731C101.458 207.442 102.531 202.648 102.704 201.793C103.581 197.53 104.896 193.567 105.081 189.177C105.346 182.812 104.85 175.245 98.6321 171.756C97.0055 170.843 94.9522 170.3 93.4063 171.663C91.8836 173.003 91.4568 175.325 91.2261 177.243C90.5339 183.124 91.9182 188.681 93.7986 194.214C95.3559 198.778 97.2017 203.491 97.3401 208.378C97.467 213.08 95.0329 217.239 93.8793 221.687C92.0566 228.757 92.4258 232.512 92.4258 234.799C92.4258 237.664 92.5181 240.506 92.7257 243.371C92.9218 246.006 93.141 248.628 93.464 251.251C93.5332 251.782 93.5909 252.336 93.6601 252.891C92.645 250.453 92.2989 247.669 91.4568 245.22C89.9686 240.876 88.2498 236.613 86.8193 232.246C85.6427 228.642 84.5237 225.003 82.9779 221.525C81.5243 218.267 79.7593 214.825 77.0369 212.433C75.3872 210.989 73.4031 210.146 71.1997 210.157C69.7923 210.157 68.5234 210.654 67.1852 211.012C65.5356 211.451 64.232 211.301 62.8708 210.25C58.4179 206.818 57.0567 200.672 53.7689 196.328C51.3118 193.094 45.4746 187.571 41.1832 191.107C38.9107 192.978 38.2762 196.594 38.4031 199.378C38.5531 202.856 40.0758 206.044 41.8754 208.956C43.8019 212.052 46.2821 214.825 48.0471 218.002C49.0969 219.885 49.2584 221.687 49.0853 223.801C48.9238 225.8 48.7508 227.729 49.4314 229.658C51.4733 235.446 57.8526 234.638 62.8131 234.788C66.2854 234.892 70 235.412 73.2992 236.521C77.1061 237.803 79.5863 240.287 80.9475 244.053C81.9281 246.78 82.4587 249.887 84.316 252.198C85.1928 253.284 86.3464 254.092 87.6153 254.659C89.5533 255.513 95.4482 255.883 95.4828 255.352C95.6328 253.55 96.4864 251.643 97.0171 249.933C98.0207 246.722 99.1974 243.591 100.501 240.483L100.489 240.495Z" fill="#6BAEFF"/>
<path d="M127.864 239.397C127.356 236.093 127.449 232.442 125.891 229.404C125.776 229.185 125.488 229.127 125.28 229.242C124.161 229.866 124.115 231.68 124.022 232.789C123.872 234.637 123.988 236.486 123.757 238.323C123.365 241.558 122.615 244.885 121.45 247.923C120.135 251.366 117.747 253.318 114.275 254.393C112.048 255.086 109.856 255.687 107.988 257.165C106.315 258.494 105.161 260.319 104.308 262.249C101.989 267.459 100.881 273.27 99.8086 278.838C99.0818 282.582 98.4935 286.348 97.5821 290.056C96.6708 293.765 95.7018 297.45 95.1827 301.239C95.0904 301.436 94.9981 301.621 94.9173 301.817C94.6751 302.383 95.5633 302.683 95.8633 302.221C99.451 296.699 103.812 291.731 109.776 288.693C112.463 287.318 116.04 287.029 118.289 284.869C119.996 283.229 120.227 280.722 119.973 278.48C119.639 275.546 118.231 273.131 116.766 270.624C115.959 269.25 115.013 267.782 115.336 266.107C115.647 264.536 116.951 263.369 118.243 262.561C120.723 261.024 123.619 260.331 125.637 258.113C127.518 256.056 128.568 253.48 128.775 250.707C129.052 247.01 128.418 243.036 127.852 239.386L127.864 239.397Z" fill="#6BAEFF"/>
<path d="M78.9979 258.483C75.837 254.404 72.0186 250.881 67.7273 248.027C65.4316 246.502 60.0328 243.499 58.9369 247.993C58.3024 250.627 60.8749 253.214 62.5707 254.867C65.1202 257.35 68.0618 259.488 70.2075 262.353C67.5427 263.208 64.7625 263.369 62.4554 265.206C59.7213 267.39 58.487 271.595 61.2095 274.275C62.5361 275.581 64.2896 276.378 65.9277 277.175C68.0734 278.215 70.2536 279.15 72.4455 280.075C77.1867 282.062 81.9857 284.072 86.0232 287.318C90.1416 290.622 94.0176 296.226 94.3406 301.621C94.3752 302.141 94.1791 301.667 94.4791 301.436C94.6521 301.586 95.2058 301.32 95.2058 301.02C95.1251 293.014 93.6831 285.377 90.4184 278.041C87.3845 271.237 83.5661 264.386 78.9979 258.494V258.483Z" fill="#6BAEFF"/>
<path d="M68.0621 183.898C69.804 187.525 71.6267 191.072 73.5647 194.607C75.4335 198.015 77.2908 201.389 78.6866 205.028C80.4055 209.499 82.2051 213.9 84.0162 218.337C85.9081 222.946 87.5924 227.637 88.9421 232.431C91.5838 241.789 93.5449 251.412 94.5139 261.093C95.01 266.015 95.2291 270.96 95.0907 275.904C94.9869 279.763 94.5485 283.587 94.1909 287.434C93.8102 291.431 93.5449 295.486 93.8794 299.495C94.1563 302.845 94.687 306.843 97.2941 309.234C97.8017 309.708 98.5284 309.118 98.2285 308.518C95.1369 302.175 95.3099 295.255 95.8982 288.381C96.2212 284.58 96.6711 280.803 96.8096 276.99C96.9711 272.138 96.7865 267.274 96.3251 262.445C95.4253 252.949 93.5334 243.568 91.0878 234.36C89.8303 229.635 88.273 225.002 86.4849 220.462C84.6853 215.91 82.6089 211.474 80.8669 206.899C77.7176 198.616 72.9187 191.28 68.6619 183.563C68.4427 183.158 67.866 183.516 68.0505 183.921L68.0621 183.898Z" fill="#43588E"/>
<path d="M94.6753 251.609C95.1713 245.578 95.7135 239.767 97.7323 234.025C98.6782 231.345 99.8203 228.734 100.743 226.042C101.493 223.812 102.624 220.763 102.047 218.394C101.978 218.128 101.597 218.14 101.528 218.394C101.135 219.746 101.182 221.225 100.905 222.611C100.628 223.963 100.27 225.28 99.8549 226.597C98.9666 229.381 97.8015 232.05 96.7979 234.799C94.8483 240.102 93.8447 245.971 94.2715 251.609C94.2946 251.874 94.6637 251.874 94.6868 251.609H94.6753Z" fill="#43588E"/>
<path d="M59.7792 216.95C62.1672 222.727 69.3541 223.062 74.5914 224.356C78.329 225.28 81.0861 227.775 83.0703 231.022C85.239 234.568 86.7041 238.727 87.9153 242.69C87.9269 242.736 87.9961 242.713 87.9846 242.667C86.5195 235.735 84.42 227.394 77.2908 224.171C71.569 221.583 64.036 222.888 60.3906 216.696C60.2061 216.396 59.6523 216.592 59.8023 216.95H59.7792Z" fill="#43588E"/>
<path d="M90.8913 250.696C91.1797 251.077 91.4335 251.481 91.7335 251.863C91.8834 252.047 92.0219 252.221 92.2064 252.371C92.391 252.521 92.6102 252.718 92.8755 252.706C92.9793 252.706 93.0601 252.579 93.0024 252.486C92.887 252.29 92.6679 252.175 92.5064 252.036C92.3333 251.886 92.1603 251.736 91.9988 251.574C91.6642 251.262 91.3643 250.915 91.0298 250.592C90.9721 250.534 90.8452 250.615 90.9029 250.696H90.8913Z" fill="#43588E"/>
<path d="M75.9527 269.03C80.0711 272.415 83.8779 276.424 86.9003 280.826C88.3423 282.928 89.6805 285.146 90.8917 287.388C92.2068 289.837 93.0836 292.425 94.1103 295.001C94.191 295.197 94.5486 295.197 94.514 294.943C93.9372 289.502 90.4995 284.846 87.754 280.317C86.3235 277.972 84.547 276.077 82.632 274.114C80.6594 272.092 78.6406 270.174 76.3334 268.545C76.0566 268.349 75.6874 268.811 75.9643 269.03H75.9527Z" fill="#43588E"/>
<path d="M108.772 262.63C106.788 263.762 106.719 266.893 106.684 268.903C106.615 272.762 107.561 276.378 105.876 280.052C104.354 283.367 101.92 286.14 100.005 289.213C98.2166 292.101 96.4401 295.787 96.4862 299.252C96.4862 299.449 96.7977 299.564 96.89 299.356C97.6167 297.785 97.8705 295.995 98.3897 294.343C98.9665 292.483 99.7855 290.796 100.835 289.167C102.681 286.302 104.942 283.702 106.442 280.629C108.022 277.383 107.791 274.171 107.688 270.659C107.618 268.418 107.399 264.814 109.199 263.15C109.476 262.884 109.118 262.445 108.795 262.63H108.772Z" fill="#43588E"/>
<path d="M95.5058 299.61C87.5114 299.495 72.2725 299.414 72.2725 299.414L76.0447 327.441C76.8984 333.749 82.2626 338.451 88.6189 338.451H102.393C108.749 338.451 114.125 333.749 114.967 327.441L118.739 299.414C118.739 299.414 103.5 299.506 95.5058 299.61Z" fill="white"/>
<path d="M482.074 248.096L436.45 338.613L303.429 339.572L344.474 246.826L482.074 248.096Z" fill="#F6F7FA"/>
<path d="M215.145 339.006L215.168 331.762H301.284L340.898 244.758H478.614L482.075 248.108H347.543L306.371 338.936C306.371 338.936 215.145 338.775 215.145 339.006Z" fill="#D9DEE8"/>
<path d="M412.998 298.051C411.498 302.568 403.342 306.057 394.782 305.838C386.223 305.618 380.501 301.794 382.012 297.277C383.512 292.76 391.668 289.271 400.227 289.49C408.787 289.71 414.509 293.534 412.998 298.051Z" fill="#D9DEE8"/>
<path d="M306.371 339.502C306.29 339.502 306.209 339.491 306.129 339.456C305.84 339.329 305.713 338.983 305.84 338.694L347.162 247.531H482.063C482.386 247.531 482.64 247.785 482.64 248.108C482.64 248.432 482.386 248.686 482.063 248.686H347.9L306.878 339.179C306.786 339.387 306.567 339.514 306.348 339.514L306.371 339.502Z" fill="white"/>
<path d="M209.146 345.856H50.9082V380.989H209.146V345.856Z" fill="#596B9B"/>
<path d="M492.953 345.856H208.247V380.989H492.953V345.856Z" fill="#7A89AF"/>
<g style="mix-blend-mode:multiply">
<path d="M209.146 345.856H208.247H50.9082V352.314H208.247H209.146H492.953V345.856H209.146Z" fill="#BDC4D7"/>
</g>
<path d="M216.068 338.925H43.2715V347.532H216.068V338.925Z" fill="#6F7FA9"/>
<path d="M499.874 338.925H215.168V347.532H499.874V338.925Z" fill="#9CA6C3"/>
<path d="M169.197 114.119H113.34C109.881 114.119 107.076 116.927 107.076 120.392V148.315C107.076 151.78 109.881 154.588 113.34 154.588H169.197C172.657 154.588 175.461 151.78 175.461 148.315V120.392C175.461 116.927 172.657 114.119 169.197 114.119Z" fill="white"/>
<path d="M191.381 134.348L170.397 125.487V143.209L191.381 134.348Z" fill="white"/>
<path d="M128.014 138.218C130.148 138.218 131.878 136.485 131.878 134.348C131.878 132.21 130.148 130.478 128.014 130.478C125.88 130.478 124.149 132.21 124.149 134.348C124.149 136.485 125.88 138.218 128.014 138.218Z" fill="#223A7A"/>
<path d="M141.269 138.218C143.403 138.218 145.133 136.485 145.133 134.348C145.133 132.21 143.403 130.478 141.269 130.478C139.135 130.478 137.404 132.21 137.404 134.348C137.404 136.485 139.135 138.218 141.269 138.218Z" fill="#223A7A"/>
<path d="M154.524 138.218C156.658 138.218 158.388 136.485 158.388 134.348C158.388 132.21 156.658 130.478 154.524 130.478C152.389 130.478 150.659 132.21 150.659 134.348C150.659 136.485 152.389 138.218 154.524 138.218Z" fill="#223A7A"/>
<path d="M453.592 28.2004H324.632C316.35 28.2004 309.636 34.9242 309.636 43.2191V104.484C309.636 112.779 316.35 119.502 324.632 119.502H336.191C336.514 125.059 335.718 133.319 331.093 143.879C345.997 136.993 354.568 126.665 359.056 119.502H453.604C461.887 119.502 468.601 112.779 468.601 104.484V43.2191C468.601 34.9242 461.887 28.2004 453.604 28.2004H453.592Z" fill="#60A8FF"/>
<path d="M398.578 57.3945H334.611C332.858 57.3945 331.427 55.9619 331.427 54.2059C331.427 52.4499 332.858 51.0173 334.611 51.0173H398.578C400.331 51.0173 401.762 52.4383 401.762 54.2059C401.762 55.9619 400.343 57.3945 398.578 57.3945Z" fill="white"/>
<path d="M444.445 75.9598H333.377C332.304 75.9598 331.427 75.0818 331.427 74.0074C331.427 72.9329 332.304 72.0549 333.377 72.0549H444.445C445.517 72.0549 446.394 72.9329 446.394 74.0074C446.394 75.0818 445.517 75.9598 444.445 75.9598Z" fill="#D2E6FF"/>
<path d="M444.445 86.7962H333.377C332.304 86.7962 331.427 85.9182 331.427 84.8438C331.427 83.7694 332.304 82.8914 333.377 82.8914H444.445C445.517 82.8914 446.394 83.7694 446.394 84.8438C446.394 85.9182 445.517 86.7962 444.445 86.7962Z" fill="#D2E6FF"/>
<path d="M420.219 98.3492H333.388C332.315 98.3492 331.438 97.4712 331.438 96.3968C331.438 95.3224 332.315 94.4443 333.388 94.4443H420.219C421.292 94.4443 422.168 95.3224 422.168 96.3968C422.168 97.4712 421.292 98.3492 420.219 98.3492Z" fill="#D2E6FF"/>
<path d="M443.568 57.3945H413.055C411.302 57.3945 409.871 55.9619 409.871 54.2059C409.871 52.4499 411.302 51.0173 413.055 51.0173H443.568C445.321 51.0173 446.751 52.4383 446.751 54.2059C446.751 55.9619 445.321 57.3945 443.568 57.3945Z" fill="white"/>
<path d="M366.658 169.977H332.015C330.741 169.977 329.708 171.011 329.708 172.287V195.993C329.708 197.27 330.741 198.304 332.015 198.304H366.658C367.932 198.304 368.965 197.27 368.965 195.993V172.287C368.965 171.011 367.932 169.977 366.658 169.977Z" fill="white"/>
<path d="M349.585 188.38C349.389 188.38 349.193 188.311 349.031 188.184L330.17 172.587C329.801 172.287 329.755 171.733 330.055 171.363C330.366 170.993 330.908 170.947 331.278 171.247L349.574 186.382L367.397 170.855C367.754 170.543 368.308 170.577 368.619 170.935C368.931 171.294 368.896 171.848 368.539 172.16L350.162 188.172C350 188.311 349.793 188.38 349.597 188.38H349.585Z" fill="#6F7FA9"/>
<path d="M330.723 197.657C330.504 197.657 330.297 197.576 330.123 197.414C329.777 197.079 329.766 196.536 330.089 196.19L343.274 182.303C343.597 181.957 344.151 181.945 344.497 182.269C344.843 182.604 344.855 183.147 344.532 183.493L331.346 197.38C331.173 197.553 330.954 197.645 330.723 197.645V197.657Z" fill="#6F7FA9"/>
<path d="M367.961 197.149C367.742 197.149 367.523 197.068 367.35 196.895L354.21 183.701C353.876 183.366 353.876 182.812 354.21 182.477C354.545 182.142 355.099 182.142 355.433 182.477L368.573 195.67C368.907 196.005 368.907 196.559 368.573 196.895C368.4 197.068 368.18 197.149 367.961 197.149Z" fill="#6F7FA9"/>
<path d="M370.776 180.686C377.166 180.686 382.347 175.498 382.347 169.098C382.347 162.699 377.166 157.511 370.776 157.511C364.386 157.511 359.206 162.699 359.206 169.098C359.206 175.498 364.386 180.686 370.776 180.686Z" fill="#FF5F42"/>
<path d="M368.632 168.74L368.608 168.464C368.912 168.6 369.176 168.776 369.4 168.992C369.624 169.208 369.796 169.444 369.916 169.7C370.036 169.956 370.096 170.22 370.096 170.492C370.096 170.948 369.968 171.368 369.712 171.752C369.464 172.128 369.128 172.432 368.704 172.664C368.28 172.888 367.808 173 367.288 173C366.768 173 366.296 172.888 365.872 172.664C365.448 172.432 365.108 172.128 364.852 171.752C364.604 171.368 364.48 170.948 364.48 170.492C364.48 170.124 364.556 169.808 364.708 169.544C364.868 169.272 365.064 169.044 365.296 168.86C365.536 168.676 365.772 168.524 366.004 168.404L365.908 168.74C365.708 168.66 365.512 168.548 365.32 168.404C365.136 168.252 364.984 168.06 364.864 167.828C364.744 167.596 364.684 167.324 364.684 167.012C364.684 166.564 364.8 166.16 365.032 165.8C365.264 165.432 365.576 165.14 365.968 164.924C366.368 164.708 366.808 164.6 367.288 164.6C367.776 164.6 368.212 164.708 368.596 164.924C368.988 165.14 369.3 165.432 369.532 165.8C369.764 166.16 369.88 166.564 369.88 167.012C369.88 167.356 369.812 167.644 369.676 167.876C369.54 168.108 369.376 168.292 369.184 168.428C368.992 168.564 368.808 168.668 368.632 168.74ZM366.124 167.036C366.124 167.252 366.172 167.444 366.268 167.612C366.372 167.78 366.512 167.916 366.688 168.02C366.864 168.116 367.064 168.164 367.288 168.164C367.512 168.164 367.708 168.116 367.876 168.02C368.052 167.916 368.188 167.78 368.284 167.612C368.388 167.444 368.44 167.252 368.44 167.036C368.44 166.716 368.328 166.452 368.104 166.244C367.888 166.028 367.616 165.92 367.288 165.92C366.952 165.92 366.672 166.028 366.448 166.244C366.232 166.452 366.124 166.716 366.124 167.036ZM367.288 171.68C367.672 171.68 367.996 171.564 368.26 171.332C368.524 171.092 368.656 170.804 368.656 170.468C368.656 170.236 368.596 170.028 368.476 169.844C368.356 169.66 368.192 169.516 367.984 169.412C367.776 169.3 367.544 169.244 367.288 169.244C367.032 169.244 366.8 169.3 366.592 169.412C366.384 169.516 366.22 169.66 366.1 169.844C365.98 170.028 365.92 170.236 365.92 170.468C365.92 170.804 366.052 171.092 366.316 171.332C366.58 171.564 366.904 171.68 367.288 171.68ZM373.466 173.12C373.17 173.12 372.854 173.076 372.518 172.988C372.182 172.892 371.906 172.756 371.69 172.58C371.586 172.492 371.502 172.38 371.438 172.244C371.382 172.1 371.354 171.964 371.354 171.836C371.354 171.7 371.41 171.572 371.522 171.452C371.642 171.332 371.81 171.272 372.026 171.272C372.17 171.272 372.35 171.348 372.566 171.5C372.694 171.58 372.834 171.652 372.986 171.716C373.138 171.78 373.294 171.812 373.454 171.812C373.838 171.812 374.17 171.744 374.45 171.608C374.73 171.464 374.946 171.268 375.098 171.02C375.25 170.772 375.326 170.48 375.326 170.144C375.326 169.84 375.254 169.58 375.11 169.364C374.974 169.148 374.79 168.98 374.558 168.86C374.334 168.74 374.09 168.68 373.826 168.68C373.578 168.68 373.362 168.72 373.178 168.8C372.994 168.88 372.826 168.964 372.674 169.052C372.522 169.132 372.37 169.172 372.218 169.172C371.954 169.172 371.758 169.116 371.63 169.004C371.502 168.884 371.422 168.744 371.39 168.584C371.358 168.424 371.35 168.28 371.366 168.152L371.738 165.236C371.77 165.068 371.85 164.932 371.978 164.828C372.114 164.716 372.274 164.66 372.458 164.66H375.926C376.118 164.66 376.278 164.724 376.406 164.852C376.534 164.98 376.598 165.14 376.598 165.332C376.598 165.516 376.534 165.672 376.406 165.8C376.278 165.92 376.118 165.98 375.926 165.98H372.83L372.962 165.872L372.638 168.308L372.482 167.852C372.53 167.772 372.634 167.696 372.794 167.624C372.954 167.552 373.138 167.492 373.346 167.444C373.554 167.388 373.758 167.36 373.958 167.36C374.494 167.36 374.974 167.484 375.398 167.732C375.822 167.972 376.154 168.304 376.394 168.728C376.642 169.144 376.766 169.616 376.766 170.144C376.766 170.744 376.63 171.268 376.358 171.716C376.086 172.164 375.702 172.512 375.206 172.76C374.718 173 374.138 173.12 373.466 173.12Z" fill="white"/>
<path d="M487.035 144.999H419.411C416.863 144.999 414.797 147.068 414.797 149.62V160.214C414.797 162.766 416.863 164.835 419.411 164.835H487.035C489.583 164.835 491.649 162.766 491.649 160.214V149.62C491.649 147.068 489.583 144.999 487.035 144.999Z" fill="#223A7A"/>
<path d="M424.291 160.122C423.991 160.122 423.749 160.018 423.564 159.798C423.38 159.579 423.299 159.313 423.322 158.99L423.61 156.425C423.633 156.356 423.61 156.321 423.576 156.298C423.53 156.275 423.483 156.298 423.414 156.332L421.303 157.857C421.038 158.054 420.773 158.123 420.496 158.065C420.219 158.008 419.988 157.846 419.815 157.557C419.619 157.211 419.584 156.91 419.7 156.644C419.815 156.379 420.023 156.205 420.3 156.09L422.664 155.015C422.734 154.992 422.757 154.958 422.757 154.923C422.757 154.888 422.722 154.842 422.664 154.831L420.3 153.756C420 153.629 419.803 153.421 419.711 153.144C419.63 152.867 419.654 152.578 419.804 152.301C419.977 152.023 420.207 151.85 420.484 151.792C420.761 151.734 421.038 151.792 421.292 151.966L423.403 153.525C423.472 153.571 423.518 153.583 423.564 153.56C423.61 153.537 423.622 153.49 423.599 153.433L423.31 150.868C423.287 150.545 423.38 150.267 423.576 150.059C423.772 149.84 424.026 149.736 424.36 149.736C424.66 149.736 424.914 149.84 425.11 150.059C425.306 150.279 425.375 150.545 425.341 150.868L425.052 153.433C425.029 153.502 425.052 153.537 425.087 153.56C425.133 153.583 425.179 153.56 425.248 153.525L427.36 152C427.613 151.804 427.89 151.734 428.19 151.792C428.479 151.85 428.698 152.012 428.859 152.301C429.055 152.647 429.09 152.948 428.975 153.213C428.859 153.467 428.652 153.652 428.375 153.768L426.01 154.842C425.941 154.865 425.918 154.9 425.918 154.935C425.918 154.969 425.952 155.015 426.01 155.027L428.375 156.101C428.675 156.229 428.882 156.436 428.975 156.714C429.067 156.991 429.032 157.28 428.859 157.557C428.709 157.834 428.49 158.008 428.19 158.065C427.902 158.123 427.625 158.065 427.36 157.892L425.248 156.332C425.179 156.286 425.133 156.275 425.087 156.298C425.041 156.321 425.029 156.367 425.052 156.425L425.341 158.99C425.387 159.313 425.306 159.59 425.098 159.798C424.891 160.018 424.626 160.122 424.303 160.122H424.291Z" fill="white"/>
<path d="M438.272 160.122C437.973 160.122 437.73 160.018 437.546 159.798C437.361 159.579 437.28 159.313 437.303 158.99L437.592 156.425C437.615 156.356 437.592 156.321 437.557 156.298C437.511 156.275 437.465 156.298 437.396 156.332L435.285 157.857C435.019 158.054 434.754 158.123 434.477 158.065C434.2 158.008 433.97 157.846 433.797 157.557C433.6 157.211 433.566 156.91 433.681 156.644C433.797 156.379 434.004 156.205 434.281 156.09L436.646 155.015C436.715 154.992 436.738 154.958 436.738 154.923C436.738 154.888 436.704 154.842 436.646 154.831L434.281 153.756C433.981 153.629 433.785 153.421 433.693 153.144C433.612 152.867 433.635 152.578 433.785 152.301C433.958 152.023 434.189 151.85 434.466 151.792C434.742 151.734 435.019 151.792 435.273 151.966L437.384 153.525C437.453 153.571 437.5 153.583 437.546 153.56C437.592 153.537 437.603 153.49 437.58 153.433L437.292 150.868C437.269 150.545 437.361 150.267 437.557 150.059C437.753 149.84 438.007 149.736 438.342 149.736C438.642 149.736 438.895 149.84 439.091 150.059C439.288 150.279 439.357 150.545 439.322 150.868L439.034 153.433C439.011 153.502 439.022 153.537 439.068 153.56C439.115 153.583 439.161 153.56 439.23 153.525L441.341 152C441.595 151.804 441.872 151.734 442.172 151.792C442.46 151.85 442.679 152.012 442.841 152.301C443.037 152.647 443.071 152.948 442.956 153.213C442.841 153.467 442.633 153.652 442.356 153.768L439.991 154.842C439.922 154.865 439.899 154.9 439.899 154.935C439.899 154.969 439.934 155.015 439.991 155.027L442.356 156.101C442.656 156.229 442.864 156.436 442.956 156.714C443.048 156.991 443.014 157.28 442.841 157.557C442.691 157.834 442.471 158.008 442.172 158.065C441.883 158.123 441.606 158.065 441.341 157.892L439.23 156.332C439.161 156.286 439.115 156.275 439.068 156.298C439.022 156.321 439.011 156.367 439.034 156.425L439.322 158.99C439.368 159.313 439.288 159.59 439.08 159.798C438.872 160.018 438.607 160.122 438.284 160.122H438.272Z" fill="white"/>
<path d="M452.266 160.122C451.966 160.122 451.723 160.018 451.539 159.798C451.354 159.579 451.273 159.313 451.297 158.99L451.585 156.425C451.608 156.356 451.585 156.321 451.55 156.298C451.504 156.275 451.458 156.298 451.389 156.332L449.278 157.857C449.012 158.054 448.747 158.123 448.47 158.065C448.193 158.008 447.963 157.846 447.79 157.557C447.594 157.211 447.559 156.91 447.674 156.644C447.79 156.379 447.997 156.205 448.274 156.09L450.639 155.015C450.708 154.992 450.731 154.958 450.731 154.923C450.731 154.888 450.697 154.842 450.639 154.831L448.274 153.756C447.974 153.629 447.778 153.421 447.686 153.144C447.605 152.867 447.628 152.578 447.778 152.301C447.951 152.023 448.182 151.85 448.459 151.792C448.736 151.734 449.012 151.792 449.266 151.966L451.377 153.525C451.447 153.571 451.493 153.583 451.539 153.56C451.585 153.537 451.597 153.49 451.573 153.433L451.285 150.868C451.262 150.545 451.354 150.267 451.55 150.059C451.746 149.84 452 149.736 452.335 149.736C452.635 149.736 452.889 149.84 453.085 150.059C453.281 150.279 453.35 150.545 453.315 150.868L453.027 153.433C453.004 153.502 453.015 153.537 453.062 153.56C453.108 153.583 453.154 153.56 453.223 153.525L455.334 152C455.588 151.804 455.865 151.734 456.165 151.792C456.453 151.85 456.672 152.012 456.834 152.301C457.03 152.647 457.065 152.948 456.949 153.213C456.834 153.467 456.626 153.652 456.349 153.768L453.984 154.842C453.915 154.865 453.892 154.9 453.892 154.935C453.892 154.969 453.927 155.015 453.984 155.027L456.349 156.101C456.649 156.229 456.857 156.436 456.949 156.714C457.041 156.991 457.007 157.28 456.834 157.557C456.684 157.834 456.465 158.008 456.165 158.065C455.876 158.123 455.599 158.065 455.334 157.892L453.223 156.332C453.154 156.286 453.108 156.275 453.062 156.298C453.015 156.321 453.004 156.367 453.027 156.425L453.315 158.99C453.361 159.313 453.281 159.59 453.073 159.798C452.865 160.018 452.6 160.122 452.277 160.122H452.266Z" fill="white"/>
<path d="M466.247 160.122C465.947 160.122 465.705 160.018 465.52 159.798C465.336 159.579 465.255 159.313 465.278 158.99L465.566 156.425C465.589 156.356 465.566 156.321 465.532 156.298C465.486 156.275 465.44 156.298 465.37 156.332L463.259 157.857C462.994 158.054 462.729 158.123 462.452 158.065C462.175 158.008 461.944 157.846 461.771 157.557C461.575 157.211 461.54 156.91 461.656 156.644C461.771 156.379 461.979 156.205 462.256 156.09L464.62 155.015C464.69 154.992 464.713 154.958 464.713 154.923C464.713 154.888 464.678 154.842 464.62 154.831L462.256 153.756C461.956 153.629 461.76 153.421 461.667 153.144C461.587 152.867 461.61 152.578 461.76 152.301C461.933 152.023 462.163 151.85 462.44 151.792C462.717 151.734 462.994 151.792 463.248 151.966L465.359 153.525C465.428 153.571 465.474 153.583 465.52 153.56C465.566 153.537 465.578 153.49 465.555 153.433L465.267 150.868C465.243 150.545 465.336 150.267 465.532 150.059C465.728 149.84 465.982 149.736 466.316 149.736C466.616 149.736 466.87 149.84 467.066 150.059C467.262 150.279 467.331 150.545 467.297 150.868L467.008 153.433C466.985 153.502 466.997 153.537 467.043 153.56C467.089 153.583 467.135 153.56 467.205 153.525L469.316 152C469.569 151.804 469.846 151.734 470.146 151.792C470.435 151.85 470.654 152.012 470.815 152.301C471.011 152.647 471.046 152.948 470.931 153.213C470.815 153.467 470.608 153.652 470.331 153.768L467.966 154.842C467.897 154.865 467.874 154.9 467.874 154.935C467.874 154.969 467.908 155.015 467.966 155.027L470.331 156.101C470.631 156.229 470.838 156.436 470.931 156.714C471.023 156.991 470.988 157.28 470.815 157.557C470.665 157.834 470.446 158.008 470.146 158.065C469.858 158.123 469.581 158.065 469.316 157.892L467.205 156.332C467.135 156.286 467.089 156.275 467.043 156.298C466.997 156.321 466.985 156.367 467.008 156.425L467.297 158.99C467.343 159.313 467.262 159.59 467.055 159.798C466.847 160.018 466.582 160.122 466.259 160.122H466.247Z" fill="white"/>
<path d="M480.24 160.122C479.94 160.122 479.698 160.018 479.513 159.798C479.329 159.579 479.248 159.313 479.271 158.99L479.56 156.425C479.583 156.356 479.56 156.321 479.525 156.298C479.479 156.275 479.433 156.298 479.363 156.332L477.252 157.857C476.987 158.054 476.722 158.123 476.445 158.065C476.168 158.008 475.937 157.846 475.764 157.557C475.568 157.211 475.534 156.91 475.649 156.644C475.764 156.379 475.972 156.205 476.249 156.09L478.614 155.015C478.683 154.992 478.706 154.958 478.706 154.923C478.706 154.888 478.671 154.842 478.614 154.831L476.249 153.756C475.949 153.629 475.753 153.421 475.66 153.144C475.58 152.867 475.603 152.578 475.753 152.301C475.926 152.023 476.156 151.85 476.433 151.792C476.71 151.734 476.987 151.792 477.241 151.966L479.352 153.525C479.421 153.571 479.467 153.583 479.513 153.56C479.56 153.537 479.571 153.49 479.548 153.433L479.26 150.868C479.237 150.545 479.329 150.267 479.525 150.059C479.721 149.84 479.975 149.736 480.309 149.736C480.609 149.736 480.863 149.84 481.059 150.059C481.255 150.279 481.325 150.545 481.29 150.868L481.002 153.433C480.978 153.502 480.99 153.537 481.036 153.56C481.082 153.583 481.128 153.56 481.198 153.525L483.309 152C483.563 151.804 483.839 151.734 484.139 151.792C484.428 151.85 484.647 152.012 484.808 152.301C485.005 152.647 485.039 152.948 484.924 153.213C484.808 153.467 484.601 153.652 484.324 153.768L481.959 154.842C481.89 154.865 481.867 154.9 481.867 154.935C481.867 154.969 481.901 155.015 481.959 155.027L484.324 156.101C484.624 156.229 484.831 156.436 484.924 156.714C485.016 156.991 484.981 157.28 484.808 157.557C484.658 157.834 484.439 158.008 484.139 158.065C483.851 158.123 483.574 158.065 483.309 157.892L481.198 156.332C481.128 156.286 481.082 156.275 481.036 156.298C480.99 156.321 480.978 156.367 481.002 156.425L481.29 158.99C481.336 159.313 481.255 159.59 481.048 159.798C480.84 160.018 480.575 160.122 480.252 160.122H480.24Z" fill="#67ACFF"/>
</g>
<defs>
<clipPath id="clip0_58_550">
<rect width="506" height="381" fill="white"/>
</clipPath>
</defs>
</svg>
