<svg width="439" height="230" viewBox="0 0 439 230" fill="none" xmlns="http://www.w3.org/2000/svg">
<path fill-rule="evenodd" clip-rule="evenodd" d="M264.809 18.0205H150.721C145.037 18.0205 140.387 22.0898 140.387 27.0618V204.502H275.145V27.0618C275.144 22.089 270.493 18.0205 264.809 18.0205Z" fill="#919191"/>
<path fill-rule="evenodd" clip-rule="evenodd" d="M283.541 18.0205H187.963C183.2 18.0205 179.304 21.4291 179.304 25.5946V204.502H292.2V25.5946C292.2 21.4291 288.304 18.0205 283.541 18.0205Z" fill="#AEAEAE"/>
<path fill-rule="evenodd" clip-rule="evenodd" d="M283.541 22.6868H187.963C186.92 22.6868 186.065 23.4336 186.065 24.3463V204.502H285.439V24.3471C285.439 23.4336 284.585 22.6868 283.541 22.6868Z" fill="white"/>
<path fill-rule="evenodd" clip-rule="evenodd" d="M222.723 22.6858H248.782C249.998 22.6858 250.992 23.5554 250.992 24.6197V24.6214C250.992 25.6849 249.998 26.5553 248.782 26.5553H222.723C221.507 26.5553 220.513 25.6858 220.513 24.6214V24.6197C220.513 23.5554 221.507 22.6858 222.723 22.6858Z" fill="#656565"/>
<path fill-rule="evenodd" clip-rule="evenodd" d="M187.963 22.6868H283.541C284.585 22.6868 285.439 23.4336 285.439 24.3471V24.6215H186.066V24.3471C186.066 23.4336 186.92 22.6868 187.963 22.6868Z" fill="#656565"/>
<path fill-rule="evenodd" clip-rule="evenodd" d="M222.723 160.426H248.782C249.998 160.426 250.992 161.297 250.992 162.36V162.362C250.992 163.425 249.998 164.296 248.782 164.296H222.723C221.507 164.296 220.513 163.425 220.513 162.362V162.36C220.513 161.297 221.507 160.426 222.723 160.426Z" fill="#656565"/>
<path fill-rule="evenodd" clip-rule="evenodd" d="M187.963 160.426H283.541C284.585 160.426 285.439 161.173 285.439 162.086V162.361H186.066V162.086C186.066 161.174 186.92 160.426 187.963 160.426Z" fill="#656565"/>
<path d="M352.047 70.5334H252.675V114.513H352.047V70.5334Z" fill="white"/>
<path fill-rule="evenodd" clip-rule="evenodd" d="M222.723 114.512H248.782C249.998 114.512 250.992 115.383 250.992 116.446V116.449C250.992 117.513 249.998 118.382 248.782 118.382H222.723C221.507 118.382 220.513 117.513 220.513 116.449V116.446C220.513 115.382 221.507 114.512 222.723 114.512Z" fill="#656565"/>
<path fill-rule="evenodd" clip-rule="evenodd" d="M187.963 114.513H283.541C284.585 114.513 285.439 115.26 285.439 116.174V116.449H186.066V116.174C186.066 115.26 186.92 114.513 187.963 114.513Z" fill="#656565"/>
<path fill-rule="evenodd" clip-rule="evenodd" d="M254.573 68.5996H289.304H289.333H315.391H315.419H350.15C351.194 68.5996 352.048 69.3465 352.048 70.2592V70.5336H317.603C317.603 71.5971 316.608 72.4691 315.391 72.4691H289.332C288.117 72.4691 287.122 71.5979 287.122 70.5344L252.675 70.5336V70.2592C252.675 69.3465 253.53 68.5996 254.573 68.5996Z" fill="#656565"/>
<path fill-rule="evenodd" clip-rule="evenodd" d="M252.675 114.513V70.5334H186.065V116.174C186.065 115.26 186.919 114.513 187.963 114.513H222.683C222.696 114.512 222.709 114.512 222.723 114.512H248.782C248.795 114.512 248.808 114.512 248.821 114.513H252.675Z" fill="#E5E5E5"/>
<g style="mix-blend-mode:luminosity">
<path fill-rule="evenodd" clip-rule="evenodd" d="M47.3867 204.021L387.886 204.021C390.81 204.021 393.205 206.525 393.205 209.584C393.205 212.644 390.811 215.15 387.886 215.15H369.944C368.318 215.15 366.989 216.542 366.989 218.241C366.989 219.942 368.319 221.333 369.944 221.333H376.508C378.538 221.333 380.202 223.072 380.202 225.197C380.202 227.321 378.539 229.061 376.508 229.061L59.3525 229.061C57.3205 229.061 55.6592 227.322 55.6592 225.197C55.6592 223.071 57.3212 221.333 59.3525 221.333H64.5226C66.1474 221.333 67.4768 219.941 67.4768 218.241C67.4768 216.541 66.1474 215.15 64.5226 215.15H47.3867C44.4618 215.15 42.0685 212.646 42.0685 209.585C42.0685 206.526 44.4642 204.021 47.3867 204.021ZM50.1563 229.061C52.106 229.061 53.7016 227.392 53.7016 225.351V225.042C53.7016 223.001 52.106 221.332 50.1563 221.332C48.2067 221.332 46.6103 223.001 46.6103 225.042V225.351C46.6103 227.393 48.2067 229.061 50.1563 229.061Z" fill="#E5E5E5"/>
</g>
<path fill-rule="evenodd" clip-rule="evenodd" d="M89.6734 144.487C89.6734 144.218 89.8817 144 90.1384 144C90.3951 144 90.6034 144.218 90.6034 144.487V146.675C90.6034 146.943 90.3951 147.162 90.1384 147.162C89.8817 147.162 89.6734 146.943 89.6734 146.675V144.487ZM86.5044 146.264C86.323 146.073 86.323 145.764 86.5044 145.575C86.6859 145.385 86.9806 145.385 87.162 145.575L88.6403 147.122C88.8217 147.312 88.8217 147.622 88.6403 147.81C88.4589 148.001 88.1649 148.001 87.9827 147.81L86.5044 146.264ZM85.4643 149.863C85.2076 149.863 85 149.644 85 149.377C85 149.109 85.2084 148.89 85.4643 148.89H87.5557C87.8124 148.89 88.0208 149.109 88.0208 149.377C88.0208 149.644 87.8124 149.863 87.5557 149.863H85.4643ZM87.162 153.179C86.9806 153.368 86.6859 153.368 86.5044 153.179C86.323 152.989 86.323 152.681 86.5044 152.49L87.9835 150.944C88.165 150.754 88.4597 150.754 88.6411 150.944C88.8225 151.133 88.8225 151.442 88.6411 151.631L87.162 153.179ZM90.6034 154.267C90.6034 154.536 90.3951 154.754 90.1384 154.754C89.8817 154.754 89.6734 154.536 89.6734 154.267V152.079C89.6734 151.811 89.8817 151.592 90.1384 151.592C90.3951 151.592 90.6034 151.811 90.6034 152.079V154.267ZM93.7715 152.49C93.953 152.681 93.953 152.989 93.7715 153.179C93.5901 153.368 93.2954 153.368 93.114 153.179L91.6349 151.631C91.4543 151.441 91.4543 151.132 91.6349 150.944C91.8163 150.754 92.1118 150.754 92.2925 150.944L93.7715 152.49ZM94.8117 148.891C95.0684 148.891 95.2768 149.11 95.2768 149.377C95.2768 149.645 95.0676 149.864 94.8117 149.864H92.7203C92.4636 149.864 92.2552 149.645 92.2552 149.377C92.2552 149.11 92.4636 148.891 92.7203 148.891H94.8117ZM93.114 145.575C93.2954 145.385 93.5901 145.385 93.7715 145.575C93.953 145.764 93.953 146.073 93.7715 146.264L92.2925 147.81C92.111 148.001 91.8163 148.001 91.6349 147.81C91.4543 147.622 91.4543 147.312 91.6349 147.122L93.114 145.575Z" fill="#AEAEAE"/>
<path fill-rule="evenodd" clip-rule="evenodd" d="M384.069 123.93C385.586 122.343 387.682 121.36 389.997 121.36C392.311 121.36 394.407 122.343 395.923 123.93C397.441 125.518 398.38 127.711 398.38 130.133C398.38 132.555 397.441 134.748 395.923 136.336C394.407 137.922 392.31 138.905 389.997 138.905C387.681 138.905 385.586 137.922 384.069 136.336C382.552 134.748 381.613 132.555 381.613 130.133C381.614 127.711 382.552 125.518 384.069 123.93ZM385.88 115.236C384.718 115.587 383.617 116.082 382.594 116.7C381.545 117.335 380.578 118.099 379.711 118.974C379.542 119.144 379.291 119.17 379.097 119.052L375.203 116.698L375.181 116.685C374.958 116.558 374.703 116.535 374.472 116.6C374.231 116.667 374.017 116.829 373.884 117.069L373.868 117.096L371.128 122.064C370.995 122.303 370.969 122.58 371.034 122.831C371.097 123.082 371.252 123.306 371.482 123.445L371.508 123.463L375.371 125.796C375.574 125.919 375.667 126.164 375.614 126.39H375.616C375.472 126.992 375.364 127.61 375.29 128.244C375.218 128.862 375.181 129.492 375.181 130.134C375.181 130.776 375.218 131.406 375.29 132.023C375.364 132.657 375.473 133.276 375.616 133.876C375.674 134.126 375.555 134.377 375.343 134.487L371.481 136.82L371.482 136.821C371.252 136.96 371.097 137.185 371.034 137.435C370.969 137.687 370.995 137.963 371.128 138.202L373.884 143.197C374.017 143.437 374.231 143.599 374.472 143.666C374.712 143.733 374.974 143.706 375.202 143.567L375.232 143.551L379.101 141.214C379.303 141.094 379.551 141.131 379.712 141.292C380.578 142.166 381.545 142.932 382.595 143.565C383.624 144.188 384.732 144.685 385.903 145.035C386.129 145.103 386.277 145.319 386.277 145.553V150.256C386.277 150.533 386.387 150.786 386.561 150.968C386.735 151.151 386.975 151.265 387.241 151.265H392.755C393.019 151.265 393.26 151.15 393.435 150.968C393.61 150.785 393.718 150.533 393.718 150.256V145.553C393.718 145.299 393.887 145.086 394.115 145.029C395.276 144.677 396.377 144.183 397.4 143.565C398.448 142.93 399.416 142.165 400.282 141.291C400.46 141.113 400.727 141.094 400.922 141.231L404.792 143.567C405.021 143.705 405.284 143.732 405.524 143.665C405.765 143.598 405.978 143.436 406.111 143.197L406.127 143.169L408.868 138.2C409.001 137.961 409.026 137.686 408.961 137.435C408.897 137.183 408.743 136.958 408.515 136.82L404.623 134.469C404.419 134.348 404.327 134.102 404.379 133.874C404.522 133.273 404.631 132.655 404.705 132.022C404.776 131.405 404.813 130.774 404.813 130.132C404.813 129.491 404.776 128.86 404.705 128.242C404.631 127.608 404.522 126.991 404.379 126.389C404.32 126.138 404.438 125.887 404.651 125.778L408.515 123.444C408.742 123.306 408.896 123.081 408.961 122.829C409.026 122.578 409 122.303 408.868 122.064L408.853 122.034L406.112 117.067L406.111 117.068C405.978 116.828 405.764 116.666 405.524 116.599C405.284 116.532 405.021 116.558 404.792 116.696V116.697L400.897 119.05C400.689 119.176 400.433 119.132 400.272 118.961C399.408 118.091 398.444 117.331 397.4 116.698C396.371 116.076 395.263 115.579 394.093 115.228C393.867 115.16 393.718 114.944 393.718 114.71V110.008C393.718 109.731 393.609 109.479 393.435 109.296C393.259 109.113 393.019 109 392.755 109H387.241C386.975 109 386.734 109.113 386.561 109.296C386.386 109.479 386.277 109.731 386.277 110.008V114.71C386.276 114.966 386.108 115.179 385.88 115.236Z" fill="#E5E5E5"/>
<path fill-rule="evenodd" clip-rule="evenodd" d="M60.0694 45.931C61.5865 44.3436 63.6819 43.3621 65.9968 43.3621C68.3117 43.3621 70.4072 44.3436 71.9251 45.931C73.4422 47.5184 74.3802 49.7118 74.3802 52.134C74.3802 54.5554 73.4414 56.7488 71.9251 58.3362C70.408 59.9236 68.3117 60.9059 65.9968 60.9059C63.6819 60.9059 61.5857 59.9236 60.0694 58.3362C58.5515 56.7488 57.6135 54.5554 57.6135 52.134C57.6135 49.711 58.5515 47.5176 60.0694 45.931ZM61.8796 37.2362C60.7182 37.5868 59.6162 38.0817 58.5943 38.6993C57.5454 39.3342 56.5773 40.0985 55.7113 40.9731C55.5418 41.143 55.2907 41.1687 55.0974 41.051L51.202 38.6976L51.1814 38.6843C50.9572 38.5575 50.7037 38.5335 50.4716 38.599C50.2315 38.6661 50.0168 38.8278 49.8845 39.0681L49.8679 39.0963L47.1276 44.0634C46.9953 44.303 46.9691 44.579 47.0341 44.8302C47.0983 45.0813 47.2527 45.306 47.4817 45.4444L47.5086 45.4618L51.3731 47.7953C51.5759 47.9172 51.6694 48.1625 51.6155 48.3897C51.4729 48.9906 51.3652 49.609 51.2907 50.2432C51.2186 50.8608 51.1822 51.4908 51.1822 52.1332C51.1822 52.774 51.2194 53.4056 51.2907 54.0232C51.3644 54.6557 51.4737 55.2749 51.6163 55.8759C51.675 56.1262 51.5569 56.3782 51.3446 56.4868L47.4817 58.8211V58.822C47.2527 58.9604 47.0983 59.185 47.0341 59.4362C46.9691 59.6882 46.9961 59.9643 47.1276 60.203L49.8837 65.1982L49.8845 65.1974C50.0168 65.437 50.2315 65.5994 50.4708 65.6666C50.7108 65.7329 50.9738 65.7064 51.202 65.5679L51.2313 65.5522L55.0998 63.2146C55.3026 63.0935 55.5513 63.1317 55.7121 63.2925C56.578 64.1662 57.5454 64.9313 58.5943 65.5663C59.6234 66.1888 60.7325 66.6854 61.901 67.036C62.1284 67.1031 62.2757 67.3195 62.2757 67.5541V72.2567C62.2757 72.5328 62.3843 72.7856 62.5594 72.968C62.7344 73.152 62.9753 73.2655 63.2399 73.2655H68.7538C69.0192 73.2655 69.26 73.152 69.4343 72.968C69.6094 72.7856 69.7179 72.5336 69.7179 72.2567V67.5541C69.7179 67.2996 69.8867 67.0866 70.114 67.0294C71.2762 66.6787 72.3774 66.1838 73.4002 65.5654C74.4499 64.9305 75.4164 64.1654 76.2831 63.2916C76.4598 63.1143 76.7276 63.0944 76.9232 63.2303L80.7925 65.5671C81.0214 65.7055 81.2852 65.7329 81.5253 65.6658C81.7645 65.5986 81.9792 65.437 82.1115 65.1966L82.1282 65.1684L84.8693 60.1997V60.1988C85.0016 59.9593 85.0269 59.6841 84.9628 59.4329C84.8986 59.1817 84.7449 58.9571 84.5167 58.8195L80.6245 56.4678C80.4209 56.3467 80.3282 56.1005 80.3813 55.8742H80.3805C80.5231 55.2724 80.6324 54.654 80.7061 54.0215C80.7782 53.404 80.8154 52.7731 80.8154 52.1315C80.8154 51.4891 80.7782 50.8583 80.7061 50.2407C80.6332 49.6074 80.5239 48.989 80.3805 48.388C80.3219 48.1377 80.4407 47.8865 80.653 47.7771L84.5167 45.4428C84.7441 45.3051 84.8978 45.0805 84.9628 44.8285C85.0269 44.5782 85.0008 44.303 84.8693 44.0642L84.8534 44.0335L82.1131 39.0665H82.1115C81.9792 38.8261 81.7645 38.6644 81.5253 38.5973C81.2852 38.5302 81.0214 38.5575 80.7925 38.6951L80.7941 38.696L76.8979 41.0493C76.6903 41.1753 76.4328 41.1322 76.272 40.9598C75.4093 40.0911 74.4444 39.3293 73.4002 38.6976C72.3719 38.0759 71.2628 37.5785 70.0934 37.2279C69.8669 37.1607 69.7195 36.9452 69.7187 36.7098V32.008C69.7187 31.7311 69.6102 31.4791 69.4351 31.2968C69.2608 31.1136 69.02 31 68.7546 31H63.2407C62.9769 31 62.7352 31.1136 62.5602 31.2968C62.3851 31.4791 62.2765 31.7311 62.2765 32.008V36.7098C62.2757 36.9659 62.1062 37.1798 61.8796 37.2362Z" fill="#E5E5E5"/>
<path fill-rule="evenodd" clip-rule="evenodd" d="M50.5679 109C50.1477 109 49.8059 108.552 49.8059 108C49.8059 107.448 50.1477 107 50.5679 107H86.2388C86.659 107 87 107.448 87 108C87 108.551 86.6582 109 86.2388 109H50.5679ZM45.7324 107C46.1534 107 46.4936 107.448 46.4936 108C46.4936 108.551 46.1526 109 45.7324 109H42.7612C42.3402 109 42 108.552 42 108C42 107.448 42.341 107 42.7612 107H45.7324Z" fill="#AEAEAE"/>
<path fill-rule="evenodd" clip-rule="evenodd" d="M334.676 171.486C334.676 171.217 334.883 171 335.14 171C335.397 171 335.605 171.217 335.605 171.486V173.674C335.605 173.942 335.397 174.161 335.14 174.161C334.883 174.161 334.676 173.942 334.676 173.674V171.486ZM331.507 173.262C331.325 173.072 331.325 172.762 331.507 172.574C331.687 172.384 331.983 172.384 332.164 172.574L333.643 174.12C333.823 174.311 333.823 174.618 333.643 174.809C333.461 174.999 333.166 174.999 332.985 174.809L331.507 173.262ZM330.466 176.862C330.21 176.862 330 176.644 330 176.376C330 176.107 330.21 175.889 330.466 175.889H332.557C332.814 175.889 333.022 176.107 333.022 176.376C333.022 176.644 332.814 176.862 332.557 176.862H330.466ZM332.164 180.178C331.983 180.367 331.687 180.367 331.507 180.178C331.325 179.988 331.325 179.68 331.507 179.49L332.985 177.943C333.166 177.753 333.461 177.753 333.643 177.943C333.823 178.132 333.823 178.441 333.643 178.63L332.164 180.178ZM335.604 181.267C335.604 181.535 335.396 181.753 335.139 181.753C334.882 181.753 334.675 181.535 334.675 181.267V179.079C334.675 178.81 334.882 178.592 335.139 178.592C335.396 178.592 335.604 178.81 335.604 179.079V181.267ZM338.773 179.49C338.955 179.68 338.955 179.988 338.773 180.178C338.592 180.367 338.296 180.367 338.116 180.178L336.637 178.63C336.455 178.441 336.455 178.132 336.637 177.943C336.819 177.753 337.113 177.753 337.295 177.943L338.773 179.49ZM339.814 175.889C340.069 175.889 340.278 176.107 340.278 176.376C340.278 176.644 340.069 176.862 339.814 176.862H337.723C337.466 176.862 337.258 176.644 337.258 176.376C337.258 176.107 337.466 175.889 337.723 175.889H339.814ZM338.116 172.574C338.297 172.384 338.592 172.384 338.773 172.574C338.955 172.762 338.955 173.072 338.773 173.262L337.295 174.809C337.113 174.999 336.818 174.999 336.637 174.809C336.455 174.618 336.455 174.312 336.637 174.12L338.116 172.574Z" fill="#AEAEAE"/>
<path fill-rule="evenodd" clip-rule="evenodd" d="M432.676 76.4858C432.676 76.2172 432.883 76 433.14 76C433.397 76 433.605 76.2172 433.605 76.4858V78.6742C433.605 78.9419 433.397 79.1608 433.14 79.1608C432.883 79.1608 432.676 78.9419 432.676 78.6742V76.4858ZM429.507 78.2622C429.325 78.0724 429.325 77.7624 429.507 77.5742C429.687 77.3835 429.983 77.3835 430.164 77.5742L431.643 79.1202C431.823 79.3108 431.823 79.6184 431.643 79.809C431.461 79.9988 431.166 79.9988 430.985 79.809L429.507 78.2622ZM428.466 81.8623C428.21 81.8623 428 81.6443 428 81.3757C428 81.1072 428.21 80.8891 428.466 80.8891H430.557C430.814 80.8891 431.022 81.1072 431.022 81.3757C431.022 81.6443 430.814 81.8623 430.557 81.8623H428.466ZM430.164 85.1781C429.983 85.3671 429.687 85.3671 429.507 85.1781C429.325 84.9883 429.325 84.6799 429.507 84.4901L430.985 82.9433C431.166 82.7526 431.461 82.7526 431.643 82.9433C431.823 83.1323 431.823 83.4415 431.643 83.6305L430.164 85.1781ZM433.604 86.2665C433.604 86.5351 433.396 86.7531 433.139 86.7531C432.882 86.7531 432.675 86.5351 432.675 86.2665V84.0789C432.675 83.8103 432.882 83.5915 433.139 83.5915C433.396 83.5915 433.604 83.8103 433.604 84.0789V86.2665ZM436.773 84.4901C436.955 84.6799 436.955 84.9883 436.773 85.1781C436.592 85.3671 436.296 85.3671 436.116 85.1781L434.637 83.6305C434.455 83.4406 434.455 83.1323 434.637 82.9433C434.819 82.7526 435.113 82.7526 435.295 82.9433L436.773 84.4901ZM437.814 80.8891C438.069 80.8891 438.278 81.1072 438.278 81.3757C438.278 81.6443 438.069 81.8623 437.814 81.8623H435.723C435.466 81.8623 435.258 81.6443 435.258 81.3757C435.258 81.1072 435.466 80.8891 435.723 80.8891H437.814ZM436.116 77.5742C436.297 77.3835 436.592 77.3835 436.773 77.5742C436.955 77.7624 436.955 78.0715 436.773 78.2622L435.295 79.809C435.113 79.9988 434.818 79.9988 434.637 79.809C434.455 79.6184 434.455 79.3117 434.637 79.1202L436.116 77.5742Z" fill="#AEAEAE"/>
<path fill-rule="evenodd" clip-rule="evenodd" d="M370.711 21.3595C371.857 20.1592 373.233 19.1901 374.762 18.527C376.233 17.8895 377.844 17.5372 379.53 17.5372C381.215 17.5372 382.825 17.8895 384.296 18.527C385.827 19.1901 387.201 20.1592 388.348 21.3595C389.495 22.5598 390.422 23.9989 391.055 25.5996C391.665 27.1381 392.001 28.8233 392.001 30.5873C392.001 32.3513 391.665 34.0366 391.055 35.5759C390.421 37.1775 389.495 38.6149 388.348 39.8152C387.202 41.0155 385.828 41.9845 384.299 42.6469C382.829 43.286 381.216 43.6374 379.531 43.6374C377.844 43.6374 376.234 43.286 374.763 42.6477C373.233 41.9854 371.858 41.0155 370.712 39.8152C369.565 38.6149 368.639 37.1766 368.005 35.5759C367.394 34.0366 367.059 32.3513 367.059 30.5873C367.059 28.8233 367.395 27.1381 368.005 25.5996C368.638 23.998 369.563 22.5598 370.711 21.3595ZM375.2 19.6411C373.818 20.2396 372.574 21.1208 371.528 22.2141C370.481 23.3083 369.64 24.6131 369.07 26.0563C368.517 27.4498 368.213 28.9792 368.213 30.5865C368.213 32.1938 368.517 33.7241 369.07 35.1175C369.641 36.5616 370.482 37.8655 371.528 38.9597C372.573 40.0539 373.82 40.9342 375.2 41.5327C376.531 42.1097 377.993 42.428 379.53 42.428C381.064 42.428 382.526 42.1097 383.857 41.5327C385.239 40.9351 386.486 40.0539 387.531 38.9597C388.577 37.8655 389.419 36.5616 389.991 35.1175C390.542 33.7241 390.846 32.1938 390.846 30.5865C390.846 28.9792 390.542 27.4489 389.991 26.0563C389.419 24.6123 388.577 23.3083 387.531 22.2141C386.487 21.1208 385.239 20.2396 383.859 19.6411C382.528 19.0641 381.066 18.745 379.53 18.745C377.992 18.7458 376.53 19.0641 375.2 19.6411ZM373.821 10.0377C373.041 10.274 372.273 10.5616 371.523 10.8957C370.762 11.2347 370.024 11.6202 369.315 12.0496C368.597 12.4848 367.902 12.9672 367.236 13.4919C366.567 14.0192 365.933 14.5853 365.337 15.188C365.124 15.401 364.861 15.5254 364.59 15.5602C364.313 15.5958 364.026 15.5361 363.778 15.3853C361.946 14.2786 360.021 13.1836 358.226 12.0313C358.139 11.9841 358.048 11.9551 357.957 11.9443C357.853 11.9327 357.749 11.941 357.65 11.9683C357.548 11.9974 357.452 12.0454 357.371 12.1118C357.291 12.1756 357.221 12.2568 357.168 12.3521C355.833 14.466 354.493 17.1965 353.256 19.4388C353.204 19.5341 353.171 19.6369 353.159 19.7397C353.144 19.8475 353.155 19.9602 353.182 20.0696C353.208 20.1757 353.254 20.2761 353.318 20.3631C353.378 20.4468 353.457 20.5198 353.549 20.5745C355.196 21.7151 357.319 22.8549 359.065 23.911C359.321 24.0643 359.509 24.2948 359.615 24.5567C359.653 24.6488 359.68 24.7441 359.698 24.8419L359.812 24.8809L359.683 25.4197C359.584 25.8433 359.496 26.266 359.422 26.6871C359.351 27.0983 359.289 27.5277 359.236 27.9753C359.186 28.4113 359.148 28.8449 359.124 29.2726C359.099 29.6904 359.087 30.1289 359.087 30.5848C359.087 31.0408 359.099 31.4784 359.124 31.8962C359.148 32.3248 359.186 32.7583 359.236 33.1952C359.289 33.6428 359.352 34.0714 359.422 34.4826C359.497 34.9045 359.585 35.3281 359.684 35.7517C359.759 36.0658 359.723 36.3817 359.602 36.6527C359.484 36.9238 359.277 37.1518 359.012 37.2935L354.127 40.2454L354.128 40.2471L353.549 40.5969C353.457 40.6516 353.378 40.7254 353.318 40.8083C353.255 40.8945 353.208 40.9948 353.182 41.1017C353.155 41.2111 353.144 41.3239 353.159 41.4316C353.171 41.5336 353.204 41.6364 353.256 41.7325L356.873 48.2903L356.874 48.2895L357.167 48.8192C357.219 48.9154 357.29 48.9966 357.37 49.0604C357.452 49.1259 357.548 49.1748 357.65 49.2038C357.753 49.2328 357.861 49.2411 357.964 49.2279C358.061 49.2146 358.158 49.1806 358.249 49.1259C359.999 47.9753 361.974 46.8778 363.78 45.7869C364.037 45.6327 364.319 45.5788 364.586 45.6128C364.864 45.6476 365.127 45.7753 365.334 45.9825L365.336 45.985C365.933 46.5877 366.569 47.1555 367.236 47.6819C367.901 48.2058 368.596 48.6882 369.314 49.1234C370.027 49.5545 370.771 49.9432 371.537 50.2839C372.291 50.6188 373.071 50.909 373.878 51.1502C374.16 51.2347 374.396 51.4113 374.561 51.6409C374.729 51.873 374.825 52.1623 374.825 52.4666L374.828 59.1371C374.828 59.249 374.848 59.3559 374.887 59.4504C374.925 59.5491 374.986 59.6411 375.06 59.719C375.133 59.7969 375.221 59.8591 375.317 59.9014C375.409 59.9412 375.51 59.9627 375.617 59.9627H383.441C383.549 59.9627 383.649 59.9412 383.741 59.9014C383.837 59.8591 383.925 59.7969 383.998 59.7207C384.072 59.6411 384.132 59.5491 384.172 59.4504C384.21 59.3559 384.23 59.249 384.23 59.1371V52.4666C384.23 52.1482 384.337 51.854 384.513 51.6194C384.695 51.3806 384.947 51.2049 385.237 51.1336C386.016 50.899 386.785 50.6114 387.534 50.2773C388.296 49.9375 389.034 49.552 389.742 49.1226C390.461 48.6874 391.156 48.2058 391.822 47.6811C392.489 47.1547 393.125 46.5877 393.721 45.985C393.942 45.762 394.222 45.6369 394.506 45.6103C394.798 45.5822 395.095 45.6568 395.346 45.83L400.805 49.1267C400.895 49.1814 400.995 49.2154 401.093 49.2287C401.196 49.242 401.304 49.2328 401.408 49.2047C401.51 49.1756 401.606 49.1267 401.689 49.0612C401.768 48.9974 401.838 48.917 401.891 48.82C403.188 46.4542 404.504 44.0983 405.803 41.7325C405.855 41.6372 405.887 41.5344 405.899 41.4308C405.913 41.323 405.904 41.2111 405.876 41.1025C405.85 40.9948 405.803 40.8936 405.741 40.8083C405.681 40.7229 405.605 40.6516 405.514 40.5977L399.993 37.262C399.736 37.1078 399.549 36.8782 399.444 36.6163C399.414 36.545 399.391 36.472 399.374 36.3966L399.229 36.3659L399.375 35.7533C399.474 35.3297 399.562 34.9061 399.636 34.485C399.707 34.0747 399.77 33.6445 399.822 33.1977C399.873 32.76 399.911 32.3265 399.936 31.8979C399.96 31.4809 399.972 31.0433 399.972 30.5865C399.972 30.1306 399.96 29.6937 399.936 29.2759C399.912 28.8482 399.873 28.4147 399.822 27.9778C399.769 27.5252 399.707 27.0933 399.636 26.6863C399.561 26.266 399.474 25.8433 399.375 25.4205C399.299 25.1047 399.337 24.7888 399.457 24.5169C399.577 24.2467 399.782 24.0196 400.043 23.8787L405.511 20.5745C405.601 20.5223 405.678 20.4485 405.74 20.3647C405.802 20.2802 405.848 20.1791 405.875 20.0705C405.903 19.9611 405.912 19.8492 405.899 19.7422C405.886 19.6394 405.854 19.5358 405.802 19.4405C404.466 17.3631 403.128 14.587 401.89 12.3538C401.837 12.2576 401.767 12.1764 401.688 12.1134C401.606 12.0471 401.509 11.999 401.408 11.97C401.302 11.941 401.194 11.9327 401.092 11.946C400.996 11.9584 400.897 11.9932 400.804 12.0488L395.279 15.3861C395.019 15.5444 394.727 15.5975 394.45 15.5585C394.173 15.5187 393.908 15.3861 393.703 15.1731C393.103 14.5679 392.471 14.0034 391.812 13.4845C391.156 12.9672 390.464 12.4873 389.74 12.0496C389.028 11.6185 388.285 11.2306 387.518 10.8891C386.765 10.555 385.984 10.264 385.179 10.0228C384.896 9.93742 384.66 9.76086 384.495 9.53124C384.326 9.29913 384.23 9.009 384.23 8.70644L384.228 2.03507C384.228 1.92316 384.207 1.81705 384.169 1.72172C384.131 1.62225 384.07 1.53106 383.995 1.45231C383.923 1.37439 383.835 1.31222 383.738 1.26995C383.647 1.23016 383.547 1.20778 383.438 1.20778H375.615C375.507 1.20778 375.407 1.23016 375.315 1.26995C375.219 1.31222 375.13 1.37439 375.057 1.45066C374.915 1.60236 374.825 1.80877 374.825 2.03425V8.7056C374.825 9.02475 374.72 9.31903 374.545 9.55197C374.362 9.79236 374.111 9.96727 373.821 10.0377ZM371.071 9.78573C370.267 10.1438 369.488 10.5517 368.738 11.0059C367.972 11.4685 367.238 11.9775 366.541 12.5287C365.841 13.0816 365.171 13.6793 364.538 14.3192C364.513 14.3433 364.483 14.3574 364.45 14.3615C364.417 14.3657 364.383 14.359 364.355 14.3433C362.497 13.2209 360.637 12.1035 358.783 10.9753C358.562 10.8501 358.325 10.7747 358.085 10.7465C357.838 10.7166 357.589 10.7365 357.353 10.8037C357.108 10.8716 356.876 10.9902 356.67 11.1543C356.473 11.3127 356.302 11.5124 356.171 11.7495C354.825 14.0308 353.547 16.5019 352.258 18.8353C352.127 19.0724 352.048 19.3294 352.016 19.5897C351.983 19.8591 352.002 20.1285 352.066 20.383C352.131 20.6391 352.245 20.882 352.402 21.0959C352.552 21.3031 352.744 21.4822 352.971 21.6189C354.748 22.767 356.674 23.8571 358.493 24.9555C358.52 24.972 358.542 24.9994 358.555 25.0301C358.569 25.0624 358.571 25.0989 358.563 25.1312L358.437 25.67L358.445 25.6725C358.389 25.9344 358.337 26.2005 358.29 26.4708C358.209 26.9325 358.142 27.3876 358.09 27.8336C358.04 28.2754 358 28.733 357.974 29.2022C357.946 29.6738 357.932 30.1356 357.932 30.5857C357.932 31.0358 357.945 31.4958 357.974 31.9675C358 32.4367 358.04 32.8951 358.09 33.3378C358.142 33.7838 358.209 34.238 358.291 34.7006C358.371 35.1606 358.463 35.6074 358.565 36.041C358.574 36.0766 358.57 36.1139 358.556 36.1454C358.539 36.1802 358.516 36.2084 358.488 36.2225C356.457 37.3565 354.398 38.6903 352.393 39.903L352.465 39.9967L352.404 40.0771C352.247 40.2918 352.133 40.5355 352.068 40.7908C352.003 41.0445 351.984 41.3147 352.018 41.5841C352.049 41.8436 352.129 42.1006 352.26 42.3368L356.464 49.9549L356.543 49.9051C356.585 49.9449 356.627 49.983 356.671 50.0187C356.877 50.182 357.11 50.3005 357.354 50.3702C357.596 50.4373 357.853 50.4572 358.11 50.4224C358.352 50.39 358.59 50.3096 358.812 50.1811C360.651 49.1599 362.543 47.9264 364.358 46.8289C364.385 46.814 364.418 46.8082 364.452 46.8123C364.485 46.8165 364.518 46.8314 364.541 46.8554C365.175 47.4945 365.844 48.093 366.544 48.6443C367.241 49.1947 367.975 49.7037 368.739 50.1654C369.494 50.6222 370.279 51.0325 371.087 51.3923C371.892 51.7495 372.719 52.0571 373.563 52.3099C373.596 52.3198 373.625 52.3406 373.643 52.3671C373.664 52.3969 373.676 52.4317 373.674 52.4649V59.1354C373.674 59.4082 373.728 59.671 373.823 59.9122C373.924 60.1633 374.069 60.3871 374.248 60.5737C374.427 60.7602 374.642 60.9127 374.879 61.0155C375.108 61.1158 375.359 61.1713 375.62 61.1713H383.443C383.704 61.1713 383.955 61.1158 384.185 61.0155C384.421 60.9119 384.636 60.7602 384.817 60.5737C384.996 60.3871 385.14 60.1633 385.24 59.9122C385.335 59.671 385.389 59.409 385.389 59.1354V52.4649C385.389 52.4243 385.401 52.3895 385.42 52.3638C385.439 52.3372 385.47 52.3174 385.506 52.3082L385.531 52.2991C386.38 52.043 387.201 51.7371 387.989 51.3856C388.793 51.0275 389.572 50.6197 390.323 50.1654C391.087 49.7029 391.822 49.1947 392.518 48.6435C393.219 48.0914 393.888 47.4929 394.522 46.8529C394.548 46.8264 394.582 46.8107 394.613 46.8082C394.647 46.8057 394.682 46.814 394.712 46.8347L400.234 50.1696C400.461 50.3063 400.705 50.3892 400.951 50.4224C401.207 50.4564 401.465 50.4373 401.709 50.3693C401.952 50.3005 402.186 50.182 402.389 50.0179C402.582 49.8637 402.75 49.6697 402.88 49.4393C404.331 46.9988 405.701 44.3255 407.085 41.8196L407.011 41.7731C407.024 41.7093 407.036 41.6446 407.043 41.5808C407.076 41.3122 407.059 41.0428 406.993 40.7892C406.928 40.5339 406.814 40.2902 406.657 40.0763C406.506 39.8682 406.315 39.69 406.089 39.5532L400.566 36.2167C400.538 36.2001 400.516 36.1728 400.504 36.1429C400.49 36.1098 400.487 36.0725 400.495 36.0377L400.639 35.4267L400.631 35.4251C400.68 35.1872 400.725 34.9459 400.769 34.7006C400.85 34.2388 400.917 33.7837 400.969 33.3369C401.02 32.8943 401.061 32.4367 401.087 31.9667C401.114 31.495 401.129 31.0341 401.129 30.5848C401.129 30.1355 401.114 29.6747 401.087 29.203C401.061 28.733 401.02 28.2746 400.969 27.8294C400.918 27.3876 400.851 26.9325 400.769 26.4666C400.688 26.0091 400.596 25.5623 400.494 25.1295C400.485 25.0947 400.49 25.0574 400.504 25.0226C400.519 24.9911 400.545 24.9637 400.575 24.9472L406.09 21.6156C406.318 21.4772 406.509 21.299 406.658 21.0926C406.814 20.8762 406.928 20.6333 406.993 20.3805C407.058 20.1277 407.075 19.8574 407.043 19.5889C407.013 19.3369 406.936 19.0857 406.81 18.8527C405.496 16.3054 403.989 13.7365 402.599 11.2173L402.52 11.2654C402.478 11.2256 402.435 11.1883 402.389 11.1518C402.185 10.9877 401.951 10.8692 401.709 10.8012C401.465 10.7332 401.207 10.7141 400.951 10.7481C400.702 10.7805 400.458 10.8634 400.235 10.9976L399.826 11.243L399.827 11.248L394.705 14.3408C394.675 14.359 394.64 14.3657 394.607 14.3607C394.575 14.3565 394.544 14.3408 394.521 14.3159L394.506 14.3018C393.88 13.6702 393.21 13.0742 392.508 12.5196C391.807 11.9675 391.076 11.4619 390.322 11.0051C389.567 10.5484 388.782 10.138 387.974 9.77827C387.169 9.42099 386.343 9.11344 385.498 8.86061C385.466 8.85067 385.437 8.82995 385.418 8.80425C385.397 8.77441 385.385 8.7396 385.387 8.70644V2.03507C385.387 1.76234 385.333 1.49956 385.237 1.25917C385.138 1.00883 384.993 0.784191 384.813 0.597678C384.633 0.410336 384.419 0.259463 384.183 0.155845C383.952 0.0555424 383.702 0 383.441 0H375.617C375.357 0 375.106 0.0555424 374.877 0.155845C374.64 0.259463 374.425 0.411165 374.244 0.597678C373.892 0.966559 373.672 1.47553 373.672 2.03507V8.70644C373.672 8.74457 373.66 8.78022 373.641 8.8084C373.621 8.83493 373.59 8.85482 373.555 8.86311L373.531 8.87306C372.68 9.1292 371.859 9.43508 371.071 9.78573Z" fill="#E5E5E5"/>
</svg>
