<svg width="156" height="52" viewBox="0 0 156 52" fill="none" xmlns="http://www.w3.org/2000/svg">
<rect y="8" width="36" height="36" rx="10" fill="url(#paint0_linear_58_671)"/>
<rect y="8" width="36" height="36" rx="10" fill="url(#paint1_linear_58_671)"/>
<path d="M8.12887 23.2747C6.62371 24.7798 6.62371 27.2202 8.12887 28.7253L15.2747 35.8711C16.7798 37.3763 19.2202 37.3763 20.7253 35.8711L27.8711 28.7253C29.3024 27.2941 29.3727 25.0173 28.082 23.503C28.0319 23.4442 27.8608 23.2865 27.8127 23.2383L27.5769 23.0317C27.2843 22.7494 26.8136 22.775 26.5534 23.0873L20.1939 29.4949L18.9997 30.5673C18.3474 31.1531 17.3495 31.1214 16.7357 30.4954L13.3796 27.0728C12.7663 26.4473 12.7712 25.4445 13.3906 24.8251C14.0144 24.2013 15.0257 24.2013 15.6495 24.8251L17.0709 26.2465C17.5609 26.7364 18.3555 26.7355 18.8444 26.2444L24.2409 20.823C24.5186 20.4619 24.4933 19.9527 24.1813 19.6209L24.0114 19.4402C23.9682 19.3943 23.9295 19.347 23.8951 19.2987L20.7253 16.1289C19.2202 14.6237 16.7798 14.6237 15.2747 16.1289L8.12887 23.2747Z" fill="white"/>
<path d="M43 33.9573V17.5245L46.3484 17V22.5068C46.5731 22.4339 46.8578 22.3684 47.2023 22.3101C47.5619 22.2373 47.9065 22.2008 48.2361 22.2008C49.1949 22.2008 49.9889 22.3319 50.6181 22.5942C51.2623 22.8418 51.7717 23.1988 52.1463 23.6649C52.5358 24.1311 52.8054 24.6847 52.9553 25.3257C53.1201 25.9667 53.2025 26.6805 53.2025 27.4672V33.9573H49.8541V27.8606C49.8541 26.8117 49.7117 26.0687 49.4271 25.6316C49.1574 25.1946 48.6481 24.9761 47.899 24.9761C47.5993 24.9761 47.3147 25.0052 47.045 25.0635C46.7903 25.1072 46.5581 25.1582 46.3484 25.2164V33.9573H43Z" fill="#0D0D0D"/>
<path d="M55.6714 28.2976C55.6714 27.2778 55.8287 26.3892 56.1433 25.6316C56.4729 24.8595 56.8999 24.2185 57.4243 23.7086C57.9486 23.1988 58.5479 22.8127 59.2221 22.5505C59.9112 22.2882 60.6153 22.1571 61.3345 22.1571C63.0124 22.1571 64.3383 22.6597 65.3121 23.6649C66.2859 24.6556 66.7728 26.1197 66.7728 28.0572C66.7728 28.2466 66.7653 28.4579 66.7503 28.6909C66.7353 28.9095 66.7203 29.1061 66.7054 29.281H59.1097C59.1846 29.9511 59.5067 30.4828 60.076 30.8762C60.6453 31.2695 61.4094 31.4662 62.3682 31.4662C62.9824 31.4662 63.5817 31.4152 64.166 31.3132C64.7652 31.1967 65.2521 31.0583 65.6267 30.898L66.0761 33.5421C65.8964 33.6296 65.6567 33.717 65.357 33.8044C65.0574 33.8918 64.7203 33.9646 64.3458 34.0229C63.9862 34.0957 63.5967 34.154 63.1772 34.1977C62.7577 34.2414 62.3382 34.2633 61.9187 34.2633C60.8551 34.2633 59.9262 34.1103 59.1322 33.8044C58.3531 33.4984 57.7014 33.0832 57.1771 32.5588C56.6677 32.0198 56.2857 31.3861 56.031 30.6576C55.7913 29.9292 55.6714 29.1426 55.6714 28.2976ZM63.5368 27.052C63.5218 26.7752 63.4693 26.5057 63.3795 26.2435C63.3045 25.9813 63.1772 25.7482 62.9974 25.5442C62.8326 25.3403 62.6154 25.1727 62.3457 25.0416C62.091 24.9105 61.7689 24.845 61.3794 24.845C61.0049 24.845 60.6828 24.9105 60.4131 25.0416C60.1434 25.1582 59.9187 25.3184 59.7389 25.5224C59.5591 25.7263 59.4168 25.9667 59.312 26.2435C59.2221 26.5057 59.1546 26.7752 59.1097 27.052H63.5368Z" fill="#0D0D0D"/>
<path d="M74.0759 34.1759C73.1021 34.1613 72.3081 34.0593 71.6939 33.8699C71.0946 33.6805 70.6152 33.4183 70.2556 33.0832C69.9111 32.7336 69.6714 32.3184 69.5365 31.8377C69.4167 31.3424 69.3567 30.7888 69.3567 30.1769V17.5245L72.7051 17V29.5213C72.7051 29.8127 72.7276 30.0749 72.7725 30.308C72.8175 30.5411 72.8999 30.7378 73.0197 30.898C73.1546 31.0583 73.3418 31.1894 73.5816 31.2914C73.8213 31.3933 74.1434 31.4589 74.5479 31.488L74.0759 34.1759Z" fill="#0D0D0D"/>
<path d="M84.0403 28.2976C84.0403 27.2924 83.8081 26.4912 83.3437 25.8939C82.8793 25.282 82.1901 24.9761 81.2762 24.9761C80.9766 24.9761 80.6994 24.9906 80.4448 25.0198C80.1901 25.0343 79.9803 25.0562 79.8155 25.0853V30.9636C80.0253 31.0947 80.2949 31.204 80.6245 31.2914C80.9691 31.3788 81.3137 31.4225 81.6583 31.4225C83.2463 31.4225 84.0403 30.3809 84.0403 28.2976ZM87.4561 28.2102C87.4561 29.0989 87.3438 29.9074 87.119 30.6358C86.8943 31.3642 86.5647 31.9906 86.1303 32.5151C85.6958 33.0395 85.1565 33.4474 84.5123 33.7388C83.868 34.0302 83.1265 34.1759 82.2875 34.1759C81.8231 34.1759 81.3886 34.1322 80.9841 34.0447C80.5796 33.9573 80.1901 33.8335 79.8155 33.6733V38H76.4671V22.8564C76.7668 22.769 77.1114 22.6889 77.5009 22.616C77.8904 22.5286 78.2949 22.4558 78.7144 22.3975C79.1488 22.3392 79.5833 22.2955 80.0178 22.2664C80.4672 22.2227 80.8942 22.2008 81.2987 22.2008C82.2725 22.2008 83.1414 22.3465 83.9055 22.6379C84.6696 22.9147 85.3138 23.3153 85.8381 23.8397C86.3625 24.3496 86.7595 24.9761 87.0292 25.719C87.3138 26.462 87.4561 27.2924 87.4561 28.2102Z" fill="#0D0D0D"/>
<path d="M89.2817 25.9594H95.7986V28.9095H89.2817V25.9594Z" fill="#0D0D0D"/>
<path d="M101.047 28.1228C101.047 29.128 101.28 29.9365 101.744 30.5484C102.208 31.1602 102.898 31.4662 103.811 31.4662C104.111 31.4662 104.388 31.4589 104.643 31.4443C104.898 31.4152 105.107 31.3861 105.272 31.3569V25.435C105.062 25.3038 104.785 25.1946 104.441 25.1072C104.111 25.0198 103.774 24.9761 103.429 24.9761C101.841 24.9761 101.047 26.025 101.047 28.1228ZM108.621 33.5858C108.321 33.6733 107.976 33.7607 107.587 33.8481C107.197 33.9209 106.785 33.9865 106.351 34.0447C105.931 34.103 105.497 34.1467 105.047 34.1759C104.613 34.2196 104.193 34.2414 103.789 34.2414C102.815 34.2414 101.946 34.103 101.182 33.8262C100.418 33.5494 99.7739 33.1561 99.2496 32.6462C98.7252 32.1217 98.3207 31.4953 98.036 30.7669C97.7664 30.0239 97.6315 29.1935 97.6315 28.2758C97.6315 27.3434 97.7514 26.5057 97.9911 25.7627C98.2308 25.0052 98.5754 24.3642 99.0248 23.8397C99.4743 23.3153 100.021 22.9147 100.665 22.6379C101.325 22.3611 102.074 22.2227 102.913 22.2227C103.377 22.2227 103.789 22.2664 104.149 22.3538C104.523 22.4412 104.898 22.565 105.272 22.7253V17.5245L108.621 17V33.5858Z" fill="#0D0D0D"/>
<path d="M111.194 28.2976C111.194 27.2778 111.351 26.3892 111.666 25.6316C111.995 24.8595 112.422 24.2185 112.947 23.7086C113.471 23.1988 114.07 22.8127 114.745 22.5505C115.434 22.2882 116.138 22.1571 116.857 22.1571C118.535 22.1571 119.861 22.6597 120.835 23.6649C121.808 24.6556 122.295 26.1197 122.295 28.0572C122.295 28.2466 122.288 28.4579 122.273 28.6909C122.258 28.9095 122.243 29.1061 122.228 29.281H114.632C114.707 29.9511 115.029 30.4828 115.599 30.8762C116.168 31.2695 116.932 31.4662 117.891 31.4662C118.505 31.4662 119.104 31.4152 119.689 31.3132C120.288 31.1967 120.775 31.0583 121.149 30.898L121.599 33.5421C121.419 33.6296 121.179 33.717 120.88 33.8044C120.58 33.8918 120.243 33.9646 119.868 34.0229C119.509 34.0957 119.119 34.154 118.7 34.1977C118.28 34.2414 117.861 34.2633 117.441 34.2633C116.378 34.2633 115.449 34.1103 114.655 33.8044C113.876 33.4984 113.224 33.0832 112.7 32.5588C112.19 32.0198 111.808 31.3861 111.554 30.6576C111.314 29.9292 111.194 29.1426 111.194 28.2976ZM119.059 27.052C119.044 26.7752 118.992 26.5057 118.902 26.2435C118.827 25.9813 118.7 25.7482 118.52 25.5442C118.355 25.3403 118.138 25.1727 117.868 25.0416C117.614 24.9105 117.291 24.845 116.902 24.845C116.527 24.845 116.205 24.9105 115.936 25.0416C115.666 25.1582 115.441 25.3184 115.261 25.5224C115.082 25.7263 114.939 25.9667 114.834 26.2435C114.745 26.5057 114.677 26.7752 114.632 27.052H119.059Z" fill="#0D0D0D"/>
<path d="M128.273 31.6191C128.887 31.6191 129.321 31.5609 129.576 31.4443C129.831 31.3278 129.958 31.102 129.958 30.7669C129.958 30.5047 129.793 30.2789 129.464 30.0895C129.134 29.8855 128.632 29.6597 127.958 29.4121C127.434 29.2227 126.954 29.026 126.52 28.8221C126.1 28.6181 125.741 28.3777 125.441 28.1009C125.141 27.8096 124.909 27.4672 124.744 27.0739C124.58 26.6805 124.497 26.2071 124.497 25.6535C124.497 24.5754 124.909 23.7232 125.733 23.0968C126.557 22.4703 127.688 22.1571 129.127 22.1571C129.846 22.1571 130.535 22.2227 131.194 22.3538C131.853 22.4703 132.378 22.6015 132.767 22.7471L132.183 25.282C131.793 25.1509 131.366 25.0343 130.902 24.9324C130.452 24.8304 129.943 24.7794 129.374 24.7794C128.325 24.7794 127.801 25.0635 127.801 25.6316C127.801 25.7627 127.823 25.8793 127.868 25.9813C127.913 26.0832 128.003 26.1852 128.138 26.2872C128.273 26.3746 128.452 26.4766 128.677 26.5931C128.917 26.6951 129.216 26.8117 129.576 26.9428C130.31 27.205 130.917 27.4672 131.396 27.7294C131.876 27.9771 132.25 28.2539 132.52 28.5598C132.805 28.8512 132.999 29.179 133.104 29.5432C133.224 29.9074 133.284 30.3299 133.284 30.8106C133.284 31.9469 132.842 32.8065 131.958 33.3892C131.089 33.9719 129.853 34.2633 128.25 34.2633C127.201 34.2633 126.325 34.1759 125.621 34.001C124.932 33.8262 124.452 33.6805 124.183 33.564L124.744 30.9199C125.314 31.1384 125.898 31.3132 126.497 31.4443C127.097 31.5609 127.688 31.6191 128.273 31.6191Z" fill="#0D0D0D"/>
<path d="M139.135 26.615C139.464 26.2653 139.801 25.9011 140.146 25.5224C140.505 25.1436 140.85 24.7721 141.18 24.4079C141.509 24.0291 141.816 23.6722 142.101 23.3371C142.401 23.0021 142.655 22.7107 142.865 22.4631H146.843C146.049 23.3517 145.27 24.204 144.506 25.0198C143.756 25.821 142.932 26.6514 142.034 27.5109C142.483 27.9043 142.947 28.3777 143.427 28.9313C143.906 29.4703 144.371 30.0312 144.82 30.6139C145.27 31.1967 145.682 31.7794 146.056 32.3621C146.431 32.9448 146.745 33.4766 147 33.9573H143.157C142.918 33.5786 142.64 33.1634 142.326 32.7118C142.026 32.2456 141.704 31.7867 141.359 31.3351C141.015 30.8689 140.648 30.4246 140.258 30.0021C139.884 29.5796 139.509 29.2227 139.135 28.9313V33.9573H135.786V17.5245L139.135 17V26.615Z" fill="#0D0D0D"/>
<defs>
<linearGradient id="paint0_linear_58_671" x1="9.77143" y1="41.6857" x2="42.6857" y2="10.0571" gradientUnits="userSpaceOnUse">
<stop stop-color="#3627E7"/>
<stop offset="1" stop-color="#9694FF"/>
</linearGradient>
<linearGradient id="paint1_linear_58_671" x1="9.77143" y1="41.6857" x2="42.6857" y2="10.0571" gradientUnits="userSpaceOnUse">
<stop stop-color="#3627E7"/>
<stop offset="1" stop-color="#9694FF"/>
</linearGradient>
</defs>
</svg>
